<svg xmlns="http://www.w3.org/2000/svg" width="430" height="430" style="width:100%;height:100%;transform:translate3d(0,0,0);content-visibility:visible" viewBox="0 0 430 430"><defs><clipPath id="a"><path d="M0 0h430v430H0z"/></clipPath><clipPath id="f"><path d="M0 0h430v430H0z"/></clipPath><clipPath id="e"><path d="M0 0h430v430H0z"/></clipPath><clipPath id="d"><path d="M0 0h430v430H0z"/></clipPath><clipPath id="c"><path d="M0 0h430v430H0z"/></clipPath><clipPath id="b"><path d="M0 0h430v430H0z"/></clipPath></defs><g fill="none" clip-path="url(#a)"><g clip-path="url(#b)" style="display:none"><path class="secondary" style="display:none"/><path class="secondary" style="display:none"/><path class="primary" style="display:none"/><path class="primary" style="display:none"/><path class="primary" style="display:none"/><path class="secondary" style="display:none"/><path class="primary" style="display:none"/><path class="secondary" style="display:none"/><path class="secondary" style="display:none"/><path class="primary" style="display:none"/><path class="secondary" style="display:none"/><path class="primary" style="display:none"/></g><g clip-path="url(#c)" style="display:none"><path class="secondary" style="display:none"/><path class="secondary" style="display:none"/><path class="secondary" style="display:none"/><path class="primary" style="display:none"/><path class="primary" style="display:none"/><path class="primary" style="display:none"/><path class="secondary" style="display:none"/><path class="secondary" style="display:none"/><path class="primary" style="display:none"/><path class="secondary" style="display:none"/><path class="secondary" style="display:none"/><path class="primary" style="display:none"/><path class="secondary" style="display:none"/><path class="secondary" style="display:none"/><path class="primary" style="display:none"/></g><g clip-path="url(#d)" style="display:none"><path class="secondary" style="display:none"/><path class="secondary" style="display:none"/><path class="secondary" style="display:none"/><path class="primary" style="display:none"/><path class="primary" style="display:none"/><path class="primary" style="display:none"/><path class="primary" style="display:none"/><g style="display:none"><path class="primary"/><path class="secondary"/></g></g><g stroke-linecap="round" stroke-linejoin="round" stroke-width="12" clip-path="url(#e)" style="display:block"><path stroke="#07A889" d="M26-24.5c-.003 37.97.012 48.993.012 48.993L.008 8.499l-25.996 16.006S-26 13.5-26-24.5" class="secondary" style="display:block" transform="rotate(.044 -498261.117 213498.468)"/><path stroke="#121330" d="M122.223-108.243V165.53s-49.45-.026-115.45-.031c-66-.006-100.336.002-100.336.002-7.951 0-15.066-3.139-20.297-8.37-5.126-5.126-8.37-12.241-8.37-20.192v-273.772m244.453 28.696s-55.451-.028-119.451-.029h-96.335c-15.798 0-28.667-12.869-28.667-28.667 0-15.798 12.869-28.666 28.667-28.666 0 0 27.337-.002 96.33 0 69 .003 119.456.03 119.456.03v57.332z" class="primary" style="display:block" transform="rotate(.044 -252638.227 278535.41)"/><g style="display:block"><path stroke="#121330" d="m170.912 304.455 45.776.04c21.744.02 42.49.045 42.49.045m-114.103-35.105s32 .026 70.058.06c35.943.031 69.943.07 69.943.07" class="primary"/><path stroke="#07A889" d="M285.177 140.066s-23.667-.03-68.681-.07c-46.319-.04-71.321-.06-71.321-.06l-.039 50s24.997.02 71.316.06c45.014.04 68.678.07 68.678.07l.047-50z" class="secondary"/></g></g><g clip-path="url(#f)" style="display:none"><path class="secondary" style="display:none"/><path class="primary" style="display:none"/><g style="display:none"><path class="primary"/><path class="secondary"/></g></g></g></svg>