<svg xmlns="http://www.w3.org/2000/svg" width="430" height="430" style="width:100%;height:100%;transform:translate3d(0,0,0);content-visibility:visible" viewBox="0 0 430 430"><defs><clipPath id="e"><path d="M0 0h430v430H0z"/></clipPath><clipPath id="j"><path d="M0 0h430v430H0z"/></clipPath><clipPath id="g"><path d="M0 0h430v430H0z"/></clipPath><clipPath id="f"><path d="M0 0h430v430H0z"/></clipPath><filter id="a" width="100%" height="100%" x="0%" y="0%" filterUnits="objectBoundingBox"><feComponentTransfer in="SourceGraphic"><feFuncA tableValues="1.0 0.0" type="table"/></feComponentTransfer></filter><filter id="c" width="100%" height="100%" x="0%" y="0%" filterUnits="objectBoundingBox"><feComponentTransfer in="SourceGraphic"><feFuncA tableValues="1.0 0.0" type="table"/></feComponentTransfer></filter><mask id="i" mask-type="alpha"><g filter="url(#a)"><path fill="#fff" d="M0 0h430v430H0z" opacity="0"/><use xmlns:ns1="http://www.w3.org/1999/xlink" ns1:href="#b"/></g></mask><mask id="h" mask-type="alpha"><g filter="url(#c)"><path fill="#fff" d="M0 0h430v430H0z" opacity="0"/><use xmlns:ns2="http://www.w3.org/1999/xlink" ns2:href="#d"/></g></mask><path id="d" style="display:none"/><g id="b" style="display:none"><path/><path/></g></defs><g clip-path="url(#e)"><g fill="none" clip-path="url(#f)" style="display:none"><path class="primary" style="display:none"/><path class="primary" style="display:none"/></g><g clip-path="url(#g)" style="display:block"><g mask="url(#h)" style="display:block"><path fill="none" stroke="#121330" stroke-linecap="round" stroke-linejoin="round" stroke-width="12" d="M370 344c-21.048-.104-308.109-.622-308.109-.622L61.37 88l83.044.104 25.008 31.224 200.474.311v47.124" class="primary"/></g><g mask="url(#i)" style="display:none"><path fill="none" class="secondary"/></g><path fill="none" stroke="#121330" stroke-linecap="round" stroke-linejoin="round" stroke-width="12" d="M154.211 86.618V-86.618h-307.672l.098 1.114" class="primary" style="display:block" transform="translate(215.685 253.382)"/></g><g fill="none" clip-path="url(#j)" style="display:none"><path class="primary" style="display:none"/><path class="primary" style="display:none"/></g></g></svg>