<svg class="animated" id="freepik_stories-book-lover" xmlns="http://www.w3.org/2000/svg" viewBox="0 0 500 500" version="1.1" xmlns:xlink="http://www.w3.org/1999/xlink" xmlns:svgjs="http://svgjs.com/svgjs"><style>svg#freepik_stories-book-lover:not(.animated) .animable {opacity: 0;}svg#freepik_stories-book-lover.animated #freepik--Books--inject-159 {animation: 1.5s Infinite  linear floating;animation-delay: 0s;}            @keyframes floating {                0% {                    opacity: 1;                    transform: translateY(0px);                }                50% {                    transform: translateY(-10px);                }                100% {                    opacity: 1;                    transform: translateY(0px);                }            }        </style><g id="freepik--background-complete--inject-159" class="animable" style="transform-origin: 274.046px 277.093px;"><path d="M372,473.31c-22.11-15.45-27.13-44.12-26.25-69.89.14-4.31-.33-8.84,1.71-12.62s6.83-6.35,10.68-4.54c3.19,1.51,4.59,5.22,6.37,8.3a25.2,25.2,0,0,0,10.09,9.63c2.74,1.42,6.13,2.29,8.84.8,3.71-2.05,4.15-7.17,4.12-11.45l-.15-23.93c0-4.27,0-8.64,1.29-12.71s4.27-7.83,8.34-9,9.11,1.21,10,5.4c.36,1.74,0,3.55.12,5.32s.95,3.75,2.63,4.24,3.42-.71,4.7-2c4.42-4.32,7.42-9.89,10.22-15.42s5.52-11.21,9.52-15.92,9.55-8.44,15.68-8.79,12.66,3.43,14.21,9.45-2,12.15-5.8,17a95.32,95.32,0,0,1-19.89,18.95c-1.34,1-2.81,2-3.32,3.58-.93,2.85,1.77,5.68,4.59,6.62,3.19,1.07,6.65.73,10,1.13s7,1.86,8.22,5c1.75,4.38-1.91,9-5.51,12a81.42,81.42,0,0,1-24.21,14c-3.15,1.15-6.46,2.17-9,4.38S415.07,419,416.6,422s5.47,4,8.77,3.37,6.25-2.4,9.39-3.59c5.88-2.22,13.47-1.81,17.24,3.27,2.48,3.34,2.69,8,1.44,12s-3.79,7.42-6.48,10.58c-9.43,11.06-21.49,20-35.14,24.69s-26.28,6-39.83,1.05" style="fill: rgb(245, 245, 245); transform-origin: 405.074px 398.611px;" id="el40wqbbwlip5" class="animable"></path><path d="M378.64,457.15a384.33,384.33,0,0,1,15.22-41.28q2.31-5.37,4.55-10.61c1.5-3.48,3-6.94,4.65-10.22A189.66,189.66,0,0,1,413.7,376.7c3.66-5.67,7.35-10.91,10.83-15.79s6.84-9.36,10.06-13.31a151,151,0,0,1,16.57-17.52c2.11-1.91,3.79-3.33,4.95-4.28l1.32-1.08a3.51,3.51,0,0,1,.47-.34,3.7,3.7,0,0,1-.42.41l-1.27,1.13c-1.12,1-2.77,2.45-4.85,4.39A160.35,160.35,0,0,0,435,348c-3.19,4-6.5,8.46-10,13.34s-7.12,10.15-10.76,15.81a193,193,0,0,0-10.56,18.29c-1.65,3.27-3.12,6.69-4.62,10.18s-3,7-4.54,10.62a394.69,394.69,0,0,0-15.25,41.17" style="fill: rgb(224, 224, 224); transform-origin: 418.27px 390.895px;" id="el6eu6ncot11s" class="animable"></path><path d="M403.28,395a8.81,8.81,0,0,1-.42-1.83c-.22-1.18-.49-2.9-.79-5-.61-4.26-1.24-10.18-1.92-16.7s-1.39-12.41-2.06-16.65c-.32-2.12-.61-3.83-.82-5a9.33,9.33,0,0,1-.24-1.86,7.69,7.69,0,0,1,.54,1.79c.3,1.17.67,2.87,1.07,5,.81,4.23,1.62,10.13,2.3,16.66s1.23,12.26,1.68,16.71c.22,2,.4,3.7.55,5.06A8.23,8.23,0,0,1,403.28,395Z" style="fill: rgb(224, 224, 224); transform-origin: 400.16px 371.48px;" id="elmlbgrisrpnb" class="animable"></path><path d="M458.3,384.73a13.2,13.2,0,0,1-2.2.26c-1.41.12-3.45.29-6,.59-5,.54-12,1.54-19.58,3s-14.42,3.05-19.32,4.35c-2.46.63-4.43,1.2-5.8,1.58a12.12,12.12,0,0,1-2.15.53,10.71,10.71,0,0,1,2.06-.83c1.34-.47,3.29-1.12,5.74-1.83,4.88-1.44,11.71-3.13,19.33-4.59A194.85,194.85,0,0,1,450.08,385c2.53-.22,4.58-.31,6-.34A11.27,11.27,0,0,1,458.3,384.73Z" style="fill: rgb(224, 224, 224); transform-origin: 430.775px 389.837px;" id="el83ifnht49pj" class="animable"></path><path d="M379.32,456.14a2.48,2.48,0,0,1-.38-.67c-.25-.54-.56-1.2-.94-2-.81-1.73-1.92-4.27-3.24-7.42-2.65-6.3-6.05-15.12-9.66-24.91s-6.92-18.63-9.44-25c-1.23-3.08-2.25-5.62-3-7.51-.33-.82-.59-1.49-.81-2.05a2.4,2.4,0,0,1-.23-.73,3.41,3.41,0,0,1,.38.67c.25.54.56,1.19.94,2,.81,1.73,1.91,4.27,3.24,7.42,2.65,6.3,6,15.12,9.66,24.91s6.92,18.63,9.43,25c1.24,3.08,2.25,5.62,3,7.5.32.82.59,1.5.81,2A3.64,3.64,0,0,1,379.32,456.14Z" style="fill: rgb(224, 224, 224); transform-origin: 365.47px 420.995px;" id="elyjg4o20d5ag" class="animable"></path><path d="M452.42,432.58a2.63,2.63,0,0,1-.72.3l-2.13.71-7.82,2.54c-6.61,2.14-15.71,5.21-25.76,8.61s-19.18,6.38-25.83,8.39c-3.33,1-6,1.79-7.91,2.3l-2.16.57a2.66,2.66,0,0,1-.77.14,2.63,2.63,0,0,1,.72-.3l2.13-.71,7.82-2.54c6.61-2.14,15.71-5.21,25.76-8.61s19.17-6.38,25.83-8.39c3.33-1,6-1.79,7.91-2.3l2.16-.57A2.61,2.61,0,0,1,452.42,432.58Z" style="fill: rgb(224, 224, 224); transform-origin: 415.87px 444.36px;" id="elnmljtlr25hg" class="animable"></path><path d="M87.57,132.27l.11,2.15s11.43-4.8,18.28-1.29h0a1.5,1.5,0,0,0,1.17.77l2.84.25a1.48,1.48,0,0,0,1.45-.86h0a16.43,16.43,0,0,1,13.74.49l2.65,1.2-5.18-27.27L90,101.45Z" style="fill: rgb(224, 224, 224); transform-origin: 107.69px 118.215px;" id="elirm4c19ln2" class="animable"></path><path d="M85.74,129.25l.11,3.87s11.31-6.76,22.65.22l-2.88-18.59S86.6,125.31,85.74,129.25Z" style="fill: rgb(235, 235, 235); transform-origin: 97.12px 124.045px;" id="elqtafwnze20p" class="animable"></path><path d="M83.6,101.24s13.58-10.43,23.84,4.14l1.06,28s-12.41-12.6-24-3.26Z" style="fill: rgb(245, 245, 245); transform-origin: 96.05px 115.502px;" id="elymwje8eyt9" class="animable"></path><path d="M108.5,133.34s11.7-7.46,20.16.44l-2.44-25.52-18.74-1.91Z" style="fill: rgb(235, 235, 235); transform-origin: 118.07px 120.065px;" id="elxw1c3uccwu" class="animable"></path><path d="M107.42,105.4s4-9,12.62-8.16l5.49.75,2.94,25.65s-13.45-1.55-20,9.72Z" style="fill: rgb(245, 245, 245); transform-origin: 117.945px 115.272px;" id="elsmc2twzbt3c" class="animable"></path><path d="M108.5,133.34a5.52,5.52,0,0,1-.12-1.1c0-.79-.1-1.79-.16-3-.12-2.62-.27-6-.43-9.84l-.43-9.85c0-1.19-.09-2.19-.13-3a4.67,4.67,0,0,1,0-1.1,5,5,0,0,1,.17,1.08c.08.7.17,1.72.27,3,.2,2.52.4,6,.56,9.85s.26,7.33.3,9.85c0,1.26,0,2.28,0,3A5.31,5.31,0,0,1,108.5,133.34Z" style="fill: rgb(224, 224, 224); transform-origin: 107.872px 119.395px;" id="ellevwjxr4x2" class="animable"></path><path d="M122.61,102.22c0,.08-.87-.08-2.27,0a14.3,14.3,0,0,0-9.74,4.11c-1,1-1.47,1.72-1.54,1.67s.07-.21.28-.55a8.8,8.8,0,0,1,1-1.34,13.09,13.09,0,0,1,10-4.22,9.49,9.49,0,0,1,1.67.2C122.41,102.13,122.62,102.19,122.61,102.22Z" style="fill: rgb(224, 224, 224); transform-origin: 115.826px 104.944px;" id="el67lv5iiesi3" class="animable"></path><path d="M123.33,105.13c0,.08-.88-.08-2.27-.06a14.38,14.38,0,0,0-5.27,1.13,14.56,14.56,0,0,0-4.48,3c-1,1-1.47,1.71-1.54,1.67a1.87,1.87,0,0,1,.29-.55,8.79,8.79,0,0,1,1-1.34,13.09,13.09,0,0,1,10-4.22,8.74,8.74,0,0,1,1.68.2A1.6,1.6,0,0,1,123.33,105.13Z" style="fill: rgb(224, 224, 224); transform-origin: 116.55px 107.813px;" id="elqy04ho9wsn" class="animable"></path><path d="M123.5,108.3c0,.08-.88-.08-2.27,0a14.2,14.2,0,0,0-9.74,4.12c-1,1-1.47,1.71-1.54,1.66s.07-.21.28-.55a9.31,9.31,0,0,1,1-1.34,13.13,13.13,0,0,1,10-4.22,9.49,9.49,0,0,1,1.67.2C123.3,108.21,123.51,108.27,123.5,108.3Z" style="fill: rgb(224, 224, 224); transform-origin: 116.716px 111.024px;" id="elhgt04or07or" class="animable"></path><path d="M124.1,111.25c0,.08-.87-.08-2.26-.06a14.51,14.51,0,0,0-5.27,1.12,14.74,14.74,0,0,0-4.48,3c-1,1-1.47,1.71-1.54,1.67s.08-.22.28-.55a8.34,8.34,0,0,1,1-1.34,12.92,12.92,0,0,1,4.53-3.2,13.08,13.08,0,0,1,5.45-1,8.52,8.52,0,0,1,1.67.2C123.9,111.15,124.11,111.22,124.1,111.25Z" style="fill: rgb(224, 224, 224); transform-origin: 117.316px 113.932px;" id="eleyyjjmhptc" class="animable"></path><path d="M124.8,114.35c0,.08-.88-.08-2.27,0a14.24,14.24,0,0,0-9.75,4.12c-1,1-1.47,1.71-1.54,1.66a1.87,1.87,0,0,1,.29-.55,9.31,9.31,0,0,1,1-1.34,13.09,13.09,0,0,1,10-4.22,9.37,9.37,0,0,1,1.67.2A1.89,1.89,0,0,1,124.8,114.35Z" style="fill: rgb(224, 224, 224); transform-origin: 118.02px 117.074px;" id="el51rixkdvk1l" class="animable"></path><path d="M125.7,117.83c0,.08-1-.1-2.47,0a16.3,16.3,0,0,0-2.63.3,18.1,18.1,0,0,0-6,2.32,14.92,14.92,0,0,0-2.13,1.58c-1.13,1-1.65,1.81-1.72,1.76a2.4,2.4,0,0,1,.32-.59,4.25,4.25,0,0,1,.47-.63,6.94,6.94,0,0,1,.71-.77,12.67,12.67,0,0,1,2.12-1.7,17.64,17.64,0,0,1,3-1.5,19,19,0,0,1,3.21-.89,15.26,15.26,0,0,1,2.71-.21,7.86,7.86,0,0,1,1,.07,4.71,4.71,0,0,1,.78.11C125.48,117.73,125.71,117.8,125.7,117.83Z" style="fill: rgb(224, 224, 224); transform-origin: 118.225px 120.646px;" id="elmoovk8qn8b" class="animable"></path><path d="M125.83,120.61c0,.09-1-.1-2.47,0a17,17,0,0,0-2.64.36,22.26,22.26,0,0,0-3.1,1,21.62,21.62,0,0,0-2.89,1.52,17.52,17.52,0,0,0-2.1,1.64c-1.12,1-1.64,1.83-1.71,1.79s.09-.23.32-.6a4.86,4.86,0,0,1,.47-.64,7.78,7.78,0,0,1,.7-.78,14,14,0,0,1,2.09-1.75,17.22,17.22,0,0,1,6.13-2.6,14.25,14.25,0,0,1,2.72-.28,8.4,8.4,0,0,1,1.05,0,4.71,4.71,0,0,1,.78.11C125.61,120.52,125.84,120.58,125.83,120.61Z" style="fill: rgb(224, 224, 224); transform-origin: 118.367px 123.587px;" id="eliok7b1n2f7" class="animable"></path><path d="M104.55,126.15c-.06,0-.64-.75-1.85-1.75a12.79,12.79,0,0,0-11.42-2.63c-1.52.38-2.39.84-2.43.76a2.2,2.2,0,0,1,.59-.37,9.64,9.64,0,0,1,1.76-.7,12.22,12.22,0,0,1,6.21-.21,12.36,12.36,0,0,1,5.51,2.9,10.7,10.7,0,0,1,1.27,1.4C104.46,125.91,104.58,126.13,104.55,126.15Z" style="fill: rgb(224, 224, 224); transform-origin: 96.7023px 123.548px;" id="elwgkqajvo6s" class="animable"></path><path d="M104.33,122.56c-.06,0-.64-.75-1.85-1.75a12.79,12.79,0,0,0-11.42-2.63c-1.52.38-2.4.84-2.43.76a2.2,2.2,0,0,1,.59-.37,9.79,9.79,0,0,1,1.75-.7,12.15,12.15,0,0,1,11.73,2.69A10.7,10.7,0,0,1,104,122C104.24,122.32,104.36,122.54,104.33,122.56Z" style="fill: rgb(224, 224, 224); transform-origin: 96.4823px 119.957px;" id="el9conrmn2xwe" class="animable"></path><path d="M104.11,119c-.06,0-.65-.75-1.85-1.75a12.79,12.79,0,0,0-11.42-2.63c-1.52.38-2.4.84-2.43.76A2.2,2.2,0,0,1,89,115a9.79,9.79,0,0,1,1.75-.7A12.15,12.15,0,0,1,102.48,117a10.7,10.7,0,0,1,1.27,1.4C104,118.73,104.14,119,104.11,119Z" style="fill: rgb(224, 224, 224); transform-origin: 96.262px 116.393px;" id="elk61miix7nu" class="animable"></path><path d="M103.89,115.38c-.06.05-.65-.75-1.85-1.75A12.79,12.79,0,0,0,90.62,111c-1.52.38-2.4.84-2.43.76a2.23,2.23,0,0,1,.58-.37,10.28,10.28,0,0,1,1.76-.7,12.12,12.12,0,0,1,11.72,2.69,10.21,10.21,0,0,1,1.28,1.4C103.8,115.14,103.92,115.36,103.89,115.38Z" style="fill: rgb(224, 224, 224); transform-origin: 96.0423px 112.777px;" id="elenchd7vofoi" class="animable"></path><path d="M103.67,111.79c-.06,0-.65-.75-1.85-1.75a12.79,12.79,0,0,0-11.42-2.63c-1.52.38-2.4.84-2.43.76a2.23,2.23,0,0,1,.58-.37,10.28,10.28,0,0,1,1.76-.7A12.12,12.12,0,0,1,102,109.79a10.21,10.21,0,0,1,1.28,1.4A2,2,0,0,1,103.67,111.79Z" style="fill: rgb(224, 224, 224); transform-origin: 95.82px 109.189px;" id="elatvyfy11jo" class="animable"></path><path d="M103.45,108.2c-.06,0-.65-.75-1.85-1.75a12.79,12.79,0,0,0-11.42-2.63c-1.52.38-2.4.84-2.43.76s.19-.16.58-.37a10,10,0,0,1,1.76-.7,12.12,12.12,0,0,1,11.72,2.69,10.91,10.91,0,0,1,1.28,1.4A2,2,0,0,1,103.45,108.2Z" style="fill: rgb(224, 224, 224); transform-origin: 95.5986px 105.596px;" id="ellgfj8ecvz5p" class="animable"></path><path d="M423.69,117.57l.06,2.52s-13.78-4.59-21.47.12h0a1.77,1.77,0,0,1-1.3,1l-3.29.55a1.74,1.74,0,0,1-1.77-.88h0a19.28,19.28,0,0,0-16,1.79l-3,1.64L380.54,92l37.61-10.22Z" style="fill: rgb(224, 224, 224); transform-origin: 400.335px 103.045px;" id="el5wkai9s1asi" class="animable"></path><path d="M425.56,113.88l.22,4.53s-13.82-6.89-26.45,2.27l1.71-22S424.2,109.35,425.56,113.88Z" style="fill: rgb(235, 235, 235); transform-origin: 412.555px 109.68px;" id="el6lfbryhyvf9" class="animable"></path><path d="M425.56,81s-16.79-11-27.48,7l1.25,32.76s13.38-15.83,27.78-5.94Z" style="fill: rgb(245, 245, 245); transform-origin: 412.595px 99.2162px;" id="eleuj8twntsj8" class="animable"></path><path d="M399.33,120.68S385,113,375.81,123l.58-30,21.73-3.9Z" style="fill: rgb(235, 235, 235); transform-origin: 387.57px 106.05px;" id="elk1zgi4r3188" class="animable"></path><path d="M398.1,88a20.16,20.16,0,0,0-17.48-7.25l-7.5,1.07L371.62,112s19.09-3.87,27.73,8.72Z" style="fill: rgb(245, 245, 245); transform-origin: 385.485px 100.689px;" id="ell6yb4a6fk" class="animable"></path><path d="M399.33,120.68a5.59,5.59,0,0,0,0-1.28c0-.94,0-2.11-.07-3.51-.1-3.06-.23-7.09-.38-11.54s-.28-8.47-.38-11.54c0-1.39-.08-2.56-.11-3.5a6.53,6.53,0,0,0-.1-1.28,5.23,5.23,0,0,0-.11,1.28c0,.83-.05,2-.05,3.5,0,3,.06,7,.22,11.56s.35,8.59.53,11.54c.09,1.48.17,2.67.24,3.49A6.16,6.16,0,0,0,399.33,120.68Z" style="fill: rgb(224, 224, 224); transform-origin: 398.748px 104.355px;" id="elia0fye9u3cs" class="animable"></path><path d="M380.07,85.58c0,.09,1-.17,2.64-.27a16.79,16.79,0,0,1,11.76,4c1.24,1.06,1.87,1.87,1.95,1.81s-.11-.24-.38-.62A11.42,11.42,0,0,0,394.72,89a15.28,15.28,0,0,0-12-4,9.44,9.44,0,0,0-1.93.38C380.3,85.45,380.06,85.54,380.07,85.58Z" style="fill: rgb(224, 224, 224); transform-origin: 388.254px 88.0195px;" id="el6clxt6f4trc" class="animable"></path><path d="M379.49,89c0,.09,1-.17,2.65-.27a16.79,16.79,0,0,1,11.75,4c1.24,1.06,1.87,1.87,1.95,1.81s-.11-.24-.38-.62a10.7,10.7,0,0,0-1.32-1.47,15.27,15.27,0,0,0-12-4,9.57,9.57,0,0,0-1.94.38C379.72,88.91,379.48,89,379.49,89Z" style="fill: rgb(224, 224, 224); transform-origin: 387.674px 91.4543px;" id="elfuz6l328lbs" class="animable"></path><path d="M379.57,92.76c0,.1,1-.17,2.65-.26a16.66,16.66,0,0,1,6.25.84,17,17,0,0,1,5.5,3.1c1.24,1.06,1.87,1.87,1.95,1.81s-.11-.24-.38-.62a10.7,10.7,0,0,0-1.32-1.47,15.27,15.27,0,0,0-12-4,10.32,10.32,0,0,0-1.94.38A2.22,2.22,0,0,0,379.57,92.76Z" style="fill: rgb(224, 224, 224); transform-origin: 387.754px 95.1643px;" id="eleksejlox4sf" class="animable"></path><path d="M379.13,96.26c0,.09,1-.17,2.64-.27a16.79,16.79,0,0,1,11.76,4c1.24,1.06,1.87,1.87,2,1.81s-.11-.24-.38-.62a10.79,10.79,0,0,0-1.32-1.47,15.28,15.28,0,0,0-12-4,9.44,9.44,0,0,0-1.93.38C379.36,96.13,379.12,96.22,379.13,96.26Z" style="fill: rgb(224, 224, 224); transform-origin: 387.348px 98.7145px;" id="els9pnlcttz6" class="animable"></path><path d="M378.6,100c0,.09,1-.17,2.64-.27A16.79,16.79,0,0,1,393,103.63c1.24,1.06,1.87,1.87,1.94,1.81s-.1-.24-.38-.62a10,10,0,0,0-1.31-1.47,15.28,15.28,0,0,0-12-4,9.71,9.71,0,0,0-1.94.38C378.83,99.82,378.59,99.91,378.6,100Z" style="fill: rgb(224, 224, 224); transform-origin: 386.778px 102.354px;" id="elfbw02bq8m4a" class="animable"></path><path d="M377.85,104.09c0,.1,1.1-.19,2.88-.27a20.27,20.27,0,0,1,3.11.12,24.2,24.2,0,0,1,3.72.77,23.73,23.73,0,0,1,3.54,1.41,17.73,17.73,0,0,1,2.63,1.65c1.4,1.08,2.08,2,2.16,1.91s-.12-.25-.43-.66a5.52,5.52,0,0,0-.6-.7,8.34,8.34,0,0,0-.9-.84,15.55,15.55,0,0,0-2.63-1.8,20.59,20.59,0,0,0-3.61-1.48,22.26,22.26,0,0,0-3.83-.75,16.92,16.92,0,0,0-3.19,0,7.91,7.91,0,0,0-1.21.16,6,6,0,0,0-.9.21A2.35,2.35,0,0,0,377.85,104.09Z" style="fill: rgb(224, 224, 224); transform-origin: 386.879px 106.53px;" id="elb8pajsa60nl" class="animable"></path><path d="M377.94,107.36c0,.09,1.11-.2,2.89-.24a18.81,18.81,0,0,1,3.12.19,25.19,25.19,0,0,1,3.71.9,24.35,24.35,0,0,1,3.51,1.53,19.52,19.52,0,0,1,2.6,1.72c1.4,1.11,2.08,2,2.16,1.94s-.12-.26-.43-.67a5.52,5.52,0,0,0-.6-.7,9.25,9.25,0,0,0-.89-.86,16.23,16.23,0,0,0-2.6-1.86,22.41,22.41,0,0,0-3.58-1.61,22.64,22.64,0,0,0-3.82-.88,16.81,16.81,0,0,0-3.2-.08,8.3,8.3,0,0,0-1.22.15,5.44,5.44,0,0,0-.91.2C378.19,107.23,377.93,107.32,377.94,107.36Z" style="fill: rgb(224, 224, 224); transform-origin: 386.944px 110.051px;" id="elu8k4db2aewi" class="animable"></path><path d="M403.3,111.93c.08,0,.69-.93,2-2.21a15,15,0,0,1,13.11-4.09c1.81.31,2.87.77,2.91.68a2.33,2.33,0,0,0-.72-.39,11.5,11.5,0,0,0-2.12-.66A14.21,14.21,0,0,0,405,109.45a13.11,13.11,0,0,0-1.37,1.75C403.39,111.65,403.27,111.91,403.3,111.93Z" style="fill: rgb(224, 224, 224); transform-origin: 412.308px 108.426px;" id="eld26z1r3p606" class="animable"></path><path d="M403.24,107.72c.08,0,.69-.93,2-2.21a15,15,0,0,1,13.12-4.09c1.81.3,2.87.76,2.91.67a2.48,2.48,0,0,0-.72-.38,12.2,12.2,0,0,0-2.12-.67,14.27,14.27,0,0,0-13.46,4.2,12.47,12.47,0,0,0-1.36,1.75C403.33,107.43,403.21,107.7,403.24,107.72Z" style="fill: rgb(224, 224, 224); transform-origin: 412.253px 104.217px;" id="elgtbqmayt05" class="animable"></path><path d="M403.18,103.5c.07,0,.69-.93,2-2.21A15,15,0,0,1,418.3,97.2c1.81.31,2.87.77,2.9.68s-.23-.18-.71-.39a11.5,11.5,0,0,0-2.12-.66,14.19,14.19,0,0,0-13.46,4.2,11.11,11.11,0,0,0-1.36,1.75C403.27,103.22,403.15,103.48,403.18,103.5Z" style="fill: rgb(224, 224, 224); transform-origin: 412.189px 99.9979px;" id="elkoohnx2olre" class="animable"></path><path d="M403.11,99.29c.08,0,.7-.93,2-2.21A15,15,0,0,1,418.24,93c1.81.3,2.87.76,2.9.68s-.23-.18-.72-.39a11.61,11.61,0,0,0-2.11-.66,14.21,14.21,0,0,0-13.46,4.19,11.59,11.59,0,0,0-1.36,1.75A2.47,2.47,0,0,0,403.11,99.29Z" style="fill: rgb(224, 224, 224); transform-origin: 412.126px 95.793px;" id="elhmobn63uqtd" class="animable"></path><path d="M403.05,95.07c.08.06.69-.93,2-2.21a15,15,0,0,1,13.11-4.09c1.81.31,2.88.77,2.91.68a2.33,2.33,0,0,0-.72-.39,13.46,13.46,0,0,0-2.11-.66,14.19,14.19,0,0,0-13.46,4.2,11.94,11.94,0,0,0-1.37,1.75A2.29,2.29,0,0,0,403.05,95.07Z" style="fill: rgb(224, 224, 224); transform-origin: 412.06px 91.5692px;" id="elg31sqhj8d4" class="animable"></path><path d="M403,90.86c.08,0,.69-.93,2-2.21a15,15,0,0,1,13.11-4.09c1.81.3,2.87.76,2.91.68a2.33,2.33,0,0,0-.72-.39,11.5,11.5,0,0,0-2.12-.66,14.21,14.21,0,0,0-13.45,4.19,12.5,12.5,0,0,0-1.37,1.75C403.08,90.58,403,90.84,403,90.86Z" style="fill: rgb(224, 224, 224); transform-origin: 412.01px 87.3589px;" id="elfqmf4h16wy4" class="animable"></path></g><g id="freepik--Floor--inject-159" class="animable" style="transform-origin: 246.385px 477.46px;"><path d="M454.47,477.46c0,.14-93.17.26-208.07.26s-208.1-.12-208.1-.26,93.15-.26,208.1-.26S454.47,477.31,454.47,477.46Z" style="fill: rgb(38, 50, 56); transform-origin: 246.385px 477.46px;" id="eld7oss0oplyk" class="animable"></path></g><g id="freepik--big-books--inject-159" class="animable" style="transform-origin: 256.37px 384.3px;"><rect x="332.3" y="294.59" width="43.84" height="52.12" style="fill: rgb(245, 245, 245); transform-origin: 354.22px 320.65px;" id="elvv66ezf4d8a" class="animable"></rect><rect x="135.68" y="291.2" width="198.13" height="58.8" style="fill: rgb(0, 135, 90); transform-origin: 234.745px 320.6px;" id="elcvssq80rbrq" class="animable"></rect><path d="M377.47,296.14h-49V291.2h49a2.46,2.46,0,0,1,2.47,2.47h0A2.47,2.47,0,0,1,377.47,296.14Z" style="fill: rgb(0, 135, 90); transform-origin: 354.205px 293.67px;" id="elixoia59z6wb" class="animable"></path><path d="M377.47,350h-49v-4.94h49a2.47,2.47,0,0,1,2.47,2.47h0A2.46,2.46,0,0,1,377.47,350Z" style="fill: rgb(0, 135, 90); transform-origin: 354.205px 347.53px;" id="elb3d3odk4g6o" class="animable"></path><g id="elx468v0cfkx"><g style="opacity: 0.4; transform-origin: 306.535px 320.6px;" class="animable"><rect x="294.83" y="291.2" width="23.41" height="58.8" id="el3id727sehtu" class="animable" style="transform-origin: 306.535px 320.6px;"></rect></g></g><g id="el9yca9rnbhv5"><g style="opacity: 0.4; transform-origin: 164.965px 320.6px;" class="animable"><rect x="153.26" y="291.2" width="23.41" height="58.8" id="el5ntm5ovo583" class="animable" style="transform-origin: 164.965px 320.6px;"></rect></g></g><path d="M376.14,303.22c0,.14-9.49.26-21.19.26s-21.19-.12-21.19-.26S343.25,303,355,303,376.14,303.07,376.14,303.22Z" style="fill: rgb(224, 224, 224); transform-origin: 354.95px 303.24px;" id="el3vmull04et6" class="animable"></path><path d="M376.14,311c0,.15-9.49.26-21.19.26s-21.19-.11-21.19-.26,9.49-.26,21.19-.26S376.14,310.89,376.14,311Z" style="fill: rgb(224, 224, 224); transform-origin: 354.95px 311px;" id="el56ib8qx9x2w" class="animable"></path><path d="M376.14,320.65c0,.15-9.49.27-21.19.27s-21.19-.12-21.19-.27,9.49-.26,21.19-.26S376.14,320.51,376.14,320.65Z" style="fill: rgb(224, 224, 224); transform-origin: 354.95px 320.655px;" id="elpn2m6shf8gh" class="animable"></path><path d="M376.14,330.28c0,.14-9.49.26-21.19.26s-21.19-.12-21.19-.26S343.25,330,355,330,376.14,330.13,376.14,330.28Z" style="fill: rgb(224, 224, 224); transform-origin: 354.95px 330.27px;" id="elilgo6vjremj" class="animable"></path><path d="M376.14,339.9c0,.15-9.49.26-21.19.26s-21.19-.11-21.19-.26,9.49-.26,21.19-.26S376.14,339.76,376.14,339.9Z" style="fill: rgb(224, 224, 224); transform-origin: 354.95px 339.9px;" id="elwcntl27oket" class="animable"></path><g id="elid5z0qks2am"><g style="opacity: 0.2; transform-origin: 237.67px 320.655px;" class="animable"><rect x="193.1" y="315.36" width="89.14" height="10.59" id="el31k71bqx406" class="animable" style="transform-origin: 237.67px 320.655px;"></rect></g></g><rect x="331.18" y="351.15" width="44.51" height="31.76" style="fill: rgb(250, 250, 250); transform-origin: 353.435px 367.03px;" id="elbck3yh2uxde" class="animable"></rect><rect x="142.24" y="349.99" width="189.44" height="34.06" style="fill: rgb(69, 90, 100); transform-origin: 236.96px 367.02px;" id="el8ihp3oszdgi" class="animable"></rect><path d="M330.3,352.3h47.85a1.15,1.15,0,0,0,1.15-1.15h0a1.15,1.15,0,0,0-1.15-1.16H330.3Z" style="fill: rgb(69, 90, 100); transform-origin: 354.8px 351.145px;" id="el3jl76whe2cw" class="animable"></path><path d="M330.3,381.75h47.85a1.15,1.15,0,0,1,1.15,1.15v0a1.15,1.15,0,0,1-1.15,1.15H330.3a0,0,0,0,1,0,0v-2.3A0,0,0,0,1,330.3,381.75Z" style="fill: rgb(69, 90, 100); transform-origin: 354.8px 382.9px;" id="el2ihubjwhsc2" class="animable"></path><path d="M375.7,357.18c0,.14-9.86.26-22,.26s-22-.12-22-.26,9.85-.26,22-.26S375.7,357,375.7,357.18Z" style="fill: rgb(224, 224, 224); transform-origin: 353.7px 357.18px;" id="elsd8ipzdiwmg" class="animable"></path><path d="M375.7,363.19c0,.14-9.86.26-22,.26s-22-.12-22-.26,9.85-.26,22-.26S375.7,363,375.7,363.19Z" style="fill: rgb(224, 224, 224); transform-origin: 353.7px 363.19px;" id="elvmwiet0hh9o" class="animable"></path><path d="M375.7,369.19c0,.15-9.86.26-22,.26s-22-.11-22-.26,9.85-.26,22-.26S375.7,369.05,375.7,369.19Z" style="fill: rgb(224, 224, 224); transform-origin: 353.7px 369.19px;" id="elgxgg4giid2h" class="animable"></path><path d="M375.7,375.2c0,.15-9.86.26-22,.26s-22-.11-22-.26,9.85-.26,22-.26S375.7,375.06,375.7,375.2Z" style="fill: rgb(224, 224, 224); transform-origin: 353.7px 375.2px;" id="el9jwlv9ay119" class="animable"></path><rect x="171.77" y="362.19" width="130.64" height="8.89" style="fill: rgb(38, 50, 56); transform-origin: 237.09px 366.635px;" id="el2pviare8xmk" class="animable"></rect><rect x="337.01" y="387.08" width="45.44" height="86.09" style="fill: rgb(235, 235, 235); transform-origin: 359.73px 430.125px;" id="el3c0uwbicvua" class="animable"></rect><rect x="123.74" y="384.06" width="213.27" height="93.34" style="fill: rgb(0, 135, 90); transform-origin: 230.375px 430.73px;" id="eldlkxihf2hb" class="animable"></rect><path d="M386,477.4H331.18v-6H386a3,3,0,0,1,3,3h0A3,3,0,0,1,386,477.4Z" style="fill: rgb(0, 135, 90); transform-origin: 360.09px 474.4px;" id="elabr491fd49" class="animable"></path><path d="M331.18,384.06H386a3,3,0,0,1,3,3v0a3,3,0,0,1-3,3H331.18a0,0,0,0,1,0,0v-6.05A0,0,0,0,1,331.18,384.06Z" style="fill: rgb(0, 135, 90); transform-origin: 360.09px 387.035px;" id="el2ke5wfagac" class="animable"></path><g id="el3zlcjsk23h9"><g style="opacity: 0.4; transform-origin: 286.495px 430.73px;" class="animable"><polygon points="291.14 384.06 246.28 477.4 284.18 477.4 326.71 384.06 291.14 384.06" style="fill: rgb(255, 255, 255); transform-origin: 286.495px 430.73px;" id="el9auk48g87a9" class="animable"></polygon></g></g><g id="el1zzn3bzrkjp"><g style="opacity: 0.4; transform-origin: 215.735px 430.73px;" class="animable"><polygon points="220.38 384.06 175.52 477.4 213.41 477.4 255.95 384.06 220.38 384.06" style="fill: rgb(255, 255, 255); transform-origin: 215.735px 430.73px;" id="elnkfkd0sbfz" class="animable"></polygon></g></g><path d="M382.45,398.62c0,.15-10.17.26-22.72.26s-22.72-.11-22.72-.26,10.17-.26,22.72-.26S382.45,398.48,382.45,398.62Z" style="fill: rgb(224, 224, 224); transform-origin: 359.73px 398.62px;" id="elgmv2r0ecduf" class="animable"></path><path d="M382.45,409.66c0,.15-10.17.26-22.72.26s-22.72-.11-22.72-.26,10.17-.26,22.72-.26S382.45,409.52,382.45,409.66Z" style="fill: rgb(224, 224, 224); transform-origin: 359.73px 409.66px;" id="el08dumac1tbv" class="animable"></path><path d="M382.45,420.71c0,.14-10.17.26-22.72.26s-22.72-.12-22.72-.26,10.17-.26,22.72-.26S382.45,420.56,382.45,420.71Z" style="fill: rgb(224, 224, 224); transform-origin: 359.73px 420.71px;" id="elv3kxggobcs" class="animable"></path><path d="M382.45,431.75c0,.14-10.17.26-22.72.26s-22.72-.12-22.72-.26,10.17-.26,22.72-.26S382.45,431.6,382.45,431.75Z" style="fill: rgb(224, 224, 224); transform-origin: 359.73px 431.75px;" id="el3k9c8gl6bda" class="animable"></path><path d="M382.45,442.79c0,.14-10.17.26-22.72.26s-22.72-.12-22.72-.26,10.17-.26,22.72-.26S382.45,442.65,382.45,442.79Z" style="fill: rgb(224, 224, 224); transform-origin: 359.73px 442.79px;" id="elomoorztxoi" class="animable"></path><path d="M382.45,453.83c0,.14-10.17.26-22.72.26S337,454,337,453.83s10.17-.26,22.72-.26S382.45,453.69,382.45,453.83Z" style="fill: rgb(224, 224, 224); transform-origin: 359.725px 453.83px;" id="elqtqw9lr44ed" class="animable"></path><path d="M382.45,464.87c0,.15-10.17.26-22.72.26S337,465,337,464.87s10.17-.26,22.72-.26S382.45,464.73,382.45,464.87Z" style="fill: rgb(224, 224, 224); transform-origin: 359.725px 464.87px;" id="elnjh8iy8633j" class="animable"></path></g><g id="freepik--Character--inject-159" class="animable" style="transform-origin: 269.78px 279.515px;"><path d="M355.41,133.27l-13.92-22.34a.79.79,0,0,0-1.34,0l-13.66,23.62Z" style="fill: rgb(0, 135, 90); transform-origin: 340.95px 122.554px;" id="el4jaiqffdm4d" class="animable"></path><g id="elq9hyb6lnyn"><g style="opacity: 0.3; transform-origin: 340.95px 122.554px;" class="animable"><path d="M355.41,133.27l-13.92-22.34a.79.79,0,0,0-1.34,0l-13.66,23.62Z" id="elg4l1mzc30b" class="animable" style="transform-origin: 340.95px 122.554px;"></path></g></g><polygon points="341.49 111.99 354.5 133.18 351.19 132.66 329.94 129.31 337.86 112.65 341.49 111.99" style="fill: rgb(235, 235, 235); transform-origin: 342.22px 122.585px;" id="el05od1zkxz52f" class="animable"></polygon><path d="M342.88,153.65l12.53-20.38-32.45-6a2.55,2.55,0,0,0-2.67,1.22l-18.3,31a1.59,1.59,0,0,0,1.09,2.37l30.5,5.41Z" style="fill: rgb(0, 135, 90); transform-origin: 328.591px 147.248px;" id="elc8a1spsg2z7" class="animable"></path><polygon points="334.22 113.27 352.23 132.77 326.08 127.87 334.22 113.27" style="fill: rgb(235, 235, 235); transform-origin: 339.155px 123.02px;" id="elh2nnhxcepo" class="animable"></polygon><path d="M326.08,127.87a1.07,1.07,0,0,1,.12-.29l.4-.79,1.6-3c1.44-2.61,3.44-6.26,5.83-10.63l.15-.27.21.23,11.74,12.66,6.28,6.82-.39.31c-4.1-5.81-7.66-10.84-10.23-14.47l-2.93-4.24-.76-1.14a2.52,2.52,0,0,1-.25-.41s.12.11.32.36l.83,1.1,3.05,4.14,10.38,14.37-.39.32-6.29-6.8-11.69-12.72.36,0c-2.46,4.33-4.51,8-6,10.54l-1.71,2.94-.46.76C326.15,127.79,326.09,127.88,326.08,127.87Z" style="fill: rgb(38, 50, 56); transform-origin: 339.255px 122.795px;" id="eleu5cmuyvmn" class="animable"></path><g id="elesz9d6nvve"><g style="opacity: 0.3; transform-origin: 329.945px 147.045px;" class="animable"><path d="M326.44,136.35c-.28.42-10.92,18.15-10.92,18.15l17.34,3.24,11.51-18.39Z" style="fill: rgb(255, 255, 255); transform-origin: 329.945px 147.045px;" id="el4g5nxiotkqp" class="animable"></path></g></g><path d="M196,438.8l9.53-12.45.5-.64,16.24,12.08-15,16.52.55,16.72c8.37,2.17,9.63,6.35,9.63,6.35l-17.41,0L184.15,446.9Z" style="fill: rgb(69, 90, 100); transform-origin: 203.21px 451.545px;" id="elnncn7uzvc4" class="animable"></path><path d="M184.15,446.9,200,477.36l17.41,0a7.19,7.19,0,0,0-2-2.62L201.25,474l-14.59-28.79Z" style="fill: rgb(235, 235, 235); transform-origin: 200.78px 461.285px;" id="ellbhs3c47m0m" class="animable"></path><path d="M207.63,463.37c-.13.18-1.13-.39-2.48-.36s-2.33.6-2.47.42.82-1.17,2.46-1.18S207.79,463.23,207.63,463.37Z" style="fill: rgb(38, 50, 56); transform-origin: 205.157px 462.858px;" id="elv5zp81xwcn" class="animable"></path><path d="M207.35,459.22c-.17.12-.95-.9-2.34-1.18s-2.49.37-2.61.19.15-.37.63-.64a3.24,3.24,0,0,1,2.14-.3,3.3,3.3,0,0,1,1.85,1.1C207.36,458.83,207.44,459.17,207.35,459.22Z" style="fill: rgb(38, 50, 56); transform-origin: 204.878px 458.227px;" id="el4bw8jk03j99" class="animable"></path><path d="M207.47,453.89c-.19.1-.78-.91-2-1.33s-2.3,0-2.39-.22.18-.33.66-.51a3,3,0,0,1,2,0,3.05,3.05,0,0,1,1.55,1.24C207.54,453.53,207.56,453.86,207.47,453.89Z" style="fill: rgb(38, 50, 56); transform-origin: 205.291px 452.778px;" id="elc9lsf7zdzlc" class="animable"></path><path d="M212.13,449.77c-.21.07-.69-.92-1.77-1.62s-2.17-.81-2.18-1,1.29-.5,2.6.38S212.34,449.74,212.13,449.77Z" style="fill: rgb(38, 50, 56); transform-origin: 210.188px 448.356px;" id="el9dpynyfuq56" class="animable"></path><path d="M214.41,446.19c-.09.06-.67-.64-1.52-1.82l-1.47-2.09a5.29,5.29,0,0,1-.81-1.41,1.42,1.42,0,0,1,.11-1.06,1.08,1.08,0,0,1,1.05-.55,3.14,3.14,0,0,1,1.62.85,5.45,5.45,0,0,1,1.06,1.21,5.87,5.87,0,0,1,.91,2.51,3.26,3.26,0,0,1-.39,2.38,20.84,20.84,0,0,0-.14-2.29,5.64,5.64,0,0,0-1.92-3.24,2.8,2.8,0,0,0-1.2-.65.3.3,0,0,0-.33.15.75.75,0,0,0,0,.5,5.78,5.78,0,0,0,.68,1.21c.45.74.89,1.47,1.33,2.18A8,8,0,0,1,214.41,446.19Z" style="fill: rgb(38, 50, 56); transform-origin: 212.995px 442.732px;" id="el8efnpp6ag0k" class="animable"></path><path d="M215,446.71c-.08,0,0-.92.93-2a4.36,4.36,0,0,1,5.16-.92.8.8,0,0,1,.27.62,1,1,0,0,1-.21.55,3,3,0,0,1-.63.55,8,8,0,0,1-1.23.7,7.31,7.31,0,0,1-2.29.64,3.61,3.61,0,0,1-2.15-.2,18.78,18.78,0,0,1,2.06-.34,8.32,8.32,0,0,0,2.08-.74,8.1,8.1,0,0,0,1.1-.67,2.68,2.68,0,0,0,.45-.39c.08-.16.06-.11,0-.16a1.39,1.39,0,0,0-.5-.19,4.87,4.87,0,0,0-.65-.1,4.59,4.59,0,0,0-1.24.09,4.33,4.33,0,0,0-1.88.95C215.4,446,215.14,446.76,215,446.71Z" style="fill: rgb(38, 50, 56); transform-origin: 218.105px 445.125px;" id="elhlu3we93zh8" class="animable"></path><path d="M198,446.38a2.07,2.07,0,1,1-2.07-2.07A2.07,2.07,0,0,1,198,446.38Z" style="fill: rgb(235, 235, 235); transform-origin: 195.93px 446.38px;" id="elkp1zu2x5zi" class="animable"></path><g id="elv31wshvfhfi"><g style="opacity: 0.3; transform-origin: 212.01px 434.885px;" class="animable"><polygon points="220.71 439.45 217.37 443.12 203.31 429.2 205.27 426.65 220.71 439.45" id="eliga1csmrel" class="animable" style="transform-origin: 212.01px 434.885px;"></polygon></g></g><path d="M264.11,445.13l-1.78,21.17s20.92,7.14,21,11.08l-41.17-.19,1.42-33.1Z" style="fill: rgb(69, 90, 100); transform-origin: 262.745px 460.735px;" id="el4sbte6r7x07" class="animable"></path><path d="M249.68,463.9a1.68,1.68,0,0,0-1.25,1.87,1.62,1.62,0,0,0,1.83,1.26,1.78,1.78,0,0,0,1.32-2,1.68,1.68,0,0,0-2.06-1.1" style="fill: rgb(235, 235, 235); transform-origin: 250.007px 465.457px;" id="el3p89ahxaaqb" class="animable"></path><path d="M242.13,477.19l.14-3.3,39,.93s2.07,1.66,2.05,2.56Z" style="fill: rgb(235, 235, 235); transform-origin: 262.725px 475.635px;" id="el2kl6rsrcthc" class="animable"></path><path d="M263,466.12c0,.2-1,.25-2,.85s-1.59,1.41-1.77,1.33.17-1.24,1.42-1.94S263.06,465.94,263,466.12Z" style="fill: rgb(38, 50, 56); transform-origin: 261.094px 467.108px;" id="elhr84gsyje5c" class="animable"></path><path d="M267.24,468.12c0,.19-.86.49-1.58,1.31s-1,1.71-1.16,1.69-.28-1.16.64-2.16S267.24,467.92,267.24,468.12Z" style="fill: rgb(38, 50, 56); transform-origin: 265.815px 469.572px;" id="elxop3c3zzpx" class="animable"></path><path d="M269.44,473.4c-.19,0-.42-1,.15-2.06s1.53-1.47,1.61-1.3-.53.74-1,1.63S269.64,473.39,269.44,473.4Z" style="fill: rgb(38, 50, 56); transform-origin: 270.218px 471.701px;" id="elgwsxhkg4y5" class="animable"></path><path d="M262.87,461.25c-.09.18-1-.14-2.14-.12s-2,.34-2.14.16.79-.85,2.13-.86S263,461.1,262.87,461.25Z" style="fill: rgb(38, 50, 56); transform-origin: 260.729px 460.887px;" id="elzunmvdhq5n" class="animable"></path><path d="M263.15,457a4,4,0,0,1-2.06-.11,9.52,9.52,0,0,1-2.12-.77,8.84,8.84,0,0,1-1.16-.69,2.63,2.63,0,0,1-.6-.51.88.88,0,0,1,0-1.07,1.1,1.1,0,0,1,.91-.42,2.71,2.71,0,0,1,.76.14,8.07,8.07,0,0,1,1.26.5,7.55,7.55,0,0,1,1.85,1.34c.91.93,1.2,1.7,1.13,1.74s-.53-.59-1.47-1.37a8.5,8.5,0,0,0-1.79-1.13,7.93,7.93,0,0,0-1.16-.42c-.43-.13-.81-.15-.93,0s-.05.11,0,.24a2.18,2.18,0,0,0,.44.37,10.47,10.47,0,0,0,1.06.68,11.23,11.23,0,0,0,2,.86A12.52,12.52,0,0,1,263.15,457Z" style="fill: rgb(38, 50, 56); transform-origin: 260.089px 455.29px;" id="ela8sv1rsuveh" class="animable"></path><path d="M262.88,457.25c-.08,0-.44-.71-.45-2a6.77,6.77,0,0,1,.39-2.24,7.58,7.58,0,0,1,.58-1.23,1.77,1.77,0,0,1,1.37-1,1,1,0,0,1,.83.62,2.74,2.74,0,0,1,.18.77,4.58,4.58,0,0,1-.07,1.39,4.64,4.64,0,0,1-1,2.08c-.86,1-1.71,1.23-1.72,1.16s.66-.46,1.32-1.45a4.81,4.81,0,0,0,.75-1.91,4.29,4.29,0,0,0,0-1.19c-.05-.44-.19-.8-.36-.77s-.57.3-.75.65a6.31,6.31,0,0,0-.57,1.09,7.65,7.65,0,0,0-.5,2C262.81,456.46,263,457.23,262.88,457.25Z" style="fill: rgb(38, 50, 56); transform-origin: 264.117px 454.015px;" id="elzbhjfg53zj" class="animable"></path><path d="M347.6,160.31a5.1,5.1,0,0,0-.14-3.63c-1.7-4-5.7-13-7.15-12.75-1.28.23-2.22,2.67-.76,5.36l-4.71-4a1.36,1.36,0,0,0-2.23,1.24,7.26,7.26,0,0,0,.58,1.75c1.46,3.1,5.52,6,5.52,6l-8.2.05s-1.53,2.14,1.28,3.58a5.74,5.74,0,0,0,2,.56l4.24.43s-7.66,8.47-7.92,9.26a17.31,17.31,0,0,0-.68,3.9l-14.7,16.35,3.93,24.86,26.56-46Z" style="fill: rgb(183, 136, 118); transform-origin: 331.299px 178.597px;" id="elcbwx9e5im5" class="animable"></path><path d="M345.47,156.57c-.07.05-.34-.34-.92-.78a6.17,6.17,0,0,0-2.59-1.08,14.58,14.58,0,0,0-2.89-.16,3.39,3.39,0,0,1-1.24-.07c0-.07.45-.19,1.21-.3a9.78,9.78,0,0,1,3,0,5.33,5.33,0,0,1,2.74,1.31C345.36,156.07,345.52,156.55,345.47,156.57Z" style="fill: rgb(170, 101, 80); transform-origin: 341.654px 155.319px;" id="elezao252hjsf" class="animable"></path><path d="M345.6,154a15.66,15.66,0,0,1-3.33-2.29,15.41,15.41,0,0,1-3-2.71,16.35,16.35,0,0,1,3.34,2.3A16.06,16.06,0,0,1,345.6,154Z" style="fill: rgb(170, 101, 80); transform-origin: 342.435px 151.5px;" id="el4xgzhrlbuqg" class="animable"></path><path d="M273.1,276.6c.22,0,1,49,1.32,71.07a38.36,38.36,0,0,1-5.18,19.81l-47.85,84.06L193.9,428.67l44.45-75.12L222,274.37l32.4-27.86Z" style="fill: rgb(38, 50, 56); transform-origin: 234.162px 349.025px;" id="elfi4pg6dsw9j" class="animable"></path><path d="M296.35,266.59c-.14,2.82-26,184.54-26,184.54l-32-2.28,11.74-183.39Z" style="fill: rgb(38, 50, 56); transform-origin: 267.35px 358.295px;" id="elmfons3uy0r" class="animable"></path><path d="M269.55,279.34s0,.17.06.48.08.8.14,1.4c.1,1.26.26,3.07.45,5.4.37,4.71.91,11.48,1.56,19.84s1.36,18.37,2.18,29.45q.27,4.17.56,8.52c.08,1.45.21,2.93.16,4.42a32.79,32.79,0,0,1-.44,4.51,33.86,33.86,0,0,1-2.78,8.84c-.66,1.43-1.45,2.79-2.22,4.18l-2.33,4.17-32.08,57.33c-4.12,7.3-7.46,13.22-9.77,17.34-1.16,2-2.06,3.61-2.69,4.7l-.7,1.22-.26.4s.06-.15.21-.43l.66-1.24,2.6-4.75,9.63-17.42c8.18-14.71,19.47-35,31.95-57.4.78-1.4,1.55-2.8,2.33-4.18s1.56-2.74,2.2-4.14a33.77,33.77,0,0,0,2.75-8.71,31.63,31.63,0,0,0,.43-4.43c.06-1.47-.07-2.93-.14-4.38q-.28-4.35-.55-8.51c-.78-11.09-1.48-21.07-2.06-29.46s-1.07-15.14-1.4-19.86c-.15-2.32-.27-4.14-.36-5.4,0-.6-.06-1.07-.08-1.41S269.55,279.34,269.55,279.34Z" style="fill: rgb(69, 90, 100); transform-origin: 248.031px 365.44px;" id="elex0sauxz12v" class="animable"></path><path d="M247.68,365.28a1.85,1.85,0,0,1-.65-.11,8.59,8.59,0,0,1-1.68-.62,12.64,12.64,0,0,1-6.85-9.16,8.92,8.92,0,0,1-.12-1.79c0-.42,0-.65.08-.65s.09.93.4,2.37a13.7,13.7,0,0,0,6.66,8.9C246.81,364.93,247.7,365.19,247.68,365.28Z" style="fill: rgb(69, 90, 100); transform-origin: 243.028px 359.115px;" id="elzhuz3c1h5yg" class="animable"></path><path d="M251.3,359.81a6.14,6.14,0,0,1-2.33,0,14.27,14.27,0,0,1-5.31-1.84,14.47,14.47,0,0,1-4.2-3.73,6.27,6.27,0,0,1-1.15-2c.08,0,.53.72,1.44,1.8a16.19,16.19,0,0,0,9.28,5.44C250.41,359.7,251.3,359.72,251.3,359.81Z" style="fill: rgb(69, 90, 100); transform-origin: 244.805px 356.081px;" id="elkeignwnogb" class="animable"></path><path d="M228.74,282s.22.28.77.53a2.89,2.89,0,0,0,2.44-.17,22.05,22.05,0,0,0,3.15-2.25c1.15-.92,2.37-2,3.61-3.13a62.7,62.7,0,0,0,5.87-6.41c1.38-1.74,2.17-2.88,2.23-2.83a3.39,3.39,0,0,1-.46.86c-.32.53-.82,1.29-1.48,2.2a48.76,48.76,0,0,1-5.8,6.56c-1.25,1.17-2.5,2.22-3.67,3.13a19.67,19.67,0,0,1-3.3,2.2,3,3,0,0,1-2.68,0C228.84,282.35,228.72,282,228.74,282Z" style="fill: rgb(69, 90, 100); transform-origin: 237.774px 275.372px;" id="ellnmz0g8yv1" class="animable"></path><path d="M246.56,280.49a13.65,13.65,0,0,1-1.27,2.82,19.49,19.49,0,0,1-4.6,5.89,11.26,11.26,0,0,1-7,2.66,7.35,7.35,0,0,1-2.26-.32,2.13,2.13,0,0,1-.77-.34,14.62,14.62,0,0,0,3,.29,11.57,11.57,0,0,0,6.64-2.69,21.78,21.78,0,0,0,4.61-5.67A27.53,27.53,0,0,1,246.56,280.49Z" style="fill: rgb(69, 90, 100); transform-origin: 238.61px 286.175px;" id="elmpl4tn269kk" class="animable"></path><path d="M296.35,266.59s-24.7,11.53-33.56,7.56-14.66-13.13-21.07-11-16.19,4-19.55,13.13a8,8,0,0,1-2.13-5.75c0-3.56,3-8.39,3-8.39l-4-41.26.17-69.38s6.88-10.25,25.51-9.64l25.73,3.7s13.13,4,16.79,10.69,2.14,54.48,2.14,54.48,8.14,46.36,8.14,50a13.93,13.93,0,0,1-1.15,5.87" style="fill: rgb(0, 135, 90); transform-origin: 258.282px 209.057px;" id="elqzcicldelfn" class="animable"></path><path d="M311,187.73l-10.61,9.46-13.14-40.93-11,24.65,4.44,40a15.34,15.34,0,0,0,11.62,13.21h0a15.36,15.36,0,0,0,13.79-3.43l11.2-9.58a6,6,0,0,0,2.05-5.55l-4.17-26.32A2.52,2.52,0,0,0,311,187.73Z" style="fill: rgb(0, 135, 90); transform-origin: 297.839px 195.405px;" id="ela08mn4q58l" class="animable"></path><path d="M230.64,176.65c0,.91-4.93,45.59-4.93,45.59l20.89,45.19c-2,4.26-5.92,8.13-10.23,11.91,0,0-5.34-4.88-5.65-15.27,0,0-23.74-27.89-26.18-35.22s4.28-57.39,4.28-57.39Z" style="fill: rgb(183, 136, 118); transform-origin: 225.303px 225.4px;" id="elss6luyakgyi" class="animable"></path><path d="M283.71,184.43a3.61,3.61,0,0,1-.43.91c-.31.57-.77,1.38-1.35,2.38a38.68,38.68,0,0,1-2.14,3.46,6.32,6.32,0,0,1-1.79,1.69,5.46,5.46,0,0,1-2.56.75,7.78,7.78,0,0,1-4.79-1.52,12.73,12.73,0,0,1-2.83-3,23.49,23.49,0,0,1-1.45-2.33,3.81,3.81,0,0,1-.44-.9c.08-.05.81,1.18,2.18,3a13.53,13.53,0,0,0,2.81,2.8,7.5,7.5,0,0,0,4.5,1.39,4.86,4.86,0,0,0,2.31-.67,6.06,6.06,0,0,0,1.68-1.54c.9-1.19,1.57-2.41,2.21-3.37s1.13-1.75,1.49-2.28A3.84,3.84,0,0,1,283.71,184.43Z" style="fill: rgb(38, 50, 56); transform-origin: 274.82px 189.026px;" id="elag3hwio1bt7" class="animable"></path><path d="M299.1,221.49a3.82,3.82,0,0,1-.4-.9,21.71,21.71,0,0,1-.79-2.59,30.73,30.73,0,0,1,.89-17.64,23.4,23.4,0,0,1,1.05-2.49,3.79,3.79,0,0,1,.49-.86c.09,0-.51,1.31-1.19,3.47a35.06,35.06,0,0,0-1.57,8.66,35.48,35.48,0,0,0,.68,8.78C298.73,220.13,299.19,221.46,299.1,221.49Z" style="fill: rgb(38, 50, 56); transform-origin: 298.685px 209.25px;" id="el455eqld9rp2" class="animable"></path><path d="M304.69,213.3a9.54,9.54,0,0,1-1.29-2.15,30.22,30.22,0,0,1-3.11-11.64,9.62,9.62,0,0,1,0-2.5,15.45,15.45,0,0,1,.32,2.47,41.25,41.25,0,0,0,1.1,5.88,42.58,42.58,0,0,0,2,5.64A16.39,16.39,0,0,1,304.69,213.3Z" style="fill: rgb(38, 50, 56); transform-origin: 302.449px 205.155px;" id="eliahupiiggf" class="animable"></path><path d="M283,192.81s.1.15.23.44a12.23,12.23,0,0,1,.5,1.34,14.61,14.61,0,0,1,.66,5.2,11.62,11.62,0,0,1-2.93,7.15,10,10,0,0,1-3.81,2.67,8.85,8.85,0,0,1-5,.42,8.18,8.18,0,0,1-4.39-2.38,9.25,9.25,0,0,1-2.11-4.14,25.61,25.61,0,0,1-.6-4.12c-.1-1.29-.2-2.49-.29-3.6-.15-2.13-.27-3.89-.37-5.2,0-.57-.05-1-.07-1.42a1.82,1.82,0,0,1,0-.5,2.25,2.25,0,0,1,.09.49c0,.38.11.85.17,1.41.14,1.31.32,3.06.54,5.19.11,1.11.22,2.31.35,3.59a26.33,26.33,0,0,0,.63,4,8.79,8.79,0,0,0,2,3.91,7.74,7.74,0,0,0,4.12,2.22,8.42,8.42,0,0,0,4.68-.39,9.61,9.61,0,0,0,3.63-2.51,11.41,11.41,0,0,0,2.92-6.86,15.28,15.28,0,0,0-.48-5.12C283.24,193.46,283,192.83,283,192.81Z" style="fill: rgb(38, 50, 56); transform-origin: 274.607px 199.441px;" id="elf5dgs2y4odm" class="animable"></path><g id="eljw0uidu2z9s"><g style="opacity: 0.2; transform-origin: 231.899px 209.275px;" class="animable"><path d="M232.41,236.72a38,38,0,0,1,2.38-9.5c1.44-3.79,3.32-7.55,3.38-11.61a26.55,26.55,0,0,0-1.34-7.51l-7.29-26.27q-.42,10.18-.83,20.38a8.65,8.65,0,0,0,.76,4.84c1.08,1.76,3.29,2.53,4.52,4.18a4.91,4.91,0,0,1,.67,4.51c-.54,1.49-1.88,1.87-3.41,2.24a19.42,19.42,0,0,1-2.12.43c-1,.16-2.56-.07-3,.88-1.21,2.36.08,3.79.59,4.92,2.32,5.15,5.73,12.51,5.73,12.51" id="eldg2qqdj44tt" class="animable" style="transform-origin: 231.899px 209.275px;"></path></g></g><path d="M223.49,148S202,158.86,199,216.94a6.18,6.18,0,0,0,7.31,6.4c8.83-1.68,22.21-4.28,22.12-4.64-.12-.53,5-51.11,5-51.11Z" style="fill: rgb(0, 135, 90); transform-origin: 216.211px 185.723px;" id="elxlthh1za89g" class="animable"></path><path d="M233,166.69s0,.27,0,.78,0,1.26,0,2.22c0,1.93-.16,4.73-.39,8.18s-.58,7.55-1.06,12.09c-.25,2.27-.52,4.65-.79,7.12-.15,1.24-.3,2.49-.46,3.77s-.54,2.57-.74,3.83a5.06,5.06,0,0,0,0,1.86,3.49,3.49,0,0,0,.86,1.56c.82.9,2,1.37,3,2.28a6,6,0,0,1,1.64,3.38,6.31,6.31,0,0,1,0,1.84,2.46,2.46,0,0,1-2.42,2.38l-1.62.31-3.08.61L222.48,220l-8,1.67-1.26.25-.5.1h-.08s0-.23,0-.12h0l.11,0,.19,0a3.7,3.7,0,0,1,.77-.12,4.05,4.05,0,0,1-.74.22l-.2,0-.11,0h0c0,.11,0-.15,0-.12h0l.06,0,.5-.12,1.25-.3,8-1.83,5.52-1.2,3.08-.64,1.62-.33A2.48,2.48,0,0,0,234,217a3.72,3.72,0,0,0,.55-3.12,5.53,5.53,0,0,0-1.5-3.09c-.85-.82-2.08-1.3-3-2.3a4,4,0,0,1-1-1.8,5.44,5.44,0,0,1,0-2.05c.21-1.34.63-2.55.74-3.82s.31-2.53.46-3.76c.29-2.46.56-4.84.83-7.11.5-4.54.89-8.63,1.16-12.07s.45-6.23.56-8.16l.12-2.22A3.68,3.68,0,0,1,233,166.69Z" style="fill: rgb(38, 50, 56); transform-origin: 223.884px 194.359px;" id="elwc1qzloaho" class="animable"></path><path d="M224.17,202.3a2.2,2.2,0,0,1-.13.69,4.17,4.17,0,0,1-.26.78,8.38,8.38,0,0,1-.46,1,10.93,10.93,0,0,1-1.64,2.34,13.44,13.44,0,0,1-2.69,2.22,13.22,13.22,0,0,1-3.2,1.4,11,11,0,0,1-2.82.4,7.57,7.57,0,0,1-1.1,0,5,5,0,0,1-.81-.12,2.31,2.31,0,0,1-.68-.2c0-.1,1,.1,2.57,0a12.61,12.61,0,0,0,2.7-.49,14.71,14.71,0,0,0,3.07-1.38,14.47,14.47,0,0,0,2.61-2.11,12.26,12.26,0,0,0,1.67-2.19C223.81,203.23,224.07,202.27,224.17,202.3Z" style="fill: rgb(38, 50, 56); transform-origin: 217.275px 206.725px;" id="elskr23st227q" class="animable"></path><g id="eltd8teis2whh"><g style="opacity: 0.2; transform-origin: 268.482px 254.663px;" class="animable"><path d="M247.37,254.12c10,5.93,22.26,7.35,33.77,5.6a16.54,16.54,0,0,0,5.49-1.59,6.6,6.6,0,0,0,3.44-4.36,4.17,4.17,0,0,0-2.46-4.67c-1.83-.62-3.77.38-5.5,1.25a50,50,0,0,1-35.3,3.56" id="el7r67b4jurev" class="animable" style="transform-origin: 268.482px 254.663px;"></path></g></g><path d="M294,255a2.34,2.34,0,0,1-.43.33c-.3.2-.72.53-1.32.87a28.21,28.21,0,0,1-5.24,2.46,41.34,41.34,0,0,1-18.89,1.67,84.63,84.63,0,0,1-18.39-4.94c-2.28-.86-4.11-1.59-5.37-2.11l-1.45-.61a2.66,2.66,0,0,1-.49-.25,3.06,3.06,0,0,1,.53.15l1.48.52,5.43,1.95a90.81,90.81,0,0,0,18.33,4.77,42.39,42.39,0,0,0,18.7-1.5,32,32,0,0,0,5.26-2.29C293.34,255.39,294,255,294,255Z" style="fill: rgb(38, 50, 56); transform-origin: 268.21px 256.587px;" id="elamb9ded5vl7" class="animable"></path><g id="eltel8wnl94b"><g style="opacity: 0.2; transform-origin: 292.285px 210px;" class="animable"><path d="M293.43,234.29c3-3,3-8.41,2.4-12.62s-2.23-8.25-2.8-12.48c-.54-4-.15-8.09-.33-12.14s-1.05-8.27-3.68-11.34a132.34,132.34,0,0,0,4.41,48.58" id="el9aj7yt45xj" class="animable" style="transform-origin: 292.285px 210px;"></path></g></g><g id="el5envopzm3bh"><g style="opacity: 0.2; transform-origin: 272.169px 203.119px;" class="animable"><path d="M265,190.35c-.46,2.66,0,5.45-.23,8.17a35.43,35.43,0,0,0,0,8.17,12,12,0,0,0,3.57,7.2,7.37,7.37,0,0,0,7.6,1.54,6.86,6.86,0,0,0,3.84-6.74,11.18,11.18,0,0,1-5.82,1.1,8.19,8.19,0,0,1-5.27-2.54,13.15,13.15,0,0,1-2.93-8.11c-.19-2.92-.55-5.91-.79-8.79" id="el6ypcj0tt11g" class="animable" style="transform-origin: 272.169px 203.119px;"></path></g></g><path d="M231.62,182.85a4.15,4.15,0,0,1-1.08.24c-.7.11-1.71.26-3,.41a37.36,37.36,0,0,1-9.92,0,18.56,18.56,0,0,1-9.09-3.91,12.43,12.43,0,0,1-2.08-2.2,4,4,0,0,1-.57-.95,22.57,22.57,0,0,0,2.88,2.87,19.49,19.49,0,0,0,8.94,3.68,42.74,42.74,0,0,0,9.8.12l3-.24A4.83,4.83,0,0,1,231.62,182.85Z" style="fill: rgb(250, 250, 250); transform-origin: 218.75px 180.135px;" id="elmq6fwbo82ae" class="animable"></path><path d="M230.21,190.53a4.89,4.89,0,0,1-1.06.38,11.66,11.66,0,0,1-1.28.33c-.5.1-1.07.24-1.72.32a27.8,27.8,0,0,1-4.55.3,31.53,31.53,0,0,1-5.55-.64,31,31,0,0,1-5.32-1.71,27.32,27.32,0,0,1-4-2.15c-.55-.33-1-.7-1.43-1a10.51,10.51,0,0,1-1-.83,4.6,4.6,0,0,1-.81-.78c.07-.08,1.27,1,3.47,2.3a30.39,30.39,0,0,0,4,2,30.37,30.37,0,0,0,10.7,2.31,30.69,30.69,0,0,0,4.48-.19C228.65,190.89,230.18,190.43,230.21,190.53Z" style="fill: rgb(250, 250, 250); transform-origin: 216.85px 188.305px;" id="elyh9yosbt4a" class="animable"></path><path d="M264.19,189.28c0,.14-7.26.07-16.2-.16s-16.2-.53-16.19-.68,7.25-.07,16.2.16S264.19,189.13,264.19,189.28Z" style="fill: rgb(250, 250, 250); transform-origin: 247.995px 188.858px;" id="el1dl1jvi2adp" class="animable"></path><path d="M265.23,197.35a6.71,6.71,0,0,1-1.33.42c-.86.24-2.12.53-3.7.84a69.66,69.66,0,0,1-12.45,1.25,70.54,70.54,0,0,1-12.48-1c-1.58-.28-2.85-.54-3.71-.77a6.85,6.85,0,0,1-1.34-.39,8.39,8.39,0,0,1,1.38.19c.87.17,2.15.38,3.73.6a80.64,80.64,0,0,0,24.81-.26c1.57-.26,2.84-.5,3.72-.68A8.14,8.14,0,0,1,265.23,197.35Z" style="fill: rgb(250, 250, 250); transform-origin: 247.725px 198.606px;" id="el4fwaax8vc0l" class="animable"></path><path d="M284,195.87a2.23,2.23,0,0,1-.33.74,6.27,6.27,0,0,1-1.47,1.67,9.71,9.71,0,0,1-6.95,1.89,17.56,17.56,0,0,1-6.82-2.43,12.8,12.8,0,0,1-2.49-1.67,23.32,23.32,0,0,1,2.66,1.35,19.58,19.58,0,0,0,6.71,2.24A9.79,9.79,0,0,0,282,198,11.21,11.21,0,0,0,284,195.87Z" style="fill: rgb(250, 250, 250); transform-origin: 274.97px 198.052px;" id="elocye7ta5gf" class="animable"></path><path d="M288.52,189.73a7.32,7.32,0,0,1-2.58.81,7.07,7.07,0,0,1-2.68.3,7.22,7.22,0,0,1,2.58-.81A7.07,7.07,0,0,1,288.52,189.73Z" style="fill: rgb(250, 250, 250); transform-origin: 285.89px 190.285px;" id="el8rf15xoi9mf" class="animable"></path><path d="M298.19,190.05a16.56,16.56,0,0,1-4.65,2.3,16.74,16.74,0,0,1-5,1.24c0-.15,2.2-.75,4.86-1.73S298.12,189.92,298.19,190.05Z" style="fill: rgb(250, 250, 250); transform-origin: 293.365px 191.814px;" id="elzvr4oe5u8qe" class="animable"></path><path d="M295,180.47a16.73,16.73,0,0,1-3.07.9,16,16,0,0,1-3.09.83,10.84,10.84,0,0,1,6.16-1.73Z" style="fill: rgb(250, 250, 250); transform-origin: 291.92px 181.333px;" id="elec0glkglw9w" class="animable"></path><path d="M289.55,176.81a2.63,2.63,0,0,1,0,.59l-.15,1.68c-.07.73-.15,1.62-.22,2.66s-.18,2.22-.23,3.52c-.17,2.62-.25,5.73-.27,9.19s.11,7.27.35,11.25.66,7.77,1.09,11.21.95,6.51,1.45,9.08c.23,1.29.48,2.44.69,3.46s.39,1.9.56,2.61.26,1.22.36,1.65a2.14,2.14,0,0,1,.09.58,2.4,2.4,0,0,1-.19-.56l-.46-1.62c-.2-.71-.42-1.58-.65-2.6s-.51-2.17-.76-3.45c-.55-2.57-1.06-5.65-1.56-9.09s-.87-7.24-1.14-11.23-.33-7.82-.31-11.29.16-6.59.38-9.21c.08-1.31.21-2.49.31-3.53s.21-1.93.31-2.65.18-1.24.24-1.67A2.23,2.23,0,0,1,289.55,176.81Z" style="fill: rgb(38, 50, 56); transform-origin: 290.733px 205.55px;" id="els97cxv9cido" class="animable"></path><g id="elij54m8fckxp"><g style="opacity: 0.2; transform-origin: 274.063px 190.844px;" class="animable"><path d="M267.73,188.55a10.8,10.8,0,0,0,10.22.75,4.67,4.67,0,0,1,1.2-.44,1.17,1.17,0,0,1,1.13.43,1.48,1.48,0,0,1-.32,1.62,6.32,6.32,0,0,1-6.5,2,9.72,9.72,0,0,1-5.55-4.33" id="el5pnvaumdv4m" class="animable" style="transform-origin: 274.063px 190.844px;"></path></g></g><path d="M249,103.13a35,35,0,0,1-1.14-6.95,11.91,11.91,0,0,1,1.6-6.77,7.26,7.26,0,0,1,5.78-3.53c1.45,0,2.91.47,4.34.21,1.65-.3,2.94-1.55,4.35-2.46a12.16,12.16,0,0,1,7.49-1.95A7.17,7.17,0,0,1,275.24,83,4.07,4.07,0,0,1,277,86.5a19.64,19.64,0,0,1,5.07-.32,6.57,6.57,0,0,1,4.44,2.21,4,4,0,0,1,.29,4.72A3.24,3.24,0,0,1,290.68,95a4.21,4.21,0,0,1-1,4.41,7.87,7.87,0,0,1-5.06,1.84,11.42,11.42,0,0,1-4.85-1" style="fill: rgb(38, 50, 56); transform-origin: 269.381px 92.3905px;" id="elr24wltw885" class="animable"></path><path d="M254.55,156.12h0A11.83,11.83,0,0,0,269,145.76c.38-3.81.71-7,.78-7.51,0,0,9.57.18,11.32-9.11s3.88-31,3.88-31h0a32.86,32.86,0,0,0-33.24-1.61l-1.57.82-4.71,46A11.83,11.83,0,0,0,254.55,156.12Z" style="fill: rgb(183, 136, 118); transform-origin: 265.187px 124.602px;" id="elial8rhawv" class="animable"></path><path d="M269.79,138.12a21.93,21.93,0,0,1-11.53-5.58s1.69,7.21,11.13,8Z" style="fill: rgb(170, 101, 80); transform-origin: 264.025px 136.54px;" id="elxc2wj1nbrc" class="animable"></path><path d="M249.6,107.24c-.15-.1-6.07-3-7,3.39s5.7,6,5.74,5.81S249.6,107.24,249.6,107.24Z" style="fill: rgb(183, 136, 118); transform-origin: 246.055px 111.51px;" id="elayflkxv9btm" class="animable"></path><path d="M246.75,113.74s-.12.06-.32.12a1.14,1.14,0,0,1-.84-.1,2.78,2.78,0,0,1-.92-2.66,3.54,3.54,0,0,1,.54-1.55,1.3,1.3,0,0,1,1-.74.57.57,0,0,1,.61.4c.06.19,0,.32,0,.33s.15-.09.13-.36a.7.7,0,0,0-.19-.44.89.89,0,0,0-.59-.25,1.61,1.61,0,0,0-1.31.83,3.71,3.71,0,0,0-.64,1.73,2.93,2.93,0,0,0,1.23,3,1.2,1.2,0,0,0,1.05,0C246.72,113.89,246.77,113.75,246.75,113.74Z" style="fill: rgb(170, 101, 80); transform-origin: 245.558px 111.33px;" id="elxa38ji06md" class="animable"></path><path d="M280.27,112.45a1.35,1.35,0,0,1-1.52,1.11,1.28,1.28,0,0,1-1.16-1.43A1.35,1.35,0,0,1,279.1,111,1.3,1.3,0,0,1,280.27,112.45Z" style="fill: rgb(38, 50, 56); transform-origin: 278.93px 112.281px;" id="elv7a0tpm4gx" class="animable"></path><path d="M280.89,111c-.2.15-1.07-.78-2.51-1s-2.6.28-2.73.08.16-.38.68-.63a3.72,3.72,0,0,1,2.22-.28,3.57,3.57,0,0,1,2,1C280.89,110.57,281,110.91,280.89,111Z" style="fill: rgb(38, 50, 56); transform-origin: 278.275px 110.063px;" id="elxqrltzu4zk" class="animable"></path><path d="M266.39,110a1.36,1.36,0,0,1-1.52,1.12,1.29,1.29,0,0,1-1.16-1.44,1.35,1.35,0,0,1,1.51-1.12A1.3,1.3,0,0,1,266.39,110Z" style="fill: rgb(38, 50, 56); transform-origin: 265.049px 109.84px;" id="el1qrreihloqe" class="animable"></path><path d="M266.77,108.77c-.19.15-1.07-.77-2.5-1s-2.61.28-2.73.08.16-.37.67-.62a3.67,3.67,0,0,1,2.23-.29,3.54,3.54,0,0,1,1.95,1C266.77,108.37,266.87,108.71,266.77,108.77Z" style="fill: rgb(38, 50, 56); transform-origin: 264.159px 107.833px;" id="elghv8la713wr" class="animable"></path><path d="M270.11,120.3a9.17,9.17,0,0,1,2.4,0c.37,0,.73,0,.83-.23a1.82,1.82,0,0,0,0-1.12c-.19-1-.39-1.94-.59-3-.81-4.22-1.33-7.67-1.16-7.7s1,3.37,1.77,7.59c.19,1,.38,2,.55,3a2.2,2.2,0,0,1-.06,1.47.92.92,0,0,1-.7.43,2.53,2.53,0,0,1-.63,0A9.76,9.76,0,0,1,270.11,120.3Z" style="fill: rgb(38, 50, 56); transform-origin: 272.059px 114.505px;" id="elcuib373fs9m" class="animable"></path><path d="M265.72,120.55c.24,0,0,1.58,1.11,2.92s2.82,1.45,2.79,1.67-.42.24-1.12.13a3.87,3.87,0,0,1-2.35-1.31,3.46,3.46,0,0,1-.83-2.42C265.38,120.88,265.62,120.52,265.72,120.55Z" style="fill: rgb(38, 50, 56); transform-origin: 267.468px 122.942px;" id="elypij0qh72k" class="animable"></path><path d="M280.8,108.36c-.31.28-1.23-.23-2.41-.45s-2.23-.17-2.4-.55c-.08-.18.14-.48.63-.71a3.56,3.56,0,0,1,3.88.8C280.86,107.86,280.94,108.22,280.8,108.36Z" style="fill: rgb(38, 50, 56); transform-origin: 278.419px 107.415px;" id="ell4r4ntqu0q" class="animable"></path><path d="M265.82,103.27c-.19.15-.55,0-1-.16a11.69,11.69,0,0,0-1.72-.55,12.14,12.14,0,0,0-1.8-.19c-.49,0-.87,0-1-.25s.1-.58.67-.9a3.83,3.83,0,0,1,4.6,1C266,102.7,266,103.14,265.82,103.27Z" style="fill: rgb(38, 50, 56); transform-origin: 263.099px 102.087px;" id="eloyxdr1284we" class="animable"></path><path d="M284.91,101.12a22.26,22.26,0,0,1-13.47-3.07c-4.5-2.67-9.87-4.21-11.14-3.36s-1.87,5.65-6.6,6.72c0,0-.35,9.21-4,8.62s-.32-14.66-.32-14.66l9.28-3.73,9.92-1.13,9.16.67,8.33,3.24Z" style="fill: rgb(38, 50, 56); transform-origin: 267.03px 100.284px;" id="el59ex2omzaa5" class="animable"></path></g><g id="freepik--Plants--inject-159" class="animable" style="transform-origin: 244.788px 396.409px;"><path d="M81.38,361.93c-7.95-12.16-6.79-29.54,2.7-40.54,3-3.41,7.07-6.38,11.57-6s8.31,4.34,9.71,8.74.91,9.17.09,13.71c-1.15,6.36-3.08,12.87-7.5,17.6s-10.9,9.58-16.57,6.48" style="fill: rgb(0, 135, 90); transform-origin: 91.1771px 339.127px;" id="elqdv9oq6wrpm" class="animable"></path><path d="M85.78,420.48a18.16,18.16,0,0,1,5.06-20.64c1.83-1.5,4.22-2.65,6.5-2s3.89,3,4.21,5.39a14.94,14.94,0,0,1-1.19,7.07c-1.17,3.17-2.75,6.35-5.46,8.39s-6.48,3.95-9.12,1.84" style="fill: rgb(0, 135, 90); transform-origin: 93.023px 409.552px;" id="el39knkgyz9ef" class="animable"></path><path d="M66.6,416.3a26.31,26.31,0,0,0-13.26-27.76c-3-1.57-6.76-2.51-9.81-1s-4.63,5.38-4.38,8.87,1.92,6.71,3.77,9.67c2.6,4.16,5.78,8.2,10.21,10.29s10.35,3.68,13.47-.09" style="fill: rgb(0, 135, 90); transform-origin: 53.0719px 402.667px;" id="el7fveh4e4esh" class="animable"></path><path d="M68,387.14c3.8-12.28-2.65-27.18-13.41-34.23-3.34-2.19-7.57-3.71-11.3-2.29s-6,5.72-6.13,9.8,1.45,8,3.26,11.7c2.52,5.13,5.75,10.2,10.66,13.15S63.9,391.16,68,387.14" style="fill: rgb(0, 135, 90); transform-origin: 53.1252px 369.585px;" id="elrbkypflfa0n" class="animable"></path><path d="M75.62,447.2a3.5,3.5,0,0,1-.12-.6c-.07-.45-.15-1-.26-1.71,0-.38-.11-.79-.17-1.24s-.18-.94-.28-1.46c-.2-1.05-.41-2.25-.75-3.55-.16-.65-.32-1.33-.49-2.05s-.43-1.43-.65-2.19c-.41-1.52-1-3.1-1.58-4.78a92.72,92.72,0,0,0-4.74-10.52,94.23,94.23,0,0,0-6.15-9.77c-1.08-1.4-2.06-2.77-3.11-4-.51-.6-1-1.18-1.47-1.75l-1.43-1.54c-.9-1-1.78-1.84-2.54-2.59-.38-.37-.74-.71-1.06-1s-.66-.57-.94-.83l-1.29-1.16a2.69,2.69,0,0,1-.43-.43,2.53,2.53,0,0,1,.5.35L50,397.47l1,.8,1.1,1c.78.73,1.69,1.55,2.6,2.55l1.47,1.53,1.5,1.73c1.07,1.18,2.07,2.56,3.17,4A88.86,88.86,0,0,1,67,418.86a88.31,88.31,0,0,1,4.73,10.59c.56,1.7,1.15,3.29,1.55,4.83.21.76.42,1.5.61,2.21s.32,1.41.47,2.07c.32,1.31.5,2.52.68,3.58.08.52.16,1,.24,1.47s.09.87.13,1.25c.06.71.11,1.28.15,1.73A2.58,2.58,0,0,1,75.62,447.2Z" style="fill: rgb(38, 50, 56); transform-origin: 61.8903px 421.615px;" id="elbwf4k6fbdh" class="animable"></path><path d="M75.34,449.4a.73.73,0,0,1,0-.24c0-.19,0-.43.06-.71.06-.67.14-1.58.25-2.73.06-.6.12-1.26.19-2s.08-1.51.12-2.35c.06-1.69.22-3.61.17-5.74,0-1.06,0-2.18,0-3.34s-.12-2.36-.18-3.61c-.08-2.5-.42-5.15-.73-7.94a124.68,124.68,0,0,0-3.76-17.87,124.51,124.51,0,0,0-6.59-17c-1.27-2.51-2.43-4.92-3.72-7.06-.63-1.08-1.19-2.15-1.82-3.13l-1.8-2.8c-1.11-1.82-2.29-3.34-3.27-4.72-.49-.68-.94-1.33-1.38-1.91l-1.23-1.54-1.7-2.15L49.5,362c-.1-.13-.15-.2-.14-.21l.18.17c.12.15.28.32.47.54l1.77,2.09,1.28,1.52c.45.57.91,1.21,1.42,1.89,1,1.37,2.2,2.88,3.34,4.69.58.89,1.2,1.82,1.84,2.79s1.2,2,1.85,3.13c1.31,2.14,2.49,4.55,3.78,7.06a120.29,120.29,0,0,1,6.64,17.1,120.29,120.29,0,0,1,3.75,17.95c.29,2.81.61,5.47.68,8,0,1.25.15,2.46.15,3.63s0,2.28,0,3.34c0,2.14-.15,4.06-.24,5.75-.06.85-.09,1.64-.16,2.36s-.17,1.37-.24,2c-.15,1.15-.26,2.06-.35,2.72,0,.29-.08.52-.1.71S75.35,449.41,75.34,449.4Z" style="fill: rgb(38, 50, 56); transform-origin: 62.9344px 405.597px;" id="el4m2cvuwa14" class="animable"></path><path d="M96.05,330.08a1.08,1.08,0,0,1-.11.23l-.34.64-1.36,2.43c-.29.52-.64,1.1-1,1.75l-1.06,2.14c-.39.77-.79,1.59-1.23,2.45s-.81,1.83-1.24,2.82-.91,2-1.35,3.11-.86,2.24-1.32,3.42c-.23.59-.46,1.19-.69,1.81s-.43,1.25-.64,1.89c-.44,1.28-.88,2.6-1.34,4-1.68,5.45-3.28,11.52-4.63,18s-2.22,12.67-2.9,18.34-1,10.8-1.12,15.12c-.11,2.15-.13,4.11-.14,5.82s0,3.19,0,4.4,0,2.1,0,2.78v.73a.64.64,0,0,1,0,.24,1.48,1.48,0,0,1,0-.24c0-.19,0-.43,0-.72,0-.68-.08-1.61-.14-2.78s-.09-2.69-.09-4.41,0-3.67.06-5.83c.07-4.33.46-9.47,1-15.16s1.55-11.92,2.86-18.39,3-12.55,4.69-18l1.35-3.95c.22-.64.44-1.28.66-1.9s.47-1.21.71-1.8c.46-1.19.92-2.33,1.35-3.43s.94-2.11,1.38-3.1.86-1.93,1.28-2.81l1.27-2.44L93,335c.36-.65.72-1.21,1-1.73l1.44-2.39c.16-.24.29-.44.39-.61A1.18,1.18,0,0,1,96.05,330.08Z" style="fill: rgb(38, 50, 56); transform-origin: 85.7px 376.14px;" id="elu5vrzpwn6ls" class="animable"></path><path d="M93.34,404.72a10.26,10.26,0,0,1-.84,1.48c-.58.93-1.38,2.31-2.32,4s-2,3.81-3,6.18a82.72,82.72,0,0,0-2.92,7.89,81.65,81.65,0,0,0-2,8.16c-.48,2.55-.81,4.86-1,6.81s-.31,3.53-.36,4.63a9.44,9.44,0,0,1-.14,1.7,12.82,12.82,0,0,1-.06-1.71c0-1.1,0-2.69.19-4.65a68.92,68.92,0,0,1,.9-6.86,70.56,70.56,0,0,1,5-16.17,68.26,68.26,0,0,1,3.13-6.16c1-1.71,1.83-3.06,2.47-4A10.48,10.48,0,0,1,93.34,404.72Z" style="fill: rgb(38, 50, 56); transform-origin: 87.0168px 425.145px;" id="elr4squu0h7x" class="animable"></path><polygon points="60.01 441.72 94.94 441.72 90.71 477.4 64.36 477.4 60.01 441.72" style="fill: rgb(69, 90, 100); transform-origin: 77.475px 459.56px;" id="elprbzmvdt2rk" class="animable"></polygon><polygon points="61.28 473.55 64.25 477.4 90.71 477.4 93.76 473.67 61.28 473.55" style="fill: rgb(38, 50, 56); transform-origin: 77.52px 475.475px;" id="el791dtjl9idt" class="animable"></polygon><path d="M93.58,452.21c0,.15-7.25.27-16.19.27s-16.19-.12-16.19-.27,7.24-.26,16.19-.26S93.58,452.07,93.58,452.21Z" style="fill: rgb(250, 250, 250); transform-origin: 77.39px 452.215px;" id="eleu8lp435e5s" class="animable"></path><path d="M93.58,454.59c0,.14-7.25.26-16.19.26s-16.19-.12-16.19-.26,7.24-.26,16.19-.26S93.58,454.45,93.58,454.59Z" style="fill: rgb(250, 250, 250); transform-origin: 77.39px 454.59px;" id="elfwy7bx8u0ye" class="animable"></path><path d="M93.14,456.89c0,.14-7,.26-15.62.26s-15.63-.12-15.63-.26,7-.26,15.63-.26S93.14,456.75,93.14,456.89Z" style="fill: rgb(250, 250, 250); transform-origin: 77.515px 456.89px;" id="el5ypo7ezuque" class="animable"></path><path d="M436.72,451.27a15.81,15.81,0,0,1,9.84-1.2,8.24,8.24,0,0,1,4.86,2.17c1.21,1.34,1.44,3.7.05,4.85a4.66,4.66,0,0,1-3.07.78c-2.6,0-5.49-.49-7.56,1.08-1.19.89-2,2.37-3.4,2.81a3.33,3.33,0,0,1-3.68-1.64,5.7,5.7,0,0,1-.42-4.22A6.44,6.44,0,0,1,436.72,451.27Z" style="fill: rgb(0, 135, 90); transform-origin: 442.769px 455.805px;" id="eljvss1p4lj0c" class="animable"></path><path d="M429.86,438c1.83,2.61,5.39,1.75,7,.15s2.35-3.91,3-6.11c1.45-5,2.91-10.32,1.83-15.45a8.64,8.64,0,0,0-2-4.21,4.52,4.52,0,0,0-4.26-1.41c-1.79.47-2.9,2.23-3.71,3.9a36.84,36.84,0,0,0-3.64,15.81c0,2.55.29,5.22,1.73,7.32" style="fill: rgb(0, 135, 90); transform-origin: 435.072px 425.272px;" id="elfga4hnug3ge" class="animable"></path><path d="M424.83,441.78a9.49,9.49,0,0,0,1.48-8.75,16.8,16.8,0,0,0-5.18-7.52,27.86,27.86,0,0,0-9.28-5.48,10,10,0,0,0-4.18-.71,4.4,4.4,0,0,0-3.5,2.12c-1,1.86,0,4.12,1,6a71.37,71.37,0,0,0,6.1,9.28c1.83,2.36,3.92,4.68,6.7,5.75s5.68.94,7.16-1" style="fill: rgb(0, 135, 90); transform-origin: 415.272px 431.224px;" id="eljf1n3j2z33" class="animable"></path><path d="M429.73,477.46a5.38,5.38,0,0,0,.17-1.19c.08-.86.19-1.95.32-3.24s.35-3,.72-4.75a36.82,36.82,0,0,1,1.73-5.62,20.9,20.9,0,0,1,2.87-5.07,10.66,10.66,0,0,1,3.62-3,10.45,10.45,0,0,1,3-.95,4.68,4.68,0,0,0,1.18-.17,5.83,5.83,0,0,0-1.2,0,9.5,9.5,0,0,0-3.18.83,10.69,10.69,0,0,0-3.82,3,20.12,20.12,0,0,0-3,5.18,34.43,34.43,0,0,0-1.72,5.7,40.56,40.56,0,0,0-.63,4.82c-.1,1.37-.14,2.49-.16,3.26A5.9,5.9,0,0,0,429.73,477.46Z" style="fill: rgb(38, 50, 56); transform-origin: 436.484px 465.45px;" id="elpj2vicfish8" class="animable"></path><path d="M430,475a2.61,2.61,0,0,0,0-.55v-1.57c0-1.37,0-3.35.07-5.79.12-4.89.54-10.15,1.35-17.57.77-7,1.8-15.09,2.89-20.37.24-1.2.47-2.28.7-3.22s.39-1.77.56-2.43.27-1.13.37-1.53a3.08,3.08,0,0,0,.1-.54,1.74,1.74,0,0,0-.2.51l-.45,1.51c-.21.66-.41,1.47-.65,2.41s-.51,2-.76,3.22a178.26,178.26,0,0,0-3.05,18.9c-.81,7.43-1.18,14.2-1.21,19.1,0,2.45,0,4.43.08,5.8,0,.64.08,1.16.1,1.58A2,2,0,0,0,430,475Z" style="fill: rgb(38, 50, 56); transform-origin: 432.88px 448.215px;" id="eln8jdig57iki" class="animable"></path><path d="M430,461.91a10.81,10.81,0,0,0,0-1.64c-.06-1.06-.21-2.59-.5-4.46a58.38,58.38,0,0,0-1.46-6.5,52.7,52.7,0,0,0-2.71-7.69,41.17,41.17,0,0,0-8-12.43,19.16,19.16,0,0,0-1.88-1.74c-.29-.25-.54-.49-.8-.68l-.73-.5a10.43,10.43,0,0,0-1.39-.89,49.83,49.83,0,0,1,4.55,4.05,43.49,43.49,0,0,1,7.78,12.38,62.49,62.49,0,0,1,2.73,7.62,64.82,64.82,0,0,1,1.54,6.44c.34,1.85.54,3.36.66,4.41A11.87,11.87,0,0,0,430,461.91Z" style="fill: rgb(38, 50, 56); transform-origin: 421.281px 443.645px;" id="eldrxuth1t019" class="animable"></path></g><g id="freepik--Books--inject-159" class="animable" style="transform-origin: 267.305px 138.019px;"><path d="M137,213l1.94,2.47s9.6-15.37,20.74-16.95h0a2.19,2.19,0,0,0,2-.07l3.6-2.09a2.18,2.18,0,0,0,1-2.25h0s5.37-9.53,16.82-11l4.18-.79L158.55,156l-44.73,18.19Z" style="fill: rgb(0, 135, 90); transform-origin: 150.55px 185.735px;" id="el5opj0i5dul6" class="animable"></path><path d="M132.23,210.94l3.39,4.53s7.81-17.61,27.24-18.85l-19.12-19.76S129.94,205.51,132.23,210.94Z" style="fill: rgb(235, 235, 235); transform-origin: 147.417px 196.165px;" id="elz7sppsf2lq" class="animable"></path><path d="M106.05,179.3s7.41-23.91,32-15.17l24.85,32.49S137.41,192,131.42,213Z" style="fill: rgb(245, 245, 245); transform-origin: 134.475px 187.604px;" id="ellaiuawzdk0f" class="animable"></path><path d="M162.86,196.62s7.68-18.78,24.45-16.47l-24.45-28.42-24,13.52Z" style="fill: rgb(235, 235, 235); transform-origin: 163.085px 174.175px;" id="elzpaa1utrtop" class="animable"></path><path d="M138,164.17s-2.79-14.2,8.18-20.39l7.19-3.74,25.15,28.16s-17.37,9.49-15.67,28.46Z" style="fill: rgb(245, 245, 245); transform-origin: 158.101px 168.35px;" id="ellw9ump153o" class="animable"></path><path d="M162.86,196.62a8.15,8.15,0,0,1-1-1.22c-.7-.88-1.6-2-2.7-3.44-2.3-3-5.39-7-8.8-11.4l-8.83-11.39-2.69-3.44a9.2,9.2,0,0,1-.94-1.3,12.45,12.45,0,0,1,1.1,1.17c.68.77,1.64,1.92,2.82,3.34,2.35,2.84,5.52,6.84,8.95,11.3s6.5,8.53,8.69,11.5l2.56,3.54A9.7,9.7,0,0,1,162.86,196.62Z" style="fill: rgb(38, 50, 56); transform-origin: 150.38px 180.525px;" id="eljxlliqkyej7" class="animable"></path><path d="M153.92,148.32a25.7,25.7,0,0,0-2.88,1.34,19.52,19.52,0,0,0-5.55,5.18,19,19,0,0,0-3.27,6.86c-.43,1.91-.37,3.15-.48,3.15a3.22,3.22,0,0,1-.08-.87,10.63,10.63,0,0,1,.2-2.36,17.57,17.57,0,0,1,3.21-7.09,17.92,17.92,0,0,1,5.79-5.19,10,10,0,0,1,2.2-.89A2.89,2.89,0,0,1,153.92,148.32Z" style="fill: rgb(38, 50, 56); transform-origin: 147.788px 156.585px;" id="el4t2wmymt8pd" class="animable"></path><path d="M166.31,160.2c0,.1-1.13.61-2.79,1.81a20.42,20.42,0,0,0-2.69,2.34,22.18,22.18,0,0,0-2.69,3.45,22.71,22.71,0,0,0-1.9,3.93,20.83,20.83,0,0,0-.9,3.45c-.34,2-.29,3.3-.39,3.3a3.31,3.31,0,0,1-.1-.9,9.4,9.4,0,0,1,0-1.05,10.59,10.59,0,0,1,.11-1.4,18.55,18.55,0,0,1,.82-3.56,21.66,21.66,0,0,1,1.91-4,21.09,21.09,0,0,1,2.78-3.5,18.35,18.35,0,0,1,2.83-2.31,13.37,13.37,0,0,1,1.2-.73,7.48,7.48,0,0,1,1-.47A3.07,3.07,0,0,1,166.31,160.2Z" style="fill: rgb(38, 50, 56); transform-origin: 160.573px 169.34px;" id="elhn238wf5cph" class="animable"></path><path d="M170.32,163.59c0,.1-1.24.66-3,2a24.47,24.47,0,0,0-2.92,2.58,30.74,30.74,0,0,0-3,3.71,29.06,29.06,0,0,0-2.28,4.18,21,21,0,0,0-1.2,3.7c-.48,2.16-.41,3.56-.51,3.56a3.13,3.13,0,0,1-.09-1,7.87,7.87,0,0,1,0-1.15,10.15,10.15,0,0,1,.2-1.51,19.2,19.2,0,0,1,1.11-3.81,26.55,26.55,0,0,1,2.3-4.29,27.74,27.74,0,0,1,3.07-3.76,22.56,22.56,0,0,1,3-2.54,13.79,13.79,0,0,1,1.29-.81,8.49,8.49,0,0,1,1-.53A4,4,0,0,1,170.32,163.59Z" style="fill: rgb(38, 50, 56); transform-origin: 163.81px 173.455px;" id="elok5kzep50gs" class="animable"></path><path d="M172.83,166.81c0,.09-1.24.65-3,2a23.26,23.26,0,0,0-2.86,2.66,29.17,29.17,0,0,0-2.87,3.83,29.56,29.56,0,0,0-2.16,4.27,23.38,23.38,0,0,0-1.12,3.74c-.45,2.18-.38,3.58-.49,3.58a4,4,0,0,1-.08-1,6.61,6.61,0,0,1,0-1.15,10.2,10.2,0,0,1,.18-1.52,20.83,20.83,0,0,1,1-3.85,28.48,28.48,0,0,1,2.16-4.37,27.32,27.32,0,0,1,3-3.87,20,20,0,0,1,3-2.63,10.29,10.29,0,0,1,1.28-.84,7.39,7.39,0,0,1,1-.54A3.08,3.08,0,0,1,172.83,166.81Z" style="fill: rgb(38, 50, 56); transform-origin: 166.527px 176.85px;" id="el3zxbjixg904" class="animable"></path><path d="M152.08,191.37c0,.09-1.39-.39-3.68-.59a19.26,19.26,0,0,0-8.75,1.31,19.06,19.06,0,0,0-7.15,5.21c-1.49,1.75-2.13,3-2.22,3a3.14,3.14,0,0,1,.41-.93,15.27,15.27,0,0,1,1.52-2.3,17.82,17.82,0,0,1,16.23-6.65,15.54,15.54,0,0,1,2.7.57A3.39,3.39,0,0,1,152.08,191.37Z" style="fill: rgb(38, 50, 56); transform-origin: 141.18px 195.29px;" id="el1osttmzhz26" class="animable"></path><path d="M148.79,187.27c0,.09-1.39-.39-3.68-.59a18.6,18.6,0,0,0-15.91,6.52c-1.49,1.75-2.13,3.05-2.21,3a3.14,3.14,0,0,1,.41-.93,15.27,15.27,0,0,1,1.52-2.3,17.82,17.82,0,0,1,16.23-6.65,15.54,15.54,0,0,1,2.7.57A3.39,3.39,0,0,1,148.79,187.27Z" style="fill: rgb(38, 50, 56); transform-origin: 137.89px 191.19px;" id="eln55vlld2nal" class="animable"></path><path d="M145.5,183.16c0,.1-1.39-.38-3.68-.58a18.6,18.6,0,0,0-15.91,6.52c-1.49,1.75-2.13,3-2.21,3a3.12,3.12,0,0,1,.4-.93,15.48,15.48,0,0,1,1.53-2.31,17.84,17.84,0,0,1,16.23-6.64,15.54,15.54,0,0,1,2.7.57A3.62,3.62,0,0,1,145.5,183.16Z" style="fill: rgb(38, 50, 56); transform-origin: 134.6px 187.09px;" id="elupxfnnr5j7p" class="animable"></path><path d="M142.21,179.06c0,.1-1.4-.38-3.68-.58A18.57,18.57,0,0,0,122.62,185c-1.49,1.75-2.13,3-2.22,3a4.08,4.08,0,0,1,.41-.92,14.72,14.72,0,0,1,1.53-2.31,17.84,17.84,0,0,1,16.22-6.64,14.79,14.79,0,0,1,2.71.57A3.62,3.62,0,0,1,142.21,179.06Z" style="fill: rgb(38, 50, 56); transform-origin: 131.305px 182.995px;" id="el9zhdwtj651j" class="animable"></path><path d="M138.91,175c0,.1-1.39-.38-3.68-.58a18.57,18.57,0,0,0-15.9,6.52c-1.49,1.74-2.13,3-2.22,3a3.56,3.56,0,0,1,.41-.92,15.27,15.27,0,0,1,1.52-2.31A17.88,17.88,0,0,1,135.27,174a15.39,15.39,0,0,1,2.7.58A3.07,3.07,0,0,1,138.91,175Z" style="fill: rgb(38, 50, 56); transform-origin: 128.01px 178.904px;" id="elt1w3ob2d9fc" class="animable"></path><path d="M135.62,170.86c0,.09-1.39-.38-3.68-.58A18.57,18.57,0,0,0,116,176.8c-1.49,1.74-2.13,3-2.22,3a3.26,3.26,0,0,1,.41-.93,15.8,15.8,0,0,1,1.52-2.3A17.82,17.82,0,0,1,132,169.91a15.39,15.39,0,0,1,2.7.58A3.23,3.23,0,0,1,135.62,170.86Z" style="fill: rgb(38, 50, 56); transform-origin: 124.7px 174.782px;" id="el3dz1t0l883f" class="animable"></path><path d="M144.76,165.83l6.86,7.62s2.14-10.54,11.47-14.54l-7.25-7.73A18,18,0,0,0,144.76,165.83Z" style="fill: rgb(235, 235, 235); transform-origin: 153.925px 162.315px;" id="elwej6e49cqj" class="animable"></path><path d="M169.4,88.76l-1,2.23s14.09,1.15,19.18,8.31h0a1.68,1.68,0,0,0,.78,1.39l2.74,1.75a1.69,1.69,0,0,0,1.92-.11h0a18.78,18.78,0,0,1,13.66,7.72l2.05,2.61,9.09-30.34L188,58.81Z" style="fill: rgb(0, 135, 90); transform-origin: 193.11px 85.735px;" id="el1qoo7unzxk3" class="animable"></path><path d="M169.13,84.73l-1.93,4s15-.89,22.82,12.13l6.86-20.33S172.07,81.2,169.13,84.73Z" style="fill: rgb(235, 235, 235); transform-origin: 182.04px 90.695px;" id="elvovonytr95m" class="animable"></path><path d="M181.69,55.26s19.23-3.43,22,16.72L190,100.84s-5.93-19.28-22.61-15.93Z" style="fill: rgb(245, 245, 245); transform-origin: 185.54px 77.9394px;" id="eli2g9gw0p38b" class="animable"></path><path d="M190,100.84s15.78-1.4,20.18,11l11-27.13L203.18,73Z" style="fill: rgb(235, 235, 235); transform-origin: 205.59px 92.42px;" id="elzbzb0e6kiog" class="animable"></path><path d="M203.62,72s8.85-7,17.07-1.63L225.85,74l-10.51,27.51s-12.8-8.63-25.34-.66Z" style="fill: rgb(245, 245, 245); transform-origin: 207.925px 84.9266px;" id="eltuj70gjl14" class="animable"></path><path d="M190,100.84a6,6,0,0,1,.46-1.17c.37-.83.84-1.87,1.4-3.1l4.74-10.2,4.75-10.19,1.43-3.09a5.55,5.55,0,0,1,.59-1.11,6,6,0,0,1-.4,1.19c-.28.76-.73,1.83-1.29,3.16-1.12,2.65-2.75,6.28-4.61,10.26s-3.59,7.56-4.88,10.14c-.64,1.28-1.17,2.32-1.55,3A5.11,5.11,0,0,1,190,100.84Z" style="fill: rgb(38, 50, 56); transform-origin: 196.685px 86.41px;" id="el58496olqeso" class="animable"></path><path d="M220.67,76.76c-.06.07-.84-.54-2.27-1.25a16.29,16.29,0,0,0-12-1c-1.51.47-2.39,1-2.43.87s.18-.17.57-.41a10.89,10.89,0,0,1,1.74-.81,14.64,14.64,0,0,1,6.27-.85,14.93,14.93,0,0,1,6.06,1.82,10.87,10.87,0,0,1,1.59,1.08C220.51,76.56,220.69,76.73,220.67,76.76Z" style="fill: rgb(38, 50, 56); transform-origin: 212.318px 75.0125px;" id="elgx87fl7eflp" class="animable"></path><path d="M219.87,80.08c-.06.07-.85-.54-2.27-1.25a16.29,16.29,0,0,0-12-1c-1.52.47-2.39,1-2.44.87s.19-.17.58-.41a10.48,10.48,0,0,1,1.74-.81,14.59,14.59,0,0,1,6.27-.85,14.83,14.83,0,0,1,6.05,1.82,10.34,10.34,0,0,1,1.59,1.08C219.71,79.88,219.89,80.05,219.87,80.08Z" style="fill: rgb(38, 50, 56); transform-origin: 211.512px 78.3321px;" id="elxu41a9851dk" class="animable"></path><path d="M218.37,83.38c-.05.08-.84-.54-2.26-1.25a16.69,16.69,0,0,0-5.93-1.63,16.44,16.44,0,0,0-6.11.68c-1.51.48-2.39,1-2.43.88s.19-.18.58-.41a9.63,9.63,0,0,1,1.74-.82,14.88,14.88,0,0,1,6.26-.85,14.72,14.72,0,0,1,6.06,1.83,10.13,10.13,0,0,1,1.59,1.08C218.22,83.18,218.4,83.35,218.37,83.38Z" style="fill: rgb(38, 50, 56); transform-origin: 210.004px 81.6603px;" id="elfg1f5od7e0o" class="animable"></path><path d="M217.44,86.68c-.06.08-.85-.54-2.27-1.25a16.29,16.29,0,0,0-12-1c-1.52.48-2.39,1-2.44.88s.19-.18.58-.41a9.63,9.63,0,0,1,1.74-.82,14.9,14.9,0,0,1,6.27-.85,14.67,14.67,0,0,1,6.05,1.83,9.67,9.67,0,0,1,1.59,1.08C217.28,86.48,217.46,86.65,217.44,86.68Z" style="fill: rgb(38, 50, 56); transform-origin: 209.082px 84.9351px;" id="el8uarsm3360o" class="animable"></path><path d="M216.5,90.19c-.05.07-.84-.54-2.26-1.25a16.63,16.63,0,0,0-5.93-1.63,16.36,16.36,0,0,0-6.1.68c-1.52.47-2.39,1-2.44.87s.19-.17.58-.41a10.48,10.48,0,0,1,1.74-.81,14.9,14.9,0,0,1,6.27-.85,14.67,14.67,0,0,1,6,1.83A9.67,9.67,0,0,1,216,89.7C216.35,90,216.53,90.16,216.5,90.19Z" style="fill: rgb(38, 50, 56); transform-origin: 208.133px 88.4694px;" id="elx2kzupphd" class="animable"></path><path d="M215.59,94.18c-.06.08-.91-.59-2.47-1.33a19.34,19.34,0,0,0-2.83-1.09,24.51,24.51,0,0,0-3.63-.73,22.32,22.32,0,0,0-3.71-.09,17.2,17.2,0,0,0-3,.48c-1.67.43-2.62,1-2.67.88a2.46,2.46,0,0,1,.64-.43,5.14,5.14,0,0,1,.81-.39,8.36,8.36,0,0,1,1.12-.41,15.23,15.23,0,0,1,3-.61,21.16,21.16,0,0,1,3.8.05,21.55,21.55,0,0,1,3.72.79,16.56,16.56,0,0,1,2.85,1.22,8.5,8.5,0,0,1,1,.61,5.4,5.4,0,0,1,.72.53C215.42,94,215.61,94.16,215.59,94.18Z" style="fill: rgb(38, 50, 56); transform-origin: 206.436px 92.2921px;" id="el1m2pnwvoim6" class="animable"></path><path d="M214.26,97.07c-.06.08-.91-.6-2.49-1.31a18.83,18.83,0,0,0-2.87-1,24,24,0,0,0-3.67-.61,22.91,22.91,0,0,0-3.72,0,17.83,17.83,0,0,0-3,.55c-1.67.45-2.62,1-2.67.9s.21-.18.64-.43a6.11,6.11,0,0,1,.81-.4,9.81,9.81,0,0,1,1.12-.43,16.27,16.27,0,0,1,3-.67,20.77,20.77,0,0,1,3.81-.07,20.51,20.51,0,0,1,3.76.67,15.49,15.49,0,0,1,2.9,1.15,9.64,9.64,0,0,1,1,.59,5.57,5.57,0,0,1,.73.53C214.09,96.86,214.29,97.05,214.26,97.07Z" style="fill: rgb(38, 50, 56); transform-origin: 205.048px 95.3102px;" id="eldcty70an41m" class="animable"></path><path d="M189.81,91.49c-.09,0-.27-1.1-.95-2.75a15.21,15.21,0,0,0-4-5.57,14.92,14.92,0,0,0-6.15-3.09c-1.74-.42-2.86-.42-2.86-.51a2.18,2.18,0,0,1,.79-.07,11.82,11.82,0,0,1,2.15.22,13.86,13.86,0,0,1,10.45,8.89,10.7,10.7,0,0,1,.55,2.09A2.27,2.27,0,0,1,189.81,91.49Z" style="fill: rgb(38, 50, 56); transform-origin: 182.843px 85.4901px;" id="elhibas2j0l0e" class="animable"></path><path d="M191.47,87.74c-.09,0-.26-1.1-.95-2.75a14.6,14.6,0,0,0-10.18-8.67c-1.74-.41-2.87-.41-2.87-.5a2.18,2.18,0,0,1,.79-.07,12.59,12.59,0,0,1,2.15.21,13.86,13.86,0,0,1,10.45,8.9,11.66,11.66,0,0,1,.56,2.09A2.09,2.09,0,0,1,191.47,87.74Z" style="fill: rgb(38, 50, 56); transform-origin: 184.478px 81.7401px;" id="el2eldm7e7r1v" class="animable"></path><path d="M193.14,84c-.09,0-.27-1.1-1-2.75A14.6,14.6,0,0,0,182,72.57c-1.74-.41-2.87-.41-2.86-.5a2.18,2.18,0,0,1,.79-.07,12.59,12.59,0,0,1,2.15.21,13.91,13.91,0,0,1,6.4,3.07,14.06,14.06,0,0,1,4.05,5.83,11.48,11.48,0,0,1,.55,2.09A2.27,2.27,0,0,1,193.14,84Z" style="fill: rgb(38, 50, 56); transform-origin: 186.146px 77.9951px;" id="el9v4v58atvdu" class="animable"></path><path d="M194.8,80.24c-.09,0-.26-1.1-1-2.75a14.59,14.59,0,0,0-10.19-8.67c-1.73-.41-2.86-.41-2.86-.5a2.18,2.18,0,0,1,.79-.07,11.64,11.64,0,0,1,2.15.21,13.81,13.81,0,0,1,10.45,8.9,11.82,11.82,0,0,1,.56,2.08A2.14,2.14,0,0,1,194.8,80.24Z" style="fill: rgb(38, 50, 56); transform-origin: 187.777px 74.2401px;" id="el501vh7ysyrq" class="animable"></path><path d="M196.47,76.49c-.09,0-.27-1.1-1-2.75a14.6,14.6,0,0,0-10.18-8.67c-1.74-.41-2.87-.41-2.86-.5a2.18,2.18,0,0,1,.79-.07,10.82,10.82,0,0,1,2.15.21,13.85,13.85,0,0,1,10.45,8.9,12.56,12.56,0,0,1,.55,2.08A2.32,2.32,0,0,1,196.47,76.49Z" style="fill: rgb(38, 50, 56); transform-origin: 189.451px 70.4901px;" id="elp17v3s7qdgj" class="animable"></path><path d="M198.13,72.73c-.09,0-.26-1.09-.95-2.74A14.59,14.59,0,0,0,187,61.32c-1.74-.42-2.86-.41-2.86-.5a2.18,2.18,0,0,1,.79-.07,10.82,10.82,0,0,1,2.15.21,13.85,13.85,0,0,1,10.45,8.9,10.82,10.82,0,0,1,.55,2.08A2.26,2.26,0,0,1,198.13,72.73Z" style="fill: rgb(38, 50, 56); transform-origin: 191.142px 66.7351px;" id="eliog7yfwhyo" class="animable"></path><path d="M354.3,183.7l-1.68,2.66s17.68,3.93,22.89,13.91h0a2.2,2.2,0,0,0,.75,1.91l3.17,2.7a2.16,2.16,0,0,0,2.45.2h0s10.77,1.89,16,12.19L400,221,416.88,184,383.2,149Z" style="fill: rgb(0, 135, 90); transform-origin: 384.75px 185px;" id="el94vjtj35eqq" class="animable"></path><path d="M354.67,178.55l-3.15,4.71s19.21,1.5,26.85,19.4l12.26-24.61S359,174.58,354.67,178.55Z" style="fill: rgb(235, 235, 235); transform-origin: 371.075px 189.653px;" id="elx4igytvdjr" class="animable"></path><path d="M375.78,143.33s25-1,25,25.08l-22.36,34.25s-4.16-25.52-25.91-24.18Z" style="fill: rgb(245, 245, 245); transform-origin: 376.645px 172.992px;" id="elyed00t7t0vb" class="animable"></path><path d="M378.37,202.66s20.27,1,23.67,17.57l18.66-32.52L400,169.59Z" style="fill: rgb(235, 235, 235); transform-origin: 399.535px 194.91px;" id="ells4i2yxl9ge" class="animable"></path><path d="M400.69,168.43s12.46-7.37,21.95.92l5.92,5.53L410.39,208s-14.74-13.21-32.06-5.29Z" style="fill: rgb(245, 245, 245); transform-origin: 403.445px 186.705px;" id="elm809s4z2dh" class="animable"></path><path d="M378.37,202.66a8.93,8.93,0,0,1,.8-1.39l2.34-3.68c2.06-3.17,4.8-7.41,7.83-12.1l7.8-12.12,2.34-3.68a9.56,9.56,0,0,1,.91-1.32,9.48,9.48,0,0,1-.73,1.42c-.5.91-1.26,2.19-2.21,3.78-1.9,3.16-4.61,7.48-7.67,12.2s-5.88,9-8,12l-2.48,3.6A9.48,9.48,0,0,1,378.37,202.66Z" style="fill: rgb(38, 50, 56); transform-origin: 389.38px 185.515px;" id="el6dv289dk4xd" class="animable"></path><path d="M421.5,177.46c-.07.07-.95-.86-2.63-2a20.26,20.26,0,0,0-3.11-1.76,22.58,22.58,0,0,0-4.14-1.38,22.81,22.81,0,0,0-4.34-.49,20.41,20.41,0,0,0-3.56.3c-2,.35-3.2.83-3.23.73a2.88,2.88,0,0,1,.81-.39,8.66,8.66,0,0,1,1-.35,13.07,13.07,0,0,1,1.35-.35,18.41,18.41,0,0,1,3.63-.42,21.57,21.57,0,0,1,4.45.46,21.08,21.08,0,0,1,4.24,1.45,19,19,0,0,1,3.12,1.9c.42.3.76.62,1.08.89a7.55,7.55,0,0,1,.75.74A3.27,3.27,0,0,1,421.5,177.46Z" style="fill: rgb(38, 50, 56); transform-origin: 410.995px 174.407px;" id="elii6y14njdnq" class="animable"></path><path d="M419.9,181.54c-.08.07-1-.86-2.63-2a20.26,20.26,0,0,0-3.11-1.76,20.67,20.67,0,0,0-8.48-1.86,20.4,20.4,0,0,0-3.56.29c-2,.35-3.2.83-3.24.74a2.91,2.91,0,0,1,.82-.39,5.58,5.58,0,0,1,1-.35,11.52,11.52,0,0,1,1.36-.36,18.47,18.47,0,0,1,3.63-.41,20.92,20.92,0,0,1,4.45.45,21.2,21.2,0,0,1,4.23,1.46,17.58,17.58,0,0,1,3.12,1.89,12.22,12.22,0,0,1,1.08.9,6.81,6.81,0,0,1,.76.73A3.15,3.15,0,0,1,419.9,181.54Z" style="fill: rgb(38, 50, 56); transform-origin: 409.39px 178.492px;" id="elqqgvoj08h7" class="animable"></path><path d="M417.42,185.47c-.07.07-.95-.86-2.63-2a21.13,21.13,0,0,0-3.11-1.76,23.36,23.36,0,0,0-4.14-1.38,22.76,22.76,0,0,0-4.34-.48,21.61,21.61,0,0,0-3.56.29c-2,.36-3.2.83-3.23.74a3.09,3.09,0,0,1,.81-.39,7.1,7.1,0,0,1,1-.35,12.91,12.91,0,0,1,1.35-.36,18.56,18.56,0,0,1,3.63-.41,21.46,21.46,0,0,1,4.45.45,21.73,21.73,0,0,1,4.24,1.46,18.58,18.58,0,0,1,3.12,1.9,10.7,10.7,0,0,1,1.08.89,7.82,7.82,0,0,1,.76.73C417.24,185.2,417.45,185.44,417.42,185.47Z" style="fill: rgb(38, 50, 56); transform-origin: 406.916px 182.422px;" id="el2pccxc1o1ei" class="animable"></path><path d="M379.73,190.75c-.09,0-.1-1.44-.67-3.66a18.57,18.57,0,0,0-11.45-12.83c-2.14-.82-3.58-1-3.56-1.09a3.51,3.51,0,0,1,1,.07,16.62,16.62,0,0,1,2.68.67A17.8,17.8,0,0,1,379.41,187a14.37,14.37,0,0,1,.36,2.74A3.08,3.08,0,0,1,379.73,190.75Z" style="fill: rgb(38, 50, 56); transform-origin: 371.922px 181.955px;" id="elfn7clpzz48c" class="animable"></path><path d="M382.5,186.28c-.09,0-.1-1.44-.67-3.66a18.58,18.58,0,0,0-11.44-12.83c-2.15-.82-3.59-1-3.57-1.09a3.51,3.51,0,0,1,1,.07,16.62,16.62,0,0,1,2.68.67,17.8,17.8,0,0,1,11.67,13.09,14.37,14.37,0,0,1,.36,2.74A2.77,2.77,0,0,1,382.5,186.28Z" style="fill: rgb(38, 50, 56); transform-origin: 374.691px 177.485px;" id="elhgomys1fh0w" class="animable"></path><path d="M385.27,181.81c-.09,0-.1-1.44-.67-3.66a18.58,18.58,0,0,0-11.44-12.83c-2.15-.82-3.59-1-3.57-1.09a3.51,3.51,0,0,1,1,.07,16.62,16.62,0,0,1,2.68.67A17.84,17.84,0,0,1,385,178.06a16.21,16.21,0,0,1,.36,2.74A2.88,2.88,0,0,1,385.27,181.81Z" style="fill: rgb(38, 50, 56); transform-origin: 377.48px 173.015px;" id="eltxob834jpy" class="animable"></path><path d="M388.05,177.34c-.1,0-.11-1.44-.68-3.66a18.58,18.58,0,0,0-11.44-12.83c-2.15-.82-3.58-1-3.57-1.09a3.51,3.51,0,0,1,1,.07,16.62,16.62,0,0,1,2.68.67,17.84,17.84,0,0,1,11.68,13.09,16.21,16.21,0,0,1,.36,2.74A3.48,3.48,0,0,1,388.05,177.34Z" style="fill: rgb(38, 50, 56); transform-origin: 380.232px 168.545px;" id="elaxmwd926nri" class="animable"></path><path d="M390.82,172.87c-.1,0-.11-1.44-.68-3.66a18.58,18.58,0,0,0-11.44-12.83c-2.15-.82-3.58-1-3.57-1.09a3.51,3.51,0,0,1,1,.07,16.37,16.37,0,0,1,2.68.67,17.84,17.84,0,0,1,11.68,13.09,16.21,16.21,0,0,1,.36,2.74A3.48,3.48,0,0,1,390.82,172.87Z" style="fill: rgb(38, 50, 56); transform-origin: 383.002px 164.075px;" id="elmhylcjbpcmg" class="animable"></path><path d="M393.59,168.4c-.1,0-.11-1.44-.68-3.66a18.58,18.58,0,0,0-11.44-12.83c-2.15-.82-3.58-1-3.57-1.09a3.51,3.51,0,0,1,1,.07,16.37,16.37,0,0,1,2.68.67,17.84,17.84,0,0,1,11.68,13.09,16.21,16.21,0,0,1,.36,2.74A3.48,3.48,0,0,1,393.59,168.4Z" style="fill: rgb(38, 50, 56); transform-origin: 385.772px 159.605px;" id="elcx2uxe1z99q" class="animable"></path><path d="M395.63,185.47l-6.52,9.44s10-1.17,18.7,4.37l6-10.11s-9.24-7.26-18.22-3.7" style="fill: rgb(235, 235, 235); transform-origin: 401.46px 191.884px;" id="elqj3oe6rpok9" class="animable"></path></g><g id="freepik--Hearts--inject-159" class="animable" style="transform-origin: 265.411px 157.31px;"><path d="M335.18,72.83a7.42,7.42,0,0,0-.58-4.4,7.1,7.1,0,0,0-2.82-3.3,5.87,5.87,0,0,0-4.53-.54A5.79,5.79,0,0,0,324.88,66a5.68,5.68,0,0,0-1.06-2.28,5.79,5.79,0,0,0-4-2.21,7.16,7.16,0,0,0-4.22,1,7.41,7.41,0,0,0-3,3.24,8.93,8.93,0,0,0-.63,5.6,12.62,12.62,0,0,0,2.91,5.25c2.19,2.52,5.11,5.73,5.11,5.73s3.77-1.29,7-2a12.79,12.79,0,0,0,5.43-2.56A9.06,9.06,0,0,0,335.18,72.83Z" style="fill: rgb(0, 135, 90); transform-origin: 323.533px 71.9099px;" id="el6tv4k0jtjjp" class="animable"></path><path d="M313.39,99.46a3.45,3.45,0,0,0-1.3-1.67,3.31,3.31,0,0,0-1.95-.67,2.7,2.7,0,0,0-2.62,2,2.75,2.75,0,0,0-3.16-.63,3.4,3.4,0,0,0-1.48,1.45,3.46,3.46,0,0,0-.46,2.06,4.23,4.23,0,0,0,1.09,2.45,6,6,0,0,0,2.46,1.45c1.51.5,3.49,1.11,3.49,1.11s1.23-1.43,2.38-2.53a6.07,6.07,0,0,0,1.61-2.37A4.24,4.24,0,0,0,313.39,99.46Z" style="fill: rgb(0, 135, 90); transform-origin: 308.02px 102.065px;" id="ela0ghnexngjg" class="animable"></path><path d="M171.57,247.13a3.52,3.52,0,0,0-.22-2.1,3.44,3.44,0,0,0-1.3-1.61,2.74,2.74,0,0,0-3.3.33,2.75,2.75,0,0,0-2.35-2.19,3.33,3.33,0,0,0-2,.44,3.54,3.54,0,0,0-1.49,1.5,4.23,4.23,0,0,0-.36,2.66,6.07,6.07,0,0,0,1.32,2.54c1,1.22,2.37,2.79,2.37,2.79s1.81-.57,3.36-.9a6.07,6.07,0,0,0,2.62-1.15A4.33,4.33,0,0,0,171.57,247.13Z" style="fill: rgb(0, 135, 90); transform-origin: 166.058px 246.517px;" id="elj255cboy68m" class="animable"></path><path d="M370.2,248.35a2.28,2.28,0,0,0-.82-1,2.19,2.19,0,0,0-1.23-.42,1.26,1.26,0,0,1-2.26.85,1.72,1.72,0,0,0-1.37,0,2.13,2.13,0,0,0-.93.9,2.19,2.19,0,0,0-.29,1.3,2.69,2.69,0,0,0,.69,1.54,3.79,3.79,0,0,0,1.55.91l2.19.7s.77-.91,1.49-1.6a3.73,3.73,0,0,0,1-1.48A2.71,2.71,0,0,0,370.2,248.35Z" style="fill: rgb(0, 135, 90); transform-origin: 366.819px 250.03px;" id="el3yihvzx76kr" class="animable"></path><path d="M182.58,214.77a2.18,2.18,0,0,0-.82-1.05,2.05,2.05,0,0,0-1.23-.42,1.7,1.7,0,0,0-1.25.55,1.76,1.76,0,0,0-.4.72,1.82,1.82,0,0,0-.62-.43,1.74,1.74,0,0,0-1.36,0,2.1,2.1,0,0,0-.93.91,2.16,2.16,0,0,0-.29,1.29,2.66,2.66,0,0,0,.69,1.54,3.69,3.69,0,0,0,1.55.91c.94.32,2.19.7,2.19.7s.77-.9,1.49-1.59a3.8,3.8,0,0,0,1-1.49A2.68,2.68,0,0,0,182.58,214.77Z" style="fill: rgb(0, 135, 90); transform-origin: 179.195px 216.395px;" id="eld0v9ppkw1nb" class="animable"></path><path d="M357.88,88.86a2.23,2.23,0,0,0-.82-1,2.19,2.19,0,0,0-1.23-.42,1.76,1.76,0,0,0-1.25.55,1.69,1.69,0,0,0-.39.72,1.84,1.84,0,0,0-.62-.42,1.76,1.76,0,0,0-1.37,0A2.31,2.31,0,0,0,351,90.48a2.69,2.69,0,0,0,.69,1.54,3.79,3.79,0,0,0,1.55.91l2.19.7s.77-.91,1.49-1.6a3.73,3.73,0,0,0,1-1.48A2.71,2.71,0,0,0,357.88,88.86Z" style="fill: rgb(0, 135, 90); transform-origin: 354.515px 90.535px;" id="eltkur1mu5ldk" class="animable"></path><path d="M355.89,224.64a6.41,6.41,0,0,0-.93-3.74,6.18,6.18,0,0,0-2.77-2.56,5,5,0,0,0-5.87,1.44,5.11,5.11,0,0,0-1.14-1.86,5.05,5.05,0,0,0-3.67-1.5,6.1,6.1,0,0,0-3.53,1.31,6.39,6.39,0,0,0-2.3,3.1,7.89,7.89,0,0,0,0,4.9,11.07,11.07,0,0,0,3,4.23c2.15,2,5,4.43,5,4.43s3.12-1.49,5.85-2.47a11.11,11.11,0,0,0,4.43-2.76A7.82,7.82,0,0,0,355.89,224.64Z" style="fill: rgb(0, 135, 90); transform-origin: 345.596px 225.405px;" id="elz6kiztn3i1s" class="animable"></path></g><defs>     <filter id="active" height="200%">         <feMorphology in="SourceAlpha" result="DILATED" operator="dilate" radius="2"></feMorphology>                <feFlood flood-color="#32DFEC" flood-opacity="1" result="PINK"></feFlood>        <feComposite in="PINK" in2="DILATED" operator="in" result="OUTLINE"></feComposite>        <feMerge>            <feMergeNode in="OUTLINE"></feMergeNode>            <feMergeNode in="SourceGraphic"></feMergeNode>        </feMerge>    </filter>    <filter id="hover" height="200%">        <feMorphology in="SourceAlpha" result="DILATED" operator="dilate" radius="2"></feMorphology>                <feFlood flood-color="#ff0000" flood-opacity="0.5" result="PINK"></feFlood>        <feComposite in="PINK" in2="DILATED" operator="in" result="OUTLINE"></feComposite>        <feMerge>            <feMergeNode in="OUTLINE"></feMergeNode>            <feMergeNode in="SourceGraphic"></feMergeNode>        </feMerge>            <feColorMatrix type="matrix" values="0   0   0   0   0                0   1   0   0   0                0   0   0   0   0                0   0   0   1   0 "></feColorMatrix>    </filter></defs></svg>