<svg class="animated" id="freepik_stories-create" xmlns="http://www.w3.org/2000/svg" viewBox="0 0 500 500" version="1.1" xmlns:xlink="http://www.w3.org/1999/xlink" xmlns:svgjs="http://svgjs.com/svgjs"><style>svg#freepik_stories-create:not(.animated) .animable {opacity: 0;}svg#freepik_stories-create.animated #freepik--light-bulb--inject-126 {animation: 3s Infinite  linear floating;animation-delay: 0s;}            @keyframes floating {                0% {                    opacity: 1;                    transform: translateY(0px);                }                50% {                    transform: translateY(-10px);                }                100% {                    opacity: 1;                    transform: translateY(0px);                }            }        </style><g id="freepik--background-complete--inject-126" class="animable" style="transform-origin: 248.65px 183.595px;"><path d="M249.35,367.19H456v-207ZM418,329.35H342.77L418.13,254Z" style="fill: rgb(219, 219, 219); transform-origin: 352.675px 263.69px;" id="el6h2c62oqsqt" class="animable"></path><path d="M449.67,166.59l-.92.92L249.35,367.19H456v-207ZM418,329.36H342.77L418.14,254Z" style="fill: rgb(235, 235, 235); transform-origin: 352.675px 263.69px;" id="el7nb2ksyabz5" class="animable"></path><rect x="448.93" y="168.95" width="7.1" height="0.99" style="fill: rgb(199, 199, 199); transform-origin: 452.48px 169.445px;" id="elp3lzyt1twkp" class="animable"></rect><rect x="451.84" y="173.55" width="4.19" height="0.99" style="fill: rgb(199, 199, 199); transform-origin: 453.935px 174.045px;" id="elldxtv4ktwb" class="animable"></rect><rect x="451.84" y="178.14" width="4.19" height="0.99" style="fill: rgb(199, 199, 199); transform-origin: 453.935px 178.635px;" id="elaxdpaon0b1" class="animable"></rect><rect x="451.84" y="182.74" width="4.19" height="0.99" style="fill: rgb(199, 199, 199); transform-origin: 453.935px 183.235px;" id="eln4lp4lumr6j" class="animable"></rect><rect x="451.84" y="187.34" width="4.19" height="0.99" style="fill: rgb(199, 199, 199); transform-origin: 453.935px 187.835px;" id="elnuc2awqte1" class="animable"></rect><rect x="451.84" y="191.93" width="4.19" height="1" style="fill: rgb(199, 199, 199); transform-origin: 453.935px 192.43px;" id="elr4qavi4gah" class="animable"></rect><rect x="451.84" y="196.53" width="4.19" height="0.99" style="fill: rgb(199, 199, 199); transform-origin: 453.935px 197.025px;" id="el3so49j0swbd" class="animable"></rect><rect x="448.93" y="201.13" width="7.1" height="0.99" style="fill: rgb(199, 199, 199); transform-origin: 452.48px 201.625px;" id="elgi0ff5lr6vo" class="animable"></rect><rect x="451.84" y="205.74" width="4.19" height="0.99" style="fill: rgb(199, 199, 199); transform-origin: 453.935px 206.235px;" id="elq8qqiutvkyh" class="animable"></rect><rect x="451.84" y="210.32" width="4.19" height="0.99" style="fill: rgb(199, 199, 199); transform-origin: 453.935px 210.815px;" id="ellvu7h0l2um" class="animable"></rect><rect x="451.84" y="214.93" width="4.19" height="0.99" style="fill: rgb(199, 199, 199); transform-origin: 453.935px 215.425px;" id="ell2dco8vwc7s" class="animable"></rect><rect x="451.84" y="219.53" width="4.19" height="0.99" style="fill: rgb(199, 199, 199); transform-origin: 453.935px 220.025px;" id="elzlj48nq4kcd" class="animable"></rect><rect x="451.84" y="224.12" width="4.19" height="0.99" style="fill: rgb(199, 199, 199); transform-origin: 453.935px 224.615px;" id="el7jtzma8es9q" class="animable"></rect><rect x="451.84" y="228.72" width="4.19" height="0.99" style="fill: rgb(199, 199, 199); transform-origin: 453.935px 229.215px;" id="elr6n3ikmhsdp" class="animable"></rect><rect x="448.93" y="233.32" width="7.1" height="0.99" style="fill: rgb(199, 199, 199); transform-origin: 452.48px 233.815px;" id="elfdun3lk1ph" class="animable"></rect><rect x="451.84" y="237.91" width="4.19" height="0.99" style="fill: rgb(199, 199, 199); transform-origin: 453.935px 238.405px;" id="elkg9zjeptvu" class="animable"></rect><rect x="451.84" y="242.51" width="4.19" height="0.99" style="fill: rgb(199, 199, 199); transform-origin: 453.935px 243.005px;" id="elo44sfvywku" class="animable"></rect><rect x="451.84" y="247.11" width="4.19" height="0.99" style="fill: rgb(199, 199, 199); transform-origin: 453.935px 247.605px;" id="el5kq88f2ac3i" class="animable"></rect><rect x="451.84" y="251.7" width="4.19" height="1" style="fill: rgb(199, 199, 199); transform-origin: 453.935px 252.2px;" id="el9ppabskvfub" class="animable"></rect><rect x="451.84" y="256.3" width="4.19" height="0.99" style="fill: rgb(199, 199, 199); transform-origin: 453.935px 256.795px;" id="elwqqdhtmgp2j" class="animable"></rect><rect x="451.84" y="260.91" width="4.19" height="0.99" style="fill: rgb(199, 199, 199); transform-origin: 453.935px 261.405px;" id="elns011lm41oj" class="animable"></rect><rect x="448.93" y="265.51" width="7.1" height="0.99" style="fill: rgb(199, 199, 199); transform-origin: 452.48px 266.005px;" id="el8slsov3280c" class="animable"></rect><rect x="451.84" y="270.09" width="4.19" height="0.99" style="fill: rgb(199, 199, 199); transform-origin: 453.935px 270.585px;" id="elaeblj4bm52b" class="animable"></rect><rect x="451.84" y="274.7" width="4.19" height="0.99" style="fill: rgb(199, 199, 199); transform-origin: 453.935px 275.195px;" id="eliswx96cs7o" class="animable"></rect><rect x="451.84" y="279.3" width="4.19" height="0.99" style="fill: rgb(199, 199, 199); transform-origin: 453.935px 279.795px;" id="el3195gxc8805" class="animable"></rect><rect x="451.84" y="283.89" width="4.19" height="0.99" style="fill: rgb(199, 199, 199); transform-origin: 453.935px 284.385px;" id="ellwvsjiq07y" class="animable"></rect><rect x="451.84" y="288.49" width="4.19" height="0.99" style="fill: rgb(199, 199, 199); transform-origin: 453.935px 288.985px;" id="elznfvj68m02j" class="animable"></rect><rect x="451.84" y="293.09" width="4.19" height="0.99" style="fill: rgb(199, 199, 199); transform-origin: 453.935px 293.585px;" id="elv09h7w3154" class="animable"></rect><rect x="448.93" y="297.68" width="7.1" height="1" style="fill: rgb(199, 199, 199); transform-origin: 452.48px 298.18px;" id="elpp9k06do6i" class="animable"></rect><rect x="451.84" y="302.28" width="4.19" height="0.99" style="fill: rgb(199, 199, 199); transform-origin: 453.935px 302.775px;" id="elgfjghtwh5un" class="animable"></rect><rect x="451.84" y="306.88" width="4.19" height="0.99" style="fill: rgb(199, 199, 199); transform-origin: 453.935px 307.375px;" id="el4x1md880mk3" class="animable"></rect><rect x="451.84" y="311.49" width="4.19" height="0.99" style="fill: rgb(199, 199, 199); transform-origin: 453.935px 311.985px;" id="el9oc06m3pobd" class="animable"></rect><rect x="451.84" y="316.07" width="4.19" height="0.99" style="fill: rgb(199, 199, 199); transform-origin: 453.935px 316.565px;" id="elqzxuvsl7yfl" class="animable"></rect><rect x="451.84" y="320.68" width="4.19" height="0.99" style="fill: rgb(199, 199, 199); transform-origin: 453.935px 321.175px;" id="elwkpk07cikt" class="animable"></rect><rect x="451.84" y="325.28" width="4.19" height="0.99" style="fill: rgb(199, 199, 199); transform-origin: 453.935px 325.775px;" id="eleh30j5cg4w6" class="animable"></rect><rect x="448.93" y="329.87" width="7.1" height="0.99" style="fill: rgb(199, 199, 199); transform-origin: 452.48px 330.365px;" id="elsfue8oou5t" class="animable"></rect><rect x="451.84" y="334.47" width="4.19" height="0.99" style="fill: rgb(199, 199, 199); transform-origin: 453.935px 334.965px;" id="eln4qj1ief9al" class="animable"></rect><rect x="451.84" y="339.07" width="4.19" height="0.99" style="fill: rgb(199, 199, 199); transform-origin: 453.935px 339.565px;" id="el8xzobs7odae" class="animable"></rect><rect x="451.84" y="343.66" width="4.19" height="0.99" style="fill: rgb(199, 199, 199); transform-origin: 453.935px 344.155px;" id="elonewsse2dwe" class="animable"></rect><rect x="451.84" y="348.26" width="4.19" height="0.99" style="fill: rgb(199, 199, 199); transform-origin: 453.935px 348.755px;" id="el80bjkswgddk" class="animable"></rect><rect x="451.84" y="352.86" width="4.19" height="0.99" style="fill: rgb(199, 199, 199); transform-origin: 453.935px 353.355px;" id="elqqcoj32ls1" class="animable"></rect><rect x="451.84" y="357.45" width="4.19" height="1" style="fill: rgb(199, 199, 199); transform-origin: 453.935px 357.95px;" id="el30z6erm7c7z" class="animable"></rect><path d="M433.81,205.37l5.51-8.87-2.72-1.68a2.49,2.49,0,0,1-1.15-2.34,13.54,13.54,0,0,0,0-1.56,2.47,2.47,0,0,1,1.3-2.25l2.82-1.51L434.67,178l-2.82,1.51a2.47,2.47,0,0,1-2.59-.17,14,14,0,0,0-1.33-.82,2.49,2.49,0,0,1-1.31-2.25l.1-3.2-10.43-.32-.1,3.21a2.49,2.49,0,0,1-1.45,2.16c-.24.1-.46.22-.69.34s-.45.25-.67.38a2.47,2.47,0,0,1-2.59,0l-2.74-1.69-5.5,8.87,2.72,1.69a2.49,2.49,0,0,1,1.15,2.34,13.31,13.31,0,0,0-.05,1.55,2.47,2.47,0,0,1-1.3,2.25l-2.82,1.51,4.94,9.21L410,203a2.47,2.47,0,0,1,2.59.17q.64.44,1.32.81a2.47,2.47,0,0,1,1.31,2.25l-.09,3.21,10.43.32.1-3.2a2.5,2.5,0,0,1,1.45-2.16l.7-.34c.22-.13.45-.25.67-.39a2.48,2.48,0,0,1,2.6,0ZM425,198.78a8.55,8.55,0,1,1,3.5-11.58A8.54,8.54,0,0,1,425,198.78Z" style="fill: rgb(219, 219, 219); transform-origin: 420.91px 191.255px;" id="el34iqf7g1xsd" class="animable"></path><path d="M158.81,122.21l-3.66-6.34L153.21,117a1.73,1.73,0,0,1-1.82-.06,8,8,0,0,0-.95-.54,1.75,1.75,0,0,1-1-1.55V112.6h-7.32v2.24a1.73,1.73,0,0,1-1,1.55,8.92,8.92,0,0,0-.95.54,1.73,1.73,0,0,1-1.82.06l-1.94-1.12-3.66,6.34,1.95,1.12a1.74,1.74,0,0,1,.85,1.62c0,.18,0,.35,0,.54s0,.36,0,.53a1.72,1.72,0,0,1-.84,1.61l-2,1.13,3.66,6.34,1.95-1.13a1.75,1.75,0,0,1,1.82.07,8.78,8.78,0,0,0,.94.54,1.73,1.73,0,0,1,1,1.55v2.24h7.32v-2.24a1.75,1.75,0,0,1,1-1.55,7.9,7.9,0,0,0,.94-.54,1.77,1.77,0,0,1,1.83-.07l1.94,1.13,3.66-6.34-1.95-1.12A1.74,1.74,0,0,1,156,126c0-.18,0-.36,0-.54s0-.36,0-.54a1.74,1.74,0,0,1,.85-1.62Zm-7,3.28a6,6,0,1,1-6-6A6,6,0,0,1,151.81,125.49Z" style="fill: rgb(219, 219, 219); transform-origin: 145.76px 125.485px;" id="eluzrxjav7q6" class="animable"></path><path d="M101.08,251.59a28.5,28.5,0,1,0,28.49,28.49A28.49,28.49,0,0,0,101.08,251.59Zm0,41.8a13.31,13.31,0,1,1,13.31-13.31A13.3,13.3,0,0,1,101.08,293.39Z" style="fill: rgb(235, 235, 235); transform-origin: 101.07px 280.09px;" id="el9cy4msut7ot" class="animable"></path><polygon points="106.56 252.77 95.6 252.77 96.21 245.02 105.95 245.02 106.56 252.77" style="fill: rgb(235, 235, 235); transform-origin: 101.08px 248.895px;" id="eladgwa1elsc6" class="animable"></polygon><polygon points="85.7 256.47 77.95 264.21 72.9 258.3 79.79 251.41 85.7 256.47" style="fill: rgb(235, 235, 235); transform-origin: 79.3px 257.81px;" id="el55flag697o2" class="animable"></polygon><polygon points="73.57 273.82 73.57 284.78 65.81 284.17 65.81 274.43 73.57 273.82" style="fill: rgb(235, 235, 235); transform-origin: 69.69px 279.3px;" id="elgdgf1lauaga" class="animable"></polygon><polygon points="77.26 294.68 85.01 302.43 79.09 307.48 72.2 300.59 77.26 294.68" style="fill: rgb(235, 235, 235); transform-origin: 78.605px 301.08px;" id="el97nee8vfajl" class="animable"></polygon><polygon points="94.61 306.81 105.57 306.81 104.97 314.57 95.22 314.57 94.61 306.81" style="fill: rgb(235, 235, 235); transform-origin: 100.09px 310.69px;" id="elmxmby80kscl" class="animable"></polygon><polygon points="115.47 303.12 123.22 295.38 128.27 301.29 121.38 308.18 115.47 303.12" style="fill: rgb(235, 235, 235); transform-origin: 121.87px 301.78px;" id="elk9q6yb9y4kc" class="animable"></polygon><polygon points="127.61 285.76 127.61 274.81 135.36 275.41 135.36 285.16 127.61 285.76" style="fill: rgb(235, 235, 235); transform-origin: 131.485px 280.285px;" id="elk3dw542sbo" class="animable"></polygon><polygon points="123.92 264.91 116.17 257.16 122.08 252.11 128.97 259 123.92 264.91" style="fill: rgb(235, 235, 235); transform-origin: 122.57px 258.51px;" id="elnm6m2yptwob" class="animable"></polygon><path d="M372.31,67.29A28.49,28.49,0,1,0,400.8,95.78,28.48,28.48,0,0,0,372.31,67.29Zm0,41.79a13.31,13.31,0,1,1,13.31-13.3A13.3,13.3,0,0,1,372.31,109.08Z" style="fill: rgb(235, 235, 235); transform-origin: 372.31px 95.78px;" id="elhmiir4q2lvp" class="animable"></path><polygon points="377.79 68.47 366.83 68.47 367.44 60.71 377.18 60.71 377.79 68.47" style="fill: rgb(235, 235, 235); transform-origin: 372.31px 64.59px;" id="ellz5z4i8118" class="animable"></polygon><polygon points="356.93 72.16 349.19 79.91 344.13 73.99 351.02 67.1 356.93 72.16" style="fill: rgb(235, 235, 235); transform-origin: 350.53px 73.505px;" id="elbylmk8f4yzs" class="animable"></polygon><polygon points="344.8 89.52 344.8 100.47 337.04 99.87 337.04 90.12 344.8 89.52" style="fill: rgb(235, 235, 235); transform-origin: 340.92px 94.995px;" id="el5n58pwvyunt" class="animable"></polygon><polygon points="348.49 110.37 356.24 118.12 350.32 123.17 343.43 116.28 348.49 110.37" style="fill: rgb(235, 235, 235); transform-origin: 349.835px 116.77px;" id="elhkpguiu3ycf" class="animable"></polygon><polygon points="365.85 122.51 376.8 122.51 376.2 130.26 366.45 130.26 365.85 122.51" style="fill: rgb(235, 235, 235); transform-origin: 371.325px 126.385px;" id="elpsrwleyns5" class="animable"></polygon><polygon points="386.7 118.81 394.45 111.07 399.5 116.98 392.61 123.87 386.7 118.81" style="fill: rgb(235, 235, 235); transform-origin: 393.1px 117.47px;" id="elaodk5kc4qx9" class="animable"></polygon><polygon points="398.84 101.46 398.84 90.5 406.59 91.11 406.59 100.85 398.84 101.46" style="fill: rgb(235, 235, 235); transform-origin: 402.715px 95.98px;" id="elyd5me5qju9e" class="animable"></polygon><polygon points="395.14 80.6 387.4 72.86 393.31 67.8 400.2 74.69 395.14 80.6" style="fill: rgb(235, 235, 235); transform-origin: 393.8px 74.2px;" id="el25vlkodcoji" class="animable"></polygon><rect x="59.98" width="1" height="91.87" style="fill: rgb(199, 199, 199); transform-origin: 60.48px 45.935px;" id="eljk4744s67uf" class="animable"></rect><rect x="55.79" y="86.56" width="9.39" height="10.16" style="fill: rgb(219, 219, 219); transform-origin: 60.485px 91.64px;" id="elp48rlnbpps" class="animable"></rect><path d="M79.69,129.16H41.27c.77-14.62,7.74-38,19.21-38S78.93,114.54,79.69,129.16Z" style="fill: rgb(219, 219, 219); transform-origin: 60.48px 110.16px;" id="elgcoicohd0vb" class="animable"></path><rect x="111.75" width="1" height="66.77" style="fill: rgb(199, 199, 199); transform-origin: 112.25px 33.385px;" id="el3omsg24um9f" class="animable"></rect><rect x="107.56" y="61.47" width="9.39" height="10.16" style="fill: rgb(219, 219, 219); transform-origin: 112.255px 66.55px;" id="elo41g6y7c16l" class="animable"></rect><path d="M131.47,104.06H93c.78-14.61,7.75-38,19.21-38S130.7,89.45,131.47,104.06Z" style="fill: rgb(219, 219, 219); transform-origin: 112.235px 85.06px;" id="elrr9vrb884kp" class="animable"></path></g><g id="freepik--Shadow--inject-126" class="animable" style="transform-origin: 250px 437.76px;"><ellipse cx="250" cy="437.76" rx="195.98" ry="21.13" style="fill: rgb(235, 235, 235); transform-origin: 250px 437.76px;" id="ely2jsekgozt" class="animable"></ellipse></g><g id="freepik--Floor--inject-126" class="animable" style="transform-origin: 250px 367.14px;"><polygon points="38.37 367.14 91.28 366.9 144.18 366.81 250 366.64 355.82 366.81 408.73 366.9 461.63 367.14 408.73 367.39 355.82 367.48 250 367.64 144.18 367.47 91.28 367.38 38.37 367.14" style="fill: rgb(38, 50, 56); transform-origin: 250px 367.14px;" id="el4gxnoaxh1xn" class="animable"></polygon></g><g id="freepik--light-bulb--inject-126" class="animable animator-active" style="transform-origin: 250px 235.679px;"><path d="M288.11,338.9l.06,12.81-.06-.06,12.35,0h.11v.11l.07,15.73v.18h-.19l-12.35.06.24-.24,0,12.82-.26-.27h6.54v.28l0,15.72v.3h-9.36l.28-.18a30.66,30.66,0,0,1-14.78,14.77,31.17,31.17,0,0,1-10.24,2.78c-1.77.17-3.55.16-5.3.16H244.73a52.56,52.56,0,0,1-5.31-.15,31.3,31.3,0,0,1-10.26-2.75,31.85,31.85,0,0,1-8.73-6.08,31.35,31.35,0,0,1-6.14-8.69l.4.25-9.06,0h-.46V396l0-15.72v-.48h6.75l-.49.49V367.44l.49.49-12.35,0h-.47v-.47l0-15.73v-.45h.45l12.35,0-.42.43,0-12.81.4.41-12.35,0h-.39v-.39l0-15.73v-.37h.37l50.46.08,50.46.16h.13v.13l-.07,15.73V339h-.06Zm0,0,12.35-.06,0,.06-.07-15.73.12.12-50.46.16-50.46.08.36-.36,0,15.73-.38-.39,12.35,0h.41v.41l0,12.81v.42h-.43l-12.35,0,.44-.44,0,15.73-.47-.47,12.35,0h.49v13.8h-6.75l.48-.48,0,15.72-.45-.46,9.06,0H215l.12.25a30.84,30.84,0,0,0,5.94,8.47,31.55,31.55,0,0,0,8.48,5.94,30.7,30.7,0,0,0,10,2.71c1.72.17,3.46.16,5.23.16h10.54c1.77,0,3.51,0,5.24-.14a30.6,30.6,0,0,0,10-2.69A29.93,29.93,0,0,0,285,395.85l.08-.18h9.26l-.3.3,0-15.72.27.27h-6.53v-.26l0-12.82v-.24h.24l12.35.06-.18.18.07-15.73.11.11-12.35-.05h-.06v-.05Z" style="fill: rgb(38, 50, 56); transform-origin: 249.87px 368.352px;" id="el6m1opmi8hdh" class="animable"></path><g id="elk6yar90i0nn"><circle cx="250" cy="216.56" r="112.49" style="fill: rgb(255, 255, 255); transform-origin: 250px 216.56px; transform: rotate(-45deg);" class="animable"></circle></g><path d="M250,329.55a113,113,0,1,1,113-113A113.12,113.12,0,0,1,250,329.55Zm0-225a112,112,0,1,0,112,112A112.14,112.14,0,0,0,250,104.56Z" style="fill: rgb(38, 50, 56); transform-origin: 250px 216.55px;" id="elufw7lf0mjq" class="animable"></path><path d="M362.49,216.56a112.43,112.43,0,0,1-56.79,97.75c-8.33-2.68-14.53-8.95-20.74-15.22-4.47-4.52,6.43-6.37-.18-8.76,6.43-6.37,14.92-19.24,4-17.39-6.61-2.4-10.72,10.61-19.56,6S258,263.22,249.11,258.57l-8.58,8.49c-6.62-2.41-11.28-15.68-13.42-13.56-10.9,1.84-17.24,12.59-25.81,21.07-4.48-4.51-11.09-6.9-9-13.41,40.36-45.06,80-92.29,121.78-137.1A112.37,112.37,0,0,1,362.49,216.56Z" style="fill: rgb(0, 135, 90); transform-origin: 277.196px 219.185px;" id="ell9eod9ye78" class="animable"></path><path d="M261.65,336h-2V264.61c-2.7,0-7.24.05-9.27.05h-.76c-2,0-6.56,0-9.27-.05V336h-2V262.58l1,0c2.2,0,7.46.06,10.25.06h.76c2.79,0,8.05,0,10.25-.06l1,0Z" style="fill: rgb(38, 50, 56); transform-origin: 250px 299.29px;" id="el6p7u2j91ri5" class="animable"></path><path d="M259.65,264.62V241.2c0-8.65,4.78-14.87,12.18-15.85,7-.92,16,3.57,19.21,15.59,2.08,7.72,1.78,13-.92,16.57-4.23,5.6-14,6.84-29.46,7.09Zm14-37.38a11.17,11.17,0,0,0-1.54.1c-6.34.83-10.44,6.27-10.44,13.86v21.38c13.9-.27,23.24-1.47,26.87-6.27,2.3-3.06,2.49-7.77.59-14.85C286.44,231.49,279.51,227.24,273.63,227.24Z" style="fill: rgb(38, 50, 56); transform-origin: 276.026px 244.927px;" id="el2o33dukptqf" class="animable"></path><path d="M240.35,264.62l-1,0c-15.45-.25-25.22-1.49-29.44-7.09-2.71-3.58-3-8.85-.94-16.57,3.23-12,12.23-16.51,19.23-15.59,7.39,1,12.17,7.2,12.17,15.85Zm-14-37.38c-5.88,0-12.81,4.25-15.49,14.22-1.89,7.08-1.7,11.79.6,14.85,3.63,4.8,13,6,26.87,6.27V241.2c0-7.59-4.1-13-10.44-13.86A11.17,11.17,0,0,0,226.37,227.24Z" style="fill: rgb(38, 50, 56); transform-origin: 223.996px 244.937px;" id="eligv8lrhl4d7" class="animable"></path><rect x="226.41" y="306.46" width="47.18" height="24.69" rx="9.42" style="fill: rgb(166, 166, 166); transform-origin: 250px 318.805px;" id="elek4pj1tyjna" class="animable"></rect><path d="M169.25,136.81a113.06,113.06,0,0,1,36.94-24.63,117.13,117.13,0,0,1,43.56-8.8,115.56,115.56,0,0,1,43.71,8.15,110.78,110.78,0,0,1,37.18,24.39A112,112,0,0,1,355.2,173a118.29,118.29,0,0,1,.38,87.51,110.22,110.22,0,0,1-61.41,62A115.68,115.68,0,0,1,250.42,331a117.12,117.12,0,0,1-43.71-8.54A112.49,112.49,0,0,1,144.81,261a115.37,115.37,0,0,1-.14-87.22A112.06,112.06,0,0,1,169.25,136.81Zm0,0a112.08,112.08,0,0,0-24.47,37,115.16,115.16,0,0,0,.38,87,112.09,112.09,0,0,0,61.78,61,116.56,116.56,0,0,0,43.48,8.37,114.92,114.92,0,0,0,43.42-8.48,110.71,110.71,0,0,0,60.92-61.54,117.51,117.51,0,0,0-.14-87,110.11,110.11,0,0,0-61.3-61.38,115.16,115.16,0,0,0-43.56-8.24,116.82,116.82,0,0,0-43.52,8.66A113.12,113.12,0,0,0,169.25,136.81Z" style="fill: rgb(38, 50, 56); transform-origin: 249.981px 217.188px;" id="elsun41mpg1mr" class="animable"></path><path d="M363.49,217.56a112.93,112.93,0,0,0-8.82-43.49A116.74,116.74,0,0,0,330,137.17a115.31,115.31,0,0,0-36.63-25A110.47,110.47,0,0,0,250,103.31a111.6,111.6,0,0,0-43.36,8.94,117.58,117.58,0,0,0-61.58,61.39,110.67,110.67,0,0,0-.44,86.59,114.92,114.92,0,0,0,24.7,36.7A116.57,116.57,0,0,0,206,321.75a111.94,111.94,0,0,0,86.82.56A115.09,115.09,0,0,0,354.62,261,112.07,112.07,0,0,0,363.49,217.56Zm0,0a112,112,0,0,1-8.76,43.52A115.44,115.44,0,0,1,293,322.66a112.49,112.49,0,0,1-87.21-.33,117,117,0,0,1-37-24.87,115.71,115.71,0,0,1-25-36.89,110.14,110.14,0,0,1,.45-87.28,118.28,118.28,0,0,1,62.14-61.61,110.58,110.58,0,0,1,87.14.17A115.44,115.44,0,0,1,330.2,137a117,117,0,0,1,24.59,37A113.2,113.2,0,0,1,363.49,217.56Z" style="fill: rgb(38, 50, 56); transform-origin: 249.244px 217.055px;" id="elub86kug9uid" class="animable"></path><path d="M249,332.67a114.78,114.78,0,0,0,44.11-8.94,118.44,118.44,0,0,0,37.42-25,116.75,116.75,0,0,0,25.34-37.16,111.88,111.88,0,0,0,9-44,113.06,113.06,0,0,0-9.07-44,119.19,119.19,0,0,0-62.26-62.46,112.27,112.27,0,0,0-87.83-.45,116.75,116.75,0,0,0-37.22,25.06,118.3,118.3,0,0,0-25.18,37.19,113.57,113.57,0,0,0-.56,88.05,116.78,116.78,0,0,0,62.15,62.69A113.56,113.56,0,0,0,249,332.67Zm0,0a113.84,113.84,0,0,1-44.14-8.88,117.08,117.08,0,0,1-62.44-62.66,114,114,0,0,1,.33-88.45A118.85,118.85,0,0,1,168,135.21a117.38,117.38,0,0,1,37.41-25.34,111.74,111.74,0,0,1,88.52.46,120,120,0,0,1,62.48,63,112.1,112.1,0,0,1-.17,88.37,117.29,117.29,0,0,1-25.5,37.19,118.69,118.69,0,0,1-37.55,24.93A114.66,114.66,0,0,1,249,332.67Z" style="fill: rgb(38, 50, 56); transform-origin: 249.528px 216.815px;" id="el93h4ylxj56l" class="animable"></path><path d="M213.08,323.87h73.84a0,0,0,0,1,0,0V383a29.52,29.52,0,0,1-29.52,29.52H242.6A29.52,29.52,0,0,1,213.08,383V323.87A0,0,0,0,1,213.08,323.87Z" style="fill: rgb(69, 90, 100); transform-origin: 250px 368.195px;" id="el1iridgdtzvj" class="animable"></path><rect x="201.11" y="323.87" width="97.79" height="15.45" style="fill: rgb(55, 71, 79); transform-origin: 250.005px 331.595px;" id="el026xgnmx7hke" class="animable"></rect><rect x="201.11" y="351.9" width="97.79" height="15.45" style="fill: rgb(55, 71, 79); transform-origin: 250.005px 359.625px;" id="el1ou2j2s5yco" class="animable"></rect><rect x="207.01" y="379.94" width="85.98" height="15.45" style="fill: rgb(55, 71, 79); transform-origin: 250px 387.665px;" id="elwmkragehcro" class="animable"></rect><path d="M343.43,218.91a5,5,0,0,1-5-5c0-52.54-51.67-82.89-52.19-83.19a5,5,0,1,1,5-8.67,132.51,132.51,0,0,1,28.55,23.64c18.76,20.38,28.67,44,28.67,68.22A5,5,0,0,1,343.43,218.91Z" style="fill: rgb(255, 255, 255); transform-origin: 316.096px 170.144px;" id="elmkw8hhr8wnr" class="animable"></path><circle cx="342.21" cy="238.09" r="5.97" style="fill: rgb(255, 255, 255); transform-origin: 342.21px 238.09px;" id="elculom4frvd" class="animable"></circle></g><g id="freepik--Measures--inject-126" class="animable" style="transform-origin: 262.855px 256.43px;"><path d="M202.19,420.52l11.95-.23,12-.13,23.9-.11,23.9.11c8,.08,15.94.17,23.91.36v.06c-8,.19-15.94.28-23.91.36l-23.9.11-23.9-.11-12-.14-11.95-.22Z" style="fill: rgb(38, 50, 56); transform-origin: 250.02px 420.55px;" id="el23nbrnl8bd6" class="animable"></path><polygon points="205.5 424.64 206.19 423.91 202.57 420.55 206.19 417.19 205.5 416.46 201.11 420.55 205.5 424.64" style="fill: rgb(38, 50, 56); transform-origin: 203.65px 420.55px;" id="elfq8n4uls6w5" class="animable"></polygon><polygon points="294.5 424.64 293.81 423.91 297.43 420.55 293.81 417.19 294.5 416.46 298.89 420.55 294.5 424.64" style="fill: rgb(38, 50, 56); transform-origin: 296.35px 420.55px;" id="el09snztop2wsy" class="animable"></polygon><polygon points="138.59 89.2 166.44 88.96 194.29 88.83 250 88.71 305.7 88.83 333.56 88.96 361.41 89.2 361.41 89.22 333.56 89.46 305.7 89.6 250 89.71 194.29 89.6 166.44 89.46 138.59 89.22 138.59 89.2" style="fill: rgb(38, 50, 56); transform-origin: 250px 89.21px;" id="el55hisf5ptto" class="animable"></polygon><polygon points="141.9 93.3 142.59 92.57 138.97 89.21 142.59 85.86 141.9 85.12 137.5 89.21 141.9 93.3" style="fill: rgb(38, 50, 56); transform-origin: 140.045px 89.21px;" id="ellg05t41wj3j" class="animable"></polygon><polygon points="358.1 93.3 357.42 92.57 361.03 89.21 357.42 85.86 358.1 85.12 362.5 89.21 358.1 93.3" style="fill: rgb(38, 50, 56); transform-origin: 359.96px 89.21px;" id="ellqneg9dwh5l" class="animable"></polygon><path d="M178.51,411.45c-.19-7.2-.28-14.41-.36-21.62L178,368.2l.11-21.62c.08-7.21.17-14.42.36-21.63h.06c.19,7.21.28,14.42.36,21.63L179,368.2l-.11,21.63c-.08,7.21-.17,14.42-.36,21.62Z" style="fill: rgb(38, 50, 56); transform-origin: 178.5px 368.2px;" id="elxh8cwnre7kd" class="animable"></path><polygon points="182.63 408.14 181.9 407.46 178.54 411.07 175.18 407.46 174.45 408.14 178.54 412.54 182.63 408.14" style="fill: rgb(38, 50, 56); transform-origin: 178.54px 410px;" id="el52rptmimzan" class="animable"></polygon><polygon points="182.63 328.27 181.9 328.95 178.54 325.34 175.18 328.95 174.45 328.27 178.54 323.87 182.63 328.27" style="fill: rgb(38, 50, 56); transform-origin: 178.54px 326.41px;" id="ellilxxly2kgp" class="animable"></polygon><polygon points="368.83 411.45 368.59 373.17 368.5 334.88 368.34 258.3 368.5 181.72 368.59 143.44 368.83 105.15 368.84 105.15 369.09 143.44 369.17 181.72 369.33 258.3 369.17 334.88 369.08 373.17 368.84 411.45 368.83 411.45" style="fill: rgb(38, 50, 56); transform-origin: 368.835px 258.3px;" id="elimubfmi99n" class="animable"></polygon><polygon points="372.93 408.14 372.19 407.46 368.84 411.07 365.48 407.46 364.75 408.14 368.84 412.54 372.93 408.14" style="fill: rgb(38, 50, 56); transform-origin: 368.84px 410px;" id="elti02inb42je" class="animable"></polygon><polygon points="372.93 108.46 372.19 109.14 368.84 105.53 365.48 109.14 364.75 108.46 368.84 104.06 372.93 108.46" style="fill: rgb(38, 50, 56); transform-origin: 368.84px 106.6px;" id="elp553nhawueq" class="animable"></polygon><path d="M222.65,323.87c-5.19.2-10.38.3-15.57.38s-10.38.08-15.57.12-10.39,0-15.58-.12l-7.78-.14c-2.6-.08-5.19-.13-7.79-.24,2.6-.12,5.19-.16,7.79-.25l7.78-.14c5.19-.08,10.39-.07,15.58-.11s10.38,0,15.57.12S217.46,323.66,222.65,323.87Z" style="fill: rgb(38, 50, 56); transform-origin: 191.505px 323.87px;" id="elf4fymuztz4m" class="animable"></path><path d="M241.85,412.54c-6.79.21-13.58.3-20.37.38s-13.58.08-20.37.12l-20.38-.12-10.18-.14c-3.4-.08-6.79-.13-10.19-.24,3.4-.11,6.79-.16,10.19-.25l10.18-.14,20.38-.11c6.79,0,13.58,0,20.37.12S235.06,412.33,241.85,412.54Z" style="fill: rgb(38, 50, 56); transform-origin: 201.105px 412.54px;" id="ellmfn3yu36qg" class="animable"></path><path d="M201.11,323.87c.2,9.21.3,18.43.38,27.64l.12,27.65-.12,27.64-.14,13.83-.24,13.82-.25-13.82-.14-13.83-.11-27.64.11-27.65C200.8,342.3,200.9,333.08,201.11,323.87Z" style="fill: rgb(38, 50, 56); transform-origin: 201.11px 379.16px;" id="elplpgxtijw" class="animable"></path><path d="M298.89,323.87c.21,9.21.31,18.43.39,27.64l.11,27.65-.11,27.64-.14,13.83-.25,13.82-.24-13.82-.14-13.83-.12-27.64.12-27.65C298.59,342.3,298.69,333.08,298.89,323.87Z" style="fill: rgb(38, 50, 56); transform-origin: 298.89px 379.16px;" id="el18xt4asejos" class="animable"></path><path d="M255,412.54c11.14-.21,22.28-.3,33.42-.38l33.43-.12,33.42.11,16.72.14,16.71.25-16.71.24-16.72.14-33.42.12-33.43-.12C277.31,412.84,266.17,412.75,255,412.54Z" style="fill: rgb(38, 50, 56); transform-origin: 321.85px 412.54px;" id="el3pj3pph1hhk" class="animable"></path><path d="M255,104.06c11.14-.2,22.28-.3,33.42-.38l33.43-.11,33.42.11,16.72.14,16.71.24-16.71.25-16.72.14-33.42.11-33.43-.11C277.31,104.37,266.17,104.27,255,104.06Z" style="fill: rgb(38, 50, 56); transform-origin: 321.85px 104.065px;" id="ele6g1tq14ppe" class="animable"></path><polygon points="137.5 412.54 137.26 370.77 137.17 329.01 137.01 245.47 137.17 161.94 137.26 120.17 137.5 78.41 137.75 120.17 137.84 161.94 138 245.47 137.84 329.01 137.75 370.77 137.5 412.54" style="fill: rgb(38, 50, 56); transform-origin: 137.505px 245.475px;" id="el8gxs6t3opin" class="animable"></polygon><polygon points="362.5 412.54 362.25 370.77 362.16 329.01 362 245.47 362.16 161.94 362.25 120.17 362.5 78.41 362.74 120.17 362.83 161.94 362.99 245.47 362.83 329.01 362.74 370.77 362.5 412.54" style="fill: rgb(38, 50, 56); transform-origin: 362.495px 245.475px;" id="elww3nz1rxczm" class="animable"></polygon></g><g id="freepik--Character--inject-126" class="animable" style="transform-origin: 138.539px 289.129px;"><path d="M47.49,383.06s-1,39.61-1,39.64c0,7.32.17,13.74.56,17.05a.13.13,0,0,0,0,.06,5.12,5.12,0,0,0,.55,2.26l0,0c2.18,1.47,60.7,3,62.76,2.36s.42-6.56-1.81-8.43-24.38-12.47-24.38-12.47L84.86,384Z" style="fill: rgb(211, 118, 106); transform-origin: 78.8965px 413.82px;" id="el9h6h8acbzp9" class="animable"></path><path d="M46.42,414.84s.07,7.83.07,7.86c0,7.32.17,13.74.56,17.05a.13.13,0,0,0,0,.06,9.9,9.9,0,0,0,.55,2.26l0,0c2.18,1.47,60.7,3,62.76,2.36s.42-6.56-1.81-8.43-24.38-12.47-24.38-12.47l0-8Z" style="fill: rgb(255, 255, 255); transform-origin: 78.8614px 429.71px;" id="elehydptdruoh" class="animable"></path><path d="M87.81,423.59c-3.9-.64-8.63.06-11.54,2.89-.11.11,0,.26.17.22a54.41,54.41,0,0,1,11.37-2.62A.25.25,0,0,0,87.81,423.59Z" style="fill: rgb(38, 50, 56); transform-origin: 82.1181px 425.039px;" id="elizwd02rsqm" class="animable"></path><path d="M90.65,425.22c-3.9-.64-8.63.06-11.54,2.88-.11.11,0,.27.17.23a54.46,54.46,0,0,1,11.36-2.62A.25.25,0,0,0,90.65,425.22Z" style="fill: rgb(38, 50, 56); transform-origin: 84.9557px 426.668px;" id="el7fev91xcp08" class="animable"></path><path d="M93.49,426.85c-3.9-.64-8.64,0-11.54,2.88-.12.11,0,.27.17.23a54.46,54.46,0,0,1,11.36-2.62A.25.25,0,0,0,93.49,426.85Z" style="fill: rgb(38, 50, 56); transform-origin: 87.7935px 428.295px;" id="elcfgu263cuou" class="animable"></path><path d="M110.41,444.47c-2.06.63-60.57-.89-62.76-2.36-.84-.55-1.12-9.08-1.16-19.41,0-.11,0-.22,0-.33l37.76.56,0,.64s22.13,10.6,24.37,12.48S112.48,443.84,110.41,444.47Z" style="fill: rgb(55, 71, 79); transform-origin: 78.9272px 433.493px;" id="elafw4a6ei5dg" class="animable"></path><path d="M46.49,422.37v.33c0,10.33.31,18.87,1.16,19.41S61.32,443.46,75,444c16.4.58,34.26.87,35.39.52,2.06-.63.4-6.56-1.82-8.43s-24.37-12.47-24.37-12.47l0-.63-12.59-.19Z" style="fill: rgb(0, 135, 90); transform-origin: 78.9092px 433.521px;" id="elhttgndfl8a" class="animable"></path><path d="M109.81,442.18c-9.86-.5-49.66-1.58-59.44-1.32-.08,0-.09.06,0,.06,9.76.71,49.58,1.47,59.45,1.42C110,442.34,110,442.19,109.81,442.18Z" style="fill: rgb(38, 50, 56); transform-origin: 80.13px 441.581px;" id="elrzacyxwqbhl" class="animable"></path><g id="el8lxp59kz4gi"><path d="M71.67,422.75C72.59,429.07,74,438.39,75,444c16.4.58,34.26.87,35.39.52,2.06-.63.4-6.56-1.82-8.43s-24.37-12.47-24.37-12.47l0-.63Z" style="opacity: 0.1; transform-origin: 91.4992px 433.711px;" class="animable"></path></g><path d="M43.09,422.91l42.34.41s2.41-68.95,2.59-91.94c.21-26.27-1.28-105-1.28-105H55.08s-8.5,17.36-3.64,36.9l1.34,70.29Z" style="fill: rgb(55, 71, 79); transform-origin: 65.5651px 324.85px;" id="elshb7kclh3g" class="animable"></path><path d="M46.23,415.5a31.45,31.45,0,0,1,3.37-.27c1.25-.09,2.5-.18,3.75-.24,2.41-.1,4.82-.14,7.23-.15,4.86,0,9.73,0,14.59.17,2.76.09,5.53.2,8.29.36.11,0,.1.17,0,.17-4.82.18-9.64.25-14.46.34s-9.65.19-14.46.1c-1.38,0-2.76,0-4.14-.12s-2.8,0-4.15-.2C46.16,415.65,46.13,415.52,46.23,415.5Z" style="fill: rgb(38, 50, 56); transform-origin: 64.8532px 415.428px;" id="el8mhkeo9keli" class="animable"></path><path d="M82.38,377.44c.5-11.4.86-22.81,1.17-34.21q.95-34.23.5-68.47c-.16-12.8-.51-25.6-.89-38.4,0-.15.22-.14.23,0,1.21,22.91,1.67,45.87,1.7,68.81s-.45,45.65-1.58,68.45c-.63,12.79-1.41,25.6-2.62,38.35a.09.09,0,0,1-.17,0C81.24,400.46,81.89,389,82.38,377.44Z" style="fill: rgb(38, 50, 56); transform-origin: 82.9057px 324.141px;" id="elfqpeadobpm" class="animable"></path><path d="M92.79,389.35s.33,38.29.33,38.31c0,7.33.17,13.75.56,17.06a.09.09,0,0,0,0,0,5.13,5.13,0,0,0,.54,2.26l0,.05c2.18,1.47,60.7,3,62.76,2.35s.41-6.55-1.81-8.42-24.38-12.47-24.38-12.47l-.69-38.27Z" style="fill: rgb(211, 118, 106); transform-origin: 125.355px 419.442px;" id="ellpy7yfb3nxc" class="animable"></path><path d="M93.05,419.8s.07,7.84.07,7.86c0,7.33.17,13.75.56,17.06a.09.09,0,0,0,0,0,10,10,0,0,0,.54,2.26l0,.05c2.18,1.47,60.7,3,62.76,2.35s.41-6.55-1.81-8.42-24.38-12.47-24.38-12.47l0-8Z" style="fill: rgb(255, 255, 255); transform-origin: 125.485px 434.667px;" id="el949mdni52hq" class="animable"></path><path d="M134.44,428.56c-3.9-.64-8.64.05-11.54,2.88-.12.11,0,.27.17.23a54.46,54.46,0,0,1,11.36-2.62A.25.25,0,0,0,134.44,428.56Z" style="fill: rgb(38, 50, 56); transform-origin: 128.744px 430.008px;" id="elhpdwm6q6jjf" class="animable"></path><path d="M137.27,430.19c-3.89-.64-8.63.05-11.54,2.88-.11.11,0,.27.17.23a54.7,54.7,0,0,1,11.37-2.62A.25.25,0,0,0,137.27,430.19Z" style="fill: rgb(38, 50, 56); transform-origin: 131.578px 431.638px;" id="elgocjel88r05" class="animable"></path><path d="M140.11,431.82c-3.89-.65-8.63.05-11.54,2.88-.11.11.05.27.17.23a54.7,54.7,0,0,1,11.37-2.62A.25.25,0,0,0,140.11,431.82Z" style="fill: rgb(38, 50, 56); transform-origin: 134.422px 433.266px;" id="eldo0k9y0r8m" class="animable"></path><path d="M157,449.43c-2.06.64-60.58-.88-62.77-2.35-.84-.55-1.11-9.09-1.15-19.41v-.33l37.76.56,0,.64S153,439.14,155.23,441,159.1,448.81,157,449.43Z" style="fill: rgb(0, 135, 90); transform-origin: 125.525px 438.46px;" id="elngyy98clwxp" class="animable"></path><path d="M156.44,447.15c-9.86-.5-49.67-1.58-59.45-1.32-.08,0-.08.05,0,.06,9.76.71,49.57,1.46,59.44,1.42C156.64,447.31,156.65,447.16,156.44,447.15Z" style="fill: rgb(38, 50, 56); transform-origin: 126.761px 446.551px;" id="elvcbcb5koys" class="animable"></path><path d="M73.45,266.86s17.37,54.76,17.68,64.82c.27,8.58-.83,96.62-.83,96.62l44,.26s-3.72-89.78-4.4-98.72c-1.29-16.72-15.93-62.62-26.41-103.51H56.06s.41,21.42,10.15,36.9C66.21,263.23,70.62,265.27,73.45,266.86Z" style="fill: rgb(55, 71, 79); transform-origin: 95.18px 327.445px;" id="ellepiqpyquu" class="animable"></path><path d="M92.64,420.19c5.08-.15,10.35-.3,15.43-.17s10.09.2,15.12.5c2.86.17,5.71.27,8.56.55a.08.08,0,0,1,0,.15c-5.07.3-10.17.24-15.26.19s-10.08-.1-15.12-.33c-2.86-.13-5.71-.27-8.56-.47C92.49,420.59,92.33,420.2,92.64,420.19Z" style="fill: rgb(38, 50, 56); transform-origin: 112.138px 420.711px;" id="el6715huf1r4" class="animable"></path><path d="M102.26,252.13c1.56,5.23,2.89,10.54,4.29,15.82s2.82,10.64,4.22,16c2.71,10.3,5.39,20.61,7.43,31.07a188.4,188.4,0,0,1,3.51,31.85c.24,10.9,0,21.82-.07,32.72s-.16,21.93-.35,32.89c0,1.36-.06,2.72-.11,4.09,0,.13-.2.12-.2,0-.29-10.9-.14-21.83-.1-32.73s.18-21.82.09-32.72a197.6,197.6,0,0,0-2.8-32.31c-1.84-10.49-4.42-20.83-7.1-31.14-1.53-5.88-3.08-11.75-4.6-17.63s-3.18-11.83-4.53-17.79A.17.17,0,0,1,102.26,252.13Z" style="fill: rgb(38, 50, 56); transform-origin: 111.872px 334.342px;" id="ell73d9g8sk2m" class="animable"></path><path d="M84.32,267.92a39.74,39.74,0,0,1-6.53-.59,63.14,63.14,0,0,1-6.33-1.76,49.45,49.45,0,0,0-6.2-1,21.86,21.86,0,0,1-6.08-1.81c-.09-.05-.17.09-.08.13a38,38,0,0,0,5.83,2.53c2.09.66,4.27.75,6.38,1.27a52.38,52.38,0,0,0,6.51,1.49,23,23,0,0,0,6.53-.11C84.43,268.05,84.4,267.92,84.32,267.92Z" style="fill: rgb(38, 50, 56); transform-origin: 71.7288px 265.555px;" id="elzpkjes62237" class="animable"></path><path d="M87.1,311.48c-.42-1.63-.81-3.25-1.25-4.87-.89-3.27-1.8-6.54-2.78-9.78-2-6.44-3.82-12.92-5.9-19.32-1.17-3.64-2.23-7.32-3.61-10.88a.07.07,0,0,0-.14.05c.69,3.32,1.68,6.57,2.56,9.84s1.82,6.53,2.76,9.79c1.88,6.46,3.71,12.94,5.76,19.36.58,1.8,1.17,3.59,1.79,5.38s1.13,3.7,1.89,5.47a.08.08,0,0,0,.16,0C88,314.79,87.52,313.14,87.1,311.48Z" style="fill: rgb(38, 50, 56); transform-origin: 80.8779px 291.591px;" id="el67lip0opo27" class="animable"></path><path d="M90.93,177.72c9.48,14,23.76,32.94,28.63,30.17,12.46-7.08,26.82-28.37,29.35-33.73,1.47-3.11-18.89-18.45-20.9-15.36-2.35,3.61-12.17,22.73-13.79,23.18-1.23.34-13.1-9.71-17-11.79C87.52,165.06,86.53,171.24,90.93,177.72Z" style="fill: rgb(211, 118, 106); transform-origin: 118.707px 183.277px;" id="elvgxjg6eztub" class="animable"></path><path d="M124.2,163.54l24.29,15.57s-21.1,29.28-30.35,29.32c-5.4,0-20.85-18-27.57-29.63-7.33-12.73,1.27-12.9,8.26-8.11,5.56,3.81,14.6,10.76,15,10.41S124.2,163.54,124.2,163.54Z" style="fill: rgb(0, 135, 90); transform-origin: 118.131px 185.985px;" id="elznmy5278y4" class="animable"></path><g id="elbvkgoiwfj24"><path d="M119.14,180.82a8.78,8.78,0,0,0-.78,2.53,9.48,9.48,0,0,0,1.4-2.25,9.69,9.69,0,0,0,.79-2.53A9.52,9.52,0,0,0,119.14,180.82Zm-6.38,24.84.53.4a8.17,8.17,0,0,0,.58-2A8.39,8.39,0,0,0,112.76,205.66Zm16.35-30.44a9.35,9.35,0,0,0-2.52-.78,10.22,10.22,0,0,0,4.77,2.18A9.81,9.81,0,0,0,129.11,175.22Zm-20.17,16.94a8.82,8.82,0,0,0-2.52-.79,9,9,0,0,0,2.24,1.41,9.42,9.42,0,0,0,2.53.78A9,9,0,0,0,108.94,192.16ZM91.78,171.82a9.21,9.21,0,0,0-1.23-2.34,9.17,9.17,0,0,0,.59,2.57,9.27,9.27,0,0,0,1.23,2.35A9.24,9.24,0,0,0,91.78,171.82Zm49.67,10.86a9.6,9.6,0,0,0-1.23-2.35,9.16,9.16,0,0,0,.59,2.58,9.6,9.6,0,0,0,1.23,2.35A9.16,9.16,0,0,0,141.45,182.68ZM122.89,198a9.78,9.78,0,0,0-1.23-2.35,10.22,10.22,0,0,0,1.82,4.93A9.24,9.24,0,0,0,122.89,198Zm8.35-9.05a9.6,9.6,0,0,0-2.35,1.23,10.05,10.05,0,0,0,4.93-1.82A9.24,9.24,0,0,0,131.24,189Zm-28-9.25a9.72,9.72,0,0,0-2.34,1.23,10.05,10.05,0,0,0,4.93-1.82A9.31,9.31,0,0,0,103.21,179.72Z" style="opacity: 0.1; transform-origin: 116.295px 187.77px;" class="animable"></path></g><path d="M133,176.41c-1.75-1.15-3.54-2.24-5.32-3.34-.85-.53-1.7-1.07-2.58-1.57s-1.86-1.16-2.83-1.63c-.07,0-.12,0-.06.09.82.7,1.77,1.28,2.65,1.91s1.65,1.15,2.48,1.71c1.73,1.18,3.47,2.35,5.23,3.48,3.52,2.27,7.1,4.44,10.72,6.56a.08.08,0,0,0,.08-.13C140,181.06,136.56,178.69,133,176.41Z" style="fill: rgb(38, 50, 56); transform-origin: 132.786px 176.746px;" id="el7xno2fas3q7" class="animable"></path><g id="elu5a4j5nccl"><path d="M135,195.79c-6,6.59-12.63,12.62-16.82,12.64-5.4,0-20.85-18-27.57-29.63-3.81-6.61-3.32-9.83-1-10.74Z" style="opacity: 0.1; transform-origin: 111.404px 188.245px;" class="animable"></path></g><path d="M206.77,203s-27-14-54.32-29.67S59.75,136,57.67,137.6s59,36.53,87.53,48.65,58.28,22.55,58.28,22.55Z" style="fill: rgb(69, 90, 100); transform-origin: 132.194px 173.158px;" id="elbkzsa1slt66" class="animable"></path><polygon points="207.52 203.01 189.35 192.53 184.74 202.94 204.14 209.96 207.52 203.01" style="fill: rgb(219, 219, 219); transform-origin: 196.13px 201.245px;" id="el2d43xhfe914" class="animable"></polygon><path d="M207.52,203c4.32-.41,9.24.33,14.11,5.31,5.88,6,11.38,5.6,11.38,5.6s-17.82,9.35-28.87-4Z" style="fill: rgb(38, 50, 56); transform-origin: 218.575px 209.998px;" id="elmytik92723" class="animable"></path><path d="M233.81,214c-.88-.81-6-.45-9.42-3.47-3.22-2.83-11.2,7.18-5.27,7.34C225.86,218,235.41,215.43,233.81,214Z" style="fill: rgb(0, 135, 90); transform-origin: 225.487px 213.951px;" id="el1eqsbherws5" class="animable"></path><path d="M99.83,177.58c-3.2.06-8-6.27-9.26-10.5-.08-.29.91-2.93,2-6.2.63-2,1.29-4.21,1.74-6.29l12.32,6a34.12,34.12,0,0,0-3,7.69,4.43,4.43,0,0,0-.09.87.61.61,0,0,0,0,.14C103.41,171,102.93,177.52,99.83,177.58Z" style="fill: rgb(211, 118, 106); transform-origin: 98.5977px 166.085px;" id="elntgiddnjyd" class="animable"></path><path d="M103.51,169.15a.62.62,0,0,0,0,.15,8.06,8.06,0,0,1-1.36-.23c-7.59-2-7.73-11-7.51-14.3l12,5.82a33.92,33.92,0,0,0-3,7.69A5.36,5.36,0,0,0,103.51,169.15Z" style="fill: rgb(38, 50, 56); transform-origin: 100.614px 162.035px;" id="elhykmab43mqg" class="animable"></path><path d="M94.12,138.91c-2.13,4.46-1.68,18.32,1.19,21.82,4.17,5.08,12,6.68,16.56,1.44,4.43-5.07,3.52-23.12.22-26.41C107.23,130.92,97.25,132.33,94.12,138.91Z" style="fill: rgb(211, 118, 106); transform-origin: 103.837px 149.143px;" id="elfn07wnr00wf" class="animable"></path><path d="M106.57,149.1s-.08.05-.08.08c.05.94-.06,2-.9,2.34a0,0,0,0,0,0,0C106.63,151.41,106.76,150,106.57,149.1Z" style="fill: rgb(38, 50, 56); transform-origin: 106.117px 150.31px;" id="elcjyy6wfg54k" class="animable"></path><path d="M105.72,148.14c-1.51-.1-1.58,2.92-.19,3S107,148.21,105.72,148.14Z" style="fill: rgb(38, 50, 56); transform-origin: 105.582px 149.64px;" id="elr06t6livq9" class="animable"></path><path d="M111.81,149.22s.07,0,.07.08c0,.93,0,2,.88,2.34,0,0,0,.06,0,.05C111.72,151.52,111.61,150.09,111.81,149.22Z" style="fill: rgb(38, 50, 56); transform-origin: 112.244px 150.456px;" id="el64vxm774qvv" class="animable"></path><path d="M112.67,148.26c1.5-.07,1.54,2.94.15,3S111.41,148.33,112.67,148.26Z" style="fill: rgb(38, 50, 56); transform-origin: 112.79px 149.76px;" id="el6oka6wdasgs" class="animable"></path><path d="M104.56,146.73a11.6,11.6,0,0,0,1.18-.38,2,2,0,0,0,1.13-.62.65.65,0,0,0-.09-.78,1.59,1.59,0,0,0-1.59-.2,2.36,2.36,0,0,0-1.36,1A.68.68,0,0,0,104.56,146.73Z" style="fill: rgb(38, 50, 56); transform-origin: 105.357px 145.682px;" id="elourw9bmc1em" class="animable"></path><path d="M113.87,146.77a9.54,9.54,0,0,1-1.19-.34,2,2,0,0,1-1.15-.58.63.63,0,0,1,.06-.77,1.58,1.58,0,0,1,1.58-.26,2.31,2.31,0,0,1,1.4.92A.68.68,0,0,1,113.87,146.77Z" style="fill: rgb(38, 50, 56); transform-origin: 113.05px 145.748px;" id="elt959vjdjk6" class="animable"></path><path d="M105.37,157.56c.21.22.43.53.77.57a2.54,2.54,0,0,0,1-.21,0,0,0,0,1,0,.05,1.25,1.25,0,0,1-1.2.47,1,1,0,0,1-.71-.84S105.33,157.53,105.37,157.56Z" style="fill: rgb(38, 50, 56); transform-origin: 106.185px 158.005px;" id="elzm5khh0aar" class="animable"></path><path d="M106.42,154.79a3.22,3.22,0,0,0,2.08,1.47,4.4,4.4,0,0,0,1.15.08l.22,0,.2,0a.22.22,0,0,0,.19-.2h0V156h0v-.08c0-.72,0-1.82,0-1.82.26.14,1.59.78,1.57.4a46.9,46.9,0,0,0-1-9.65c0-.1-.18-.08-.17,0,0,3,.5,6,.53,9a5.52,5.52,0,0,0-1.49-.49c-.1,0,.12,2.12.08,2.44v0a4.41,4.41,0,0,1-3.26-1.1C106.44,154.65,106.36,154.71,106.42,154.79Z" style="fill: rgb(38, 50, 56); transform-origin: 109.115px 150.565px;" id="elwe88guzqz7" class="animable"></path><path d="M109.23,156a3.71,3.71,0,0,1-1.54,1.13,1.64,1.64,0,0,1-1,0c-.74-.21-.74-.9-.59-1.48a3.83,3.83,0,0,1,.36-.89A4.85,4.85,0,0,0,109.23,156Z" style="fill: rgb(38, 50, 56); transform-origin: 107.626px 155.984px;" id="el5eahg5zob83" class="animable"></path><path d="M107.69,157.09a1.64,1.64,0,0,1-1,0c-.74-.21-.74-.9-.59-1.48A1.75,1.75,0,0,1,107.69,157.09Z" style="fill: rgb(255, 151, 184); transform-origin: 106.856px 156.389px;" id="elrnx3d7mobt" class="animable"></path><g id="el7mmfsh4phde"><path d="M97.42,135.07c0,1.85-.24,7.57-1.08,8.77s-2.61,4-3.55,4.43c0-3.81.42-7.45,1.33-9.36A9.7,9.7,0,0,1,97.42,135.07Z" style="fill: rgb(38, 50, 56); opacity: 0.2; transform-origin: 95.105px 141.67px;" class="animable"></path></g><path d="M108.71,139.93a4.57,4.57,0,0,1-4.16,1.55,4.65,4.65,0,0,1-3.59-2.77,0,0,0,0,0-.07,0,4.63,4.63,0,0,0,3.59,3.12,4.69,4.69,0,0,0,4.31-1.85A.05.05,0,1,0,108.71,139.93Z" style="fill: rgb(38, 50, 56); transform-origin: 104.849px 140.286px;" id="el0brldyb4c44u" class="animable"></path><path d="M104,128.68A7.16,7.16,0,0,0,98,132a5.07,5.07,0,0,0-.5,3.33s.1,0,.1,0a5.63,5.63,0,0,1,2.64-5.08,7.26,7.26,0,0,1,6.41-.77,4.54,4.54,0,0,1,2.46,2c0,.09.25,0,.2-.07C108.55,129.73,106.37,128.62,104,128.68Z" style="fill: rgb(38, 50, 56); transform-origin: 103.363px 132.004px;" id="el24udkk3nroa" class="animable"></path><path d="M119.33,134.39a5.85,5.85,0,0,0-2.49-3.13c-1.62-1-3.45-.85-5.27-.66,0,0,0,.08,0,.07a8,8,0,0,1,4.55.51,5.71,5.71,0,0,1,2.65,2.79,5.57,5.57,0,0,1-2.3,6.93,5.7,5.7,0,0,1-4.48.46s-.1.07,0,.09a5.7,5.7,0,0,0,7.37-7.06Z" style="fill: rgb(38, 50, 56); transform-origin: 115.594px 136.124px;" id="el6e2h4fivka5" class="animable"></path><path d="M93.13,141.59s-2.49-4.74-.39-7.47c1.2-1.54,5.14-1.33,5.14-1.33a7.13,7.13,0,0,1,4.55-3c3.3-.74,7.22,1.2,7.22,1.2s3.14-1.78,6.07-.09c4.09,2.35,3.55,8.59-.57,10.58-2.9,1.39-6.82-1.18-6.82-1.18-.38,0-4.26,2.37-7.17-1.1,0,0-2.39,2.11-4.52.62A3.44,3.44,0,0,1,93.13,141.59Z" style="fill: rgb(38, 50, 56); transform-origin: 105.213px 135.757px;" id="eluwfnvfmxtz" class="animable"></path><path d="M95.36,150.34s-2.5-4.77-4.62-3.94-.65,7.48,1.57,8.64a2.39,2.39,0,0,0,3.34-.86Z" style="fill: rgb(211, 118, 106); transform-origin: 92.6805px 150.85px;" id="el0tb88hqs0av8" class="animable"></path><path d="M91.21,148.3s0,0,0,.06a6,6,0,0,1,2.61,4.14,1.33,1.33,0,0,0-1.91-.61.05.05,0,0,0,0,.1,1.47,1.47,0,0,1,1.54.71,7,7,0,0,1,.6,1.4c.06.15.33.11.3-.06v0C94.66,151.92,93.42,148.79,91.21,148.3Z" style="fill: rgb(38, 50, 56); transform-origin: 92.8035px 151.246px;" id="elk7cmuq5h8dc" class="animable"></path><path d="M48.43,236.13c.11.18,60,12.45,60.67,11.94.93-.71,4.12-61.64-5.28-75.22-2.32-3.34-11.29-8.06-14.6-6.5-8.58,4-14.78,14.64-18.68,20.78-2.89,4.54-6.85,12.48-10.6,20.67C53.74,221.3,48.05,235.46,48.43,236.13Z" style="fill: rgb(0, 135, 90); transform-origin: 79.3938px 207.064px;" id="eljgi9r2hehnr" class="animable"></path><g id="elwc4ztvaiwjj"><path d="M90.06,190a9,9,0,0,0-.79,2.53,8.93,8.93,0,0,0,1.4-2.24,9.2,9.2,0,0,0,.79-2.53A8.93,8.93,0,0,0,90.06,190ZM64,202.94a9.42,9.42,0,0,0-.78,2.53,8.93,8.93,0,0,0,1.4-2.24,9.08,9.08,0,0,0,.78-2.53A9.54,9.54,0,0,0,64,202.94Zm31.33,39.55a9.31,9.31,0,0,0-.78,2.53,9.27,9.27,0,0,0,1.41-2.24,9.91,9.91,0,0,0,.78-2.53A9.27,9.27,0,0,0,95.29,242.49Zm-30.23-3,0,.11.69.13a9.29,9.29,0,0,0,.76-2.48A8.93,8.93,0,0,0,65.06,239.51Zm-15.21-6.68a9.69,9.69,0,0,0-.79,2.53,8.75,8.75,0,0,0,1.41-2.25,9,9,0,0,0,.78-2.53A9.81,9.81,0,0,0,49.85,232.83ZM82.49,221a9.69,9.69,0,0,0-.79,2.53,8.69,8.69,0,0,0,1.41-2.24,9.18,9.18,0,0,0,.78-2.53A9.54,9.54,0,0,0,82.49,221Zm-4.34-43.24a9,9,0,0,0-.78,2.53,9.6,9.6,0,0,0,1.4-2.25,9.15,9.15,0,0,0,.79-2.52A9.27,9.27,0,0,0,78.15,177.75ZM109,192.18l0,0a8.82,8.82,0,0,0-2.52-.79,9,9,0,0,0,2.24,1.41l.42.17C109.05,192.69,109,192.43,109,192.18ZM65.51,221.71a9.69,9.69,0,0,0-2.53-.79,8.58,8.58,0,0,0,2.25,1.41,9.15,9.15,0,0,0,2.52.79A9,9,0,0,0,65.51,221.71Zm43.86,23.45a9.1,9.1,0,0,0-2.53-.78,9.17,9.17,0,0,0,2.25,1.4l.36.16c0-.22,0-.45.07-.7ZM87.91,233.75a9.31,9.31,0,0,0-2.53-.78,9.17,9.17,0,0,0,2.25,1.4,9,9,0,0,0,2.53.79A9.52,9.52,0,0,0,87.91,233.75Zm18.46-16.41a9.14,9.14,0,0,0-2.52-.78,9.23,9.23,0,0,0,2.24,1.4,9.44,9.44,0,0,0,2.53.79A9.33,9.33,0,0,0,106.37,217.34ZM83.44,200.93a9.1,9.1,0,0,0-2.53-.78,9.17,9.17,0,0,0,2.25,1.4,9,9,0,0,0,2.53.79A9.33,9.33,0,0,0,83.44,200.93ZM59.15,231.88a9,9,0,0,0-1.23-2.34,9.32,9.32,0,0,0,.59,2.58,9.72,9.72,0,0,0,1.23,2.34A9.16,9.16,0,0,0,59.15,231.88Zm32.63-60.06a9.21,9.21,0,0,0-1.23-2.34,9.17,9.17,0,0,0,.59,2.57,9.27,9.27,0,0,0,1.23,2.35A9.24,9.24,0,0,0,91.78,171.82Zm9.55,29.83a9.38,9.38,0,0,0-1.23-2.34,9.24,9.24,0,0,0,.59,2.58,9.08,9.08,0,0,0,1.24,2.34A9.33,9.33,0,0,0,101.33,201.65ZM79.71,241.28a9.38,9.38,0,0,0-1.23-2.34,9.32,9.32,0,0,0,.59,2.58c.14.35.28.7.45,1l.61.12A11.28,11.28,0,0,0,79.71,241.28Zm16.7-16.4a9.72,9.72,0,0,0-1.23-2.34,9.32,9.32,0,0,0,.59,2.58A9.6,9.6,0,0,0,97,227.47,9.31,9.31,0,0,0,96.41,224.88ZM74.24,211.4A9.44,9.44,0,0,0,73,209.05a9.31,9.31,0,0,0,.59,2.59A9.41,9.41,0,0,0,74.84,214,9.25,9.25,0,0,0,74.24,211.4Zm-17.31,3.09-.37.84.25-.08A9.36,9.36,0,0,0,59.15,214,8.21,8.21,0,0,0,56.93,214.49Zm16.88,15.36a9.6,9.6,0,0,0-2.35,1.23,9.31,9.31,0,0,0,2.59-.59,9.15,9.15,0,0,0,2.33-1.23A9.17,9.17,0,0,0,73.81,229.85Zm-.52-37.7A9.15,9.15,0,0,0,71,193.38a9.32,9.32,0,0,0,2.58-.59,9.41,9.41,0,0,0,2.34-1.24A9.32,9.32,0,0,0,73.29,192.15Zm30.5,42.69a9.6,9.6,0,0,0-2.35,1.23,9.24,9.24,0,0,0,2.58-.59,8.9,8.9,0,0,0,2.34-1.23A9.17,9.17,0,0,0,103.79,234.84ZM93.52,211.31a9.6,9.6,0,0,0-2.35,1.23,9.24,9.24,0,0,0,2.58-.59,8.9,8.9,0,0,0,2.34-1.23A9.17,9.17,0,0,0,93.52,211.31Zm9.69-31.59a9.72,9.72,0,0,0-2.34,1.23,10.05,10.05,0,0,0,4.93-1.82A9.31,9.31,0,0,0,103.21,179.72Z" style="opacity: 0.1; transform-origin: 79.31px 207.71px;" class="animable"></path></g><path d="M98.14,184.3c7.49,14.19,22.73,40,34,42,11.92,2.08,29.08-9.37,36.29-12.72,3-1.42-11.29-21.42-14.83-20.73s-14.75,8.43-17.44,8.44-17.89-16.5-28.67-25.47C94.8,165.23,92.06,172.78,98.14,184.3Z" style="fill: rgb(211, 118, 106); transform-origin: 131.941px 198.651px;" id="elriu2gshypqk" class="animable"></path><path d="M170.34,174a4,4,0,0,1,2.68,3.64,5.9,5.9,0,0,1,4,.32c2.15,1.11,1.36,5,1.36,5a7.23,7.23,0,0,1,4.14,1c1.95,1.26,1.71,5.27,1.71,5.27a6.34,6.34,0,0,1,3.08,3.19c1.49,3.79-2.23,8.79-4.55,12S168,214.66,166.16,214.66l-17.5-17.48s2.83-9.69,9.4-16.64C160.78,177.66,167.37,173.13,170.34,174Z" style="fill: rgb(211, 118, 106); transform-origin: 168.156px 194.275px;" id="el1th7y0k8yjj" class="animable"></path><path d="M172.58,177.56c-3.66,2.32-6.43,5.6-9.38,8.71-.07.07,0,.17.11.1,2.9-3.13,6.38-5.64,9.4-8.65C172.8,177.64,172.68,177.5,172.58,177.56Z" style="fill: rgb(38, 50, 56); transform-origin: 167.957px 181.97px;" id="eltw8czb982z" class="animable"></path><path d="M178,182.82a11.43,11.43,0,0,0-2.07,2.1c-.69.8-1.35,1.6-2,2.42q-2,2.44-3.81,5c-.05.07,0,.18.11.1,1.31-1.63,2.64-3.23,4-4.8.69-.79,1.39-1.57,2.09-2.34a13.65,13.65,0,0,0,1.88-2.28A.15.15,0,0,0,178,182.82Z" style="fill: rgb(38, 50, 56); transform-origin: 174.158px 187.637px;" id="elsyorqrprq2" class="animable"></path><path d="M184.15,189.3a8,8,0,0,0-1.76,2l-1.76,2.26c-1.18,1.5-2.36,3-3.6,4.46-.06.07.05.18.11.1,1.26-1.47,2.54-2.93,3.79-4.42.61-.73,1.22-1.46,1.82-2.2a7.22,7.22,0,0,0,1.48-2.13A.05.05,0,0,0,184.15,189.3Z" style="fill: rgb(38, 50, 56); transform-origin: 180.628px 193.715px;" id="el0tzguowydz5" class="animable"></path><path d="M148.21,194.45l13.77,26s-22.59,11.21-33.82,5.83-26.89-32.09-31.74-44.06.64-15.89,10.68-7.38,27.72,24.84,28.44,25.2S148.21,194.45,148.21,194.45Z" style="fill: rgb(0, 135, 90); transform-origin: 128.305px 199.009px;" id="eltl9n5i8lpag" class="animable"></path><g id="elimclqh02ngm"><path d="M103.21,179.72a9.72,9.72,0,0,0-2.34,1.23,10.05,10.05,0,0,0,4.93-1.82A9.31,9.31,0,0,0,103.21,179.72Zm32.06,37.2a9.27,9.27,0,0,0-2.35,1.23,10.1,10.1,0,0,0,4.93-1.83A9.25,9.25,0,0,0,135.27,216.92ZM149.58,197c-.36.09-.7.21-1,.33a9.27,9.27,0,0,0-2.35,1.23,9.31,9.31,0,0,0,2.59-.59,11.21,11.21,0,0,0,1.07-.47Zm-26.69,1a9.78,9.78,0,0,0-1.23-2.35,10.22,10.22,0,0,0,1.82,4.93A9.24,9.24,0,0,0,122.89,198Zm4.28,26.86a9.72,9.72,0,0,0-1.23-2.34,9.32,9.32,0,0,0,.59,2.58l.15.37c.28.17.56.33.83.47C127.41,225.59,127.29,225.24,127.17,224.88Zm19-15.4a9.54,9.54,0,0,0-1.23-2.34,9.32,9.32,0,0,0,.59,2.58,9.54,9.54,0,0,0,1.23,2.34A9.24,9.24,0,0,0,146.14,209.48Zm-24,2.82a9.31,9.31,0,0,0-2.53-.78,9.48,9.48,0,0,0,2.25,1.4,9.33,9.33,0,0,0,2.53.79A9.52,9.52,0,0,0,122.09,212.3Zm38,4.54c-.36-.22-.73-.41-1.11-.6a9.29,9.29,0,0,0-2.53-.77,9.81,9.81,0,0,0,2.25,1.4,11.25,11.25,0,0,0,1.74.63Zm-51.12-24.68a8.82,8.82,0,0,0-2.52-.79,9,9,0,0,0,2.24,1.41,9.42,9.42,0,0,0,2.53.78A9,9,0,0,0,108.94,192.16Zm3.52,14.11a9.31,9.31,0,0,0-.78,2.53,9.27,9.27,0,0,0,1.41-2.24,9.53,9.53,0,0,0,.78-2.53A9.27,9.27,0,0,0,112.46,206.27Zm22.74-.94a9,9,0,0,0-.79,2.53,10.1,10.1,0,0,0,2.19-4.77A8.93,8.93,0,0,0,135.2,205.33Zm9.4,17.43a9.93,9.93,0,0,0-.79,2.53,8.69,8.69,0,0,0,1.41-2.24,9,9,0,0,0,.78-2.53A10,10,0,0,0,144.6,222.76Z" style="opacity: 0.1; transform-origin: 130.695px 202.535px;" class="animable"></path></g><path d="M149.3,209.42c-.92-1.88-1.89-3.74-2.85-5.59-.47-.9-.92-1.79-1.42-2.67s-1-1.95-1.59-2.85c0-.07-.13,0-.11.05.36,1,.88,2,1.3,3s.83,1.83,1.26,2.74c.88,1.89,1.77,3.79,2.7,5.66,1.87,3.76,3.83,7.45,5.85,11.12a.08.08,0,1,0,.14-.07C152.89,217,151.15,213.18,149.3,209.42Z" style="fill: rgb(38, 50, 56); transform-origin: 148.963px 209.61px;" id="el8uxnof154wi" class="animable"></path><path d="M110.11,207c-1.31-2.17-6.21-10.88-7.09-12.5-1.77-3.28-3.51-6.58-5.28-9.85a0,0,0,0,0-.06,0c.81,2.09,1.71,4.14,2.68,6.16l-.27-.38c-.57-.77-1.17-1.52-1.77-2.27,0-.05-.11,0-.08.06.54.82,1.06,1.64,1.63,2.44.36.5.75,1,1.12,1.47.44.88.89,1.74,1.35,2.61.89,1.66,5.73,10.38,7.64,12.31C110.05,207.16,110.16,207.09,110.11,207Z" style="fill: rgb(38, 50, 56); transform-origin: 103.901px 195.878px;" id="elq0qvvef9xzr" class="animable"></path><path d="M124.2,156.93c4-.7,9.54-3.72,12.52-3.27a3.45,3.45,0,0,1,3,2.82s2.23-2.49,4.87-1.63c1.36.44,1.85,3,1.85,3a4.13,4.13,0,0,1,4.17-1c1.83.72,2,3.17,2,3.17s2.65-1,4.28.33c3.31,2.7-1.17,19-7.86,19.86-3.12.4-1.81-3.52-1.81-3.52s-3.25,5.18-6.63,4.34-1.37-5.83-1.37-5.83-3.19,5-6.61,3.77S132,173,132,173s-3.45,2.94-5.86,1.41c-4-2.54,3.38-7.9,3.51-11.71l-5.36-3.6Z" style="fill: rgb(211, 118, 106); transform-origin: 141.103px 167.368px;" id="elg092wzvusph" class="animable"></path><path d="M130.23,155.08c-3.84.33-7-5.16-10.68-5.37-5-.28-1.84,6.35,4.72,9.43l5.52,1.5Z" style="fill: rgb(211, 118, 106); transform-origin: 123.661px 155.171px;" id="elgydyk4ajpy" class="animable"></path><path d="M152.76,160.38a0,0,0,0,1,.09,0,29.31,29.31,0,0,1-5.62,16.5c-.11.15-.41,0-.31-.16A60.13,60.13,0,0,0,152.76,160.38Z" style="fill: rgb(38, 50, 56); transform-origin: 149.875px 168.661px;" id="el6lly5grkh6u" class="animable"></path><path d="M146.5,157.77c0-.07.12-.05.12,0a27.47,27.47,0,0,1-7.25,17.62c-.16.16-.46.15-.29,0C141.94,172,145.51,163.14,146.5,157.77Z" style="fill: rgb(38, 50, 56); transform-origin: 142.825px 166.615px;" id="eliyob8ymiw8" class="animable"></path><path d="M131.53,173.28c4.3-4.76,6.64-10.41,8.21-16.56,0-.08.13,0,.13,0,0,3.22-1.36,7-2.71,9.91a16.88,16.88,0,0,1-5.46,6.77C131.6,173.5,131.44,173.38,131.53,173.28Z" style="fill: rgb(38, 50, 56); transform-origin: 135.687px 165.061px;" id="elf5g28w0lqd" class="animable"></path><path d="M100.59,169.92c-4.16-3.78-17.08-8.2-23.29-6-7.84,2.83-20.53,27.39-18.18,29.62,4.2,4,24.9-7,30.14-12.28S100.59,169.92,100.59,169.92Z" style="fill: rgb(0, 135, 90); transform-origin: 79.7121px 178.865px;" id="elmolupth8yq" class="animable"></path><g id="elibxxpozpnlp"><path d="M81.48,163.35a7.42,7.42,0,0,0-1.14.7,9.17,9.17,0,0,0,2.57-.59l.11,0C82.5,163.37,82,163.35,81.48,163.35Zm-9.43,6c-.12-.3-.24-.6-.38-.89l-.46.53c.06.2.13.4.2.6a9.38,9.38,0,0,0,1.23,2.34A9.24,9.24,0,0,0,72.05,169.36Zm19.73,2.46a9.21,9.21,0,0,0-1.23-2.34,9.17,9.17,0,0,0,.59,2.57,9.27,9.27,0,0,0,1.23,2.35A9.24,9.24,0,0,0,91.78,171.82ZM65.51,183a9.31,9.31,0,0,0-2.53-.78,9.27,9.27,0,0,0,2.24,1.41,9.53,9.53,0,0,0,2.53.78A9.27,9.27,0,0,0,65.51,183Zm12.64-5.21a9,9,0,0,0-.78,2.53,9.6,9.6,0,0,0,1.4-2.25,9.15,9.15,0,0,0,.79-2.52A9.27,9.27,0,0,0,78.15,177.75Z" style="opacity: 0.1; transform-origin: 77.675px 173.88px;" class="animable"></path></g><path d="M95.22,176.87c-1.09.69-2.2,1.36-3.28,2.06,1.59-1.52,3.19-3,4.73-4.6,0-.06,0-.15-.09-.1a67.74,67.74,0,0,0-5.64,4.8c-1.9,1.66-3.8,3.33-5.77,4.9A50.61,50.61,0,0,1,79,188.24a54.56,54.56,0,0,1-7.18,3.37c-1.4.54-2.8,1.06-4.21,1.55a30.79,30.79,0,0,1-4.65,1.2c-.3,0-.14.17,0,.16a21.79,21.79,0,0,0,3.92-.79c1.33-.38,2.67-.76,4-1.16a47.14,47.14,0,0,0,7.42-2.81c4.65-2.31,8.49-5.72,12.16-9.34l.21-.21c.65-.42,1.29-.86,1.91-1.32.91-.67,1.83-1.29,2.79-1.89C95.39,177,95.31,176.82,95.22,176.87Z" style="fill: rgb(38, 50, 56); transform-origin: 79.7299px 184.368px;" id="elbpysvzhetkf" class="animable"></path></g><g id="freepik--Tools--inject-126" class="animable" style="transform-origin: 402.696px 385.256px;"><path d="M389,351.1s4.41,14.7,9.64,29.71,9.89,49.49,8.91,50.38S395,398.56,391.6,383.25s-5.75-31-5.75-31Z" style="fill: rgb(0, 135, 90); transform-origin: 396.766px 391.154px;" id="elej7wy4c9lo" class="animable"></path><polygon points="389.07 350.73 392.57 360.71 387.01 362.06 385.34 351.78 389.07 350.73" style="fill: rgb(219, 219, 219); transform-origin: 388.955px 356.395px;" id="el21kes3q7in3" class="animable"></polygon><path d="M389.08,350.73a8.35,8.35,0,0,0-1.32-7.5c-2.43-3.47-1.72-6.17-1.72-6.17s-6.26,8-.7,14.72Z" style="fill: rgb(69, 90, 100); transform-origin: 386.245px 344.42px;" id="elr10a07fdhkq" class="animable"></path><path d="M386.09,336.66c.32.51-.33,3,.84,5s-4.57,4.92-4.1,1.95C383.37,340.25,385.51,335.73,386.09,336.66Z" style="fill: rgb(0, 135, 90); transform-origin: 384.945px 340.707px;" id="elfl4zyhhbykr" class="animable"></path><path d="M416.42,359.7s-4.26,11.9-9.21,24-10.27,40.27-9.51,41,11.77-26.29,15.19-38.74S419,360.75,419,360.75Z" style="fill: rgb(166, 166, 166); transform-origin: 408.314px 392.207px;" id="elbtbb38aeyp" class="animable"></path><polygon points="416.38 359.39 413.07 367.45 417.58 368.81 419.4 360.42 416.38 359.39" style="fill: rgb(219, 219, 219); transform-origin: 416.235px 364.1px;" id="eljofsvtb8n4a" class="animable"></polygon><path d="M416.37,359.4c.48-6.64,5.75-12,5.75-12s2.14,7.79-2.72,13.06Z" style="fill: rgb(69, 90, 100); transform-origin: 419.48px 353.93px;" id="elmsm9tiql42" class="animable"></path><path d="M403.32,344.1s1.68,12.53,4,25.41,1.63,41.53.72,42.13-6-28.17-6.76-41.06-.66-26-.66-26Z" style="fill: rgb(55, 71, 79); transform-origin: 404.753px 377.875px;" id="elrald9p0bvro" class="animable"></path><polygon points="403.42 343.81 404.98 352.38 400.28 352.76 400.25 344.18 403.42 343.81" style="fill: rgb(219, 219, 219); transform-origin: 402.615px 348.285px;" id="el03ulpbls3spl" class="animable"></polygon><path d="M400.25,344.18s3-.3,3.17-.37a72.1,72.1,0,0,0,2.23-8.94c-.18-.24-10.12,1.16-10.07,2.09S400.25,344.18,400.25,344.18Z" style="fill: rgb(69, 90, 100); transform-origin: 400.615px 339.511px;" id="els4lcy0jkdd" class="animable"></path><rect x="383.64" y="391.54" width="35.05" height="44.13" rx="4.38" style="fill: rgb(69, 90, 100); transform-origin: 401.165px 413.605px;" id="elg6ljchx19vd" class="animable"></rect><rect x="388.06" y="384.57" width="26.2" height="6.97" style="fill: rgb(69, 90, 100); transform-origin: 401.16px 388.055px;" id="eli2jsz2hgdl" class="animable"></rect><path d="M389.67,391.38c6.09-.3,21-.31,23,0a0,0,0,0,1,0,.09,160,160,0,0,1-23,0A.07.07,0,0,1,389.67,391.38Z" style="fill: rgb(38, 50, 56); transform-origin: 401.162px 391.518px;" id="el5n25sfzezzv" class="animable"></path></g><defs>     <filter id="active" height="200%">         <feMorphology in="SourceAlpha" result="DILATED" operator="dilate" radius="2"></feMorphology>                <feFlood flood-color="#32DFEC" flood-opacity="1" result="PINK"></feFlood>        <feComposite in="PINK" in2="DILATED" operator="in" result="OUTLINE"></feComposite>        <feMerge>            <feMergeNode in="OUTLINE"></feMergeNode>            <feMergeNode in="SourceGraphic"></feMergeNode>        </feMerge>    </filter>    <filter id="hover" height="200%">        <feMorphology in="SourceAlpha" result="DILATED" operator="dilate" radius="2"></feMorphology>                <feFlood flood-color="#ff0000" flood-opacity="0.5" result="PINK"></feFlood>        <feComposite in="PINK" in2="DILATED" operator="in" result="OUTLINE"></feComposite>        <feMerge>            <feMergeNode in="OUTLINE"></feMergeNode>            <feMergeNode in="SourceGraphic"></feMergeNode>        </feMerge>            <feColorMatrix type="matrix" values="0   0   0   0   0                0   1   0   0   0                0   0   0   0   0                0   0   0   1   0 "></feColorMatrix>    </filter></defs></svg>