<svg version="1.1" id="Uploaded to svgrepo.com" xmlns="http://www.w3.org/2000/svg" xmlns:xlink="http://www.w3.org/1999/xlink" viewBox="0 0 32 32" xml:space="preserve" fill="#ffffff"><g id="SVGRepo_bgCarrier" stroke-width="0"></g><g id="SVGRepo_tracerCarrier" stroke-linecap="round" stroke-linejoin="round"></g><g id="SVGRepo_iconCarrier"> <style type="text/css"> .open_een{fill:#fff;} </style> <g> <g> <path class="open_een" d="M25.5,30h-19C5.673,30,5,29.327,5,28.5v-17C5,11.224,5.224,11,5.5,11S6,11.224,6,11.5v17 C6,28.776,6.224,29,6.5,29h19c0.276,0,0.5-0.224,0.5-0.5v-25C26,3.224,25.776,3,25.5,3h-19C6.224,3,6,3.224,6,3.5v4 C6,7.776,6.224,8,6.5,8h17C23.776,8,24,8.224,24,8.5S23.776,9,23.5,9h-17C5.673,9,5,8.327,5,7.5v-4C5,2.673,5.673,2,6.5,2h19 C26.327,2,27,2.673,27,3.5v25C27,29.327,26.327,30,25.5,30z"></path> <path class="open_een" d="M22.5,27h-1c-0.827,0-1.5-0.673-1.5-1.5v-7c0-0.827,0.673-1.5,1.5-1.5h1c0.827,0,1.5,0.673,1.5,1.5v7 C24,26.327,23.327,27,22.5,27z M21.5,18c-0.276,0-0.5,0.224-0.5,0.5v7c0,0.276,0.224,0.5,0.5,0.5h1c0.276,0,0.5-0.224,0.5-0.5v-7 c0-0.276-0.224-0.5-0.5-0.5H21.5z"></path> <path class="open_een" d="M10.5,27h-1C8.673,27,8,26.327,8,25.5v-1C8,23.673,8.673,23,9.5,23h1c0.827,0,1.5,0.673,1.5,1.5v1 C12,26.327,11.327,27,10.5,27z M9.5,24C9.224,24,9,24.224,9,24.5v1C9,25.776,9.224,26,9.5,26h1c0.276,0,0.5-0.224,0.5-0.5v-1 c0-0.276-0.224-0.5-0.5-0.5H9.5z"></path> <path class="open_een" d="M10.5,21h-1C8.673,21,8,20.327,8,19.5v-1C8,17.673,8.673,17,9.5,17h1c0.827,0,1.5,0.673,1.5,1.5v1 C12,20.327,11.327,21,10.5,21z M9.5,18C9.224,18,9,18.224,9,18.5v1C9,19.776,9.224,20,9.5,20h1c0.276,0,0.5-0.224,0.5-0.5v-1 c0-0.276-0.224-0.5-0.5-0.5H9.5z"></path> <path class="open_een" d="M16.5,21h-1c-0.827,0-1.5-0.673-1.5-1.5v-1c0-0.827,0.673-1.5,1.5-1.5h1c0.827,0,1.5,0.673,1.5,1.5v1 C18,20.327,17.327,21,16.5,21z M15.5,18c-0.276,0-0.5,0.224-0.5,0.5v1c0,0.276,0.224,0.5,0.5,0.5h1c0.276,0,0.5-0.224,0.5-0.5v-1 c0-0.276-0.224-0.5-0.5-0.5H15.5z"></path> <path class="open_een" d="M10.5,15h-1C8.673,15,8,14.327,8,13.5v-1C8,11.673,8.673,11,9.5,11h1c0.827,0,1.5,0.673,1.5,1.5v1 C12,14.327,11.327,15,10.5,15z M9.5,12C9.224,12,9,12.224,9,12.5v1C9,13.776,9.224,14,9.5,14h1c0.276,0,0.5-0.224,0.5-0.5v-1 c0-0.276-0.224-0.5-0.5-0.5H9.5z"></path> <path class="open_een" d="M16.5,15h-1c-0.827,0-1.5-0.673-1.5-1.5v-1c0-0.827,0.673-1.5,1.5-1.5h1c0.827,0,1.5,0.673,1.5,1.5v1 C18,14.327,17.327,15,16.5,15z M15.5,12c-0.276,0-0.5,0.224-0.5,0.5v1c0,0.276,0.224,0.5,0.5,0.5h1c0.276,0,0.5-0.224,0.5-0.5v-1 c0-0.276-0.224-0.5-0.5-0.5H15.5z"></path> <path class="open_een" d="M22.5,15h-1c-0.827,0-1.5-0.673-1.5-1.5v-1c0-0.827,0.673-1.5,1.5-1.5h1c0.827,0,1.5,0.673,1.5,1.5v1 C24,14.327,23.327,15,22.5,15z M21.5,12c-0.276,0-0.5,0.224-0.5,0.5v1c0,0.276,0.224,0.5,0.5,0.5h1c0.276,0,0.5-0.224,0.5-0.5v-1 c0-0.276-0.224-0.5-0.5-0.5H21.5z"></path> <path class="open_een" d="M16.5,27h-1c-0.827,0-1.5-0.673-1.5-1.5v-1c0-0.827,0.673-1.5,1.5-1.5h1c0.827,0,1.5,0.673,1.5,1.5v1 C18,26.327,17.327,27,16.5,27z M15.5,24c-0.276,0-0.5,0.224-0.5,0.5v1c0,0.276,0.224,0.5,0.5,0.5h1c0.276,0,0.5-0.224,0.5-0.5v-1 c0-0.276-0.224-0.5-0.5-0.5H15.5z"></path> </g> <g> <path class="open_een" d="M25.5,30h-19C5.673,30,5,29.327,5,28.5v-17C5,11.224,5.224,11,5.5,11S6,11.224,6,11.5v17 C6,28.776,6.224,29,6.5,29h19c0.276,0,0.5-0.224,0.5-0.5v-25C26,3.224,25.776,3,25.5,3h-19C6.224,3,6,3.224,6,3.5v4 C6,7.776,6.224,8,6.5,8h17C23.776,8,24,8.224,24,8.5S23.776,9,23.5,9h-17C5.673,9,5,8.327,5,7.5v-4C5,2.673,5.673,2,6.5,2h19 C26.327,2,27,2.673,27,3.5v25C27,29.327,26.327,30,25.5,30z"></path> <path class="open_een" d="M22.5,27h-1c-0.827,0-1.5-0.673-1.5-1.5v-7c0-0.827,0.673-1.5,1.5-1.5h1c0.827,0,1.5,0.673,1.5,1.5v7 C24,26.327,23.327,27,22.5,27z M21.5,18c-0.276,0-0.5,0.224-0.5,0.5v7c0,0.276,0.224,0.5,0.5,0.5h1c0.276,0,0.5-0.224,0.5-0.5v-7 c0-0.276-0.224-0.5-0.5-0.5H21.5z"></path> <path class="open_een" d="M10.5,27h-1C8.673,27,8,26.327,8,25.5v-1C8,23.673,8.673,23,9.5,23h1c0.827,0,1.5,0.673,1.5,1.5v1 C12,26.327,11.327,27,10.5,27z M9.5,24C9.224,24,9,24.224,9,24.5v1C9,25.776,9.224,26,9.5,26h1c0.276,0,0.5-0.224,0.5-0.5v-1 c0-0.276-0.224-0.5-0.5-0.5H9.5z"></path> <path class="open_een" d="M10.5,21h-1C8.673,21,8,20.327,8,19.5v-1C8,17.673,8.673,17,9.5,17h1c0.827,0,1.5,0.673,1.5,1.5v1 C12,20.327,11.327,21,10.5,21z M9.5,18C9.224,18,9,18.224,9,18.5v1C9,19.776,9.224,20,9.5,20h1c0.276,0,0.5-0.224,0.5-0.5v-1 c0-0.276-0.224-0.5-0.5-0.5H9.5z"></path> <path class="open_een" d="M16.5,21h-1c-0.827,0-1.5-0.673-1.5-1.5v-1c0-0.827,0.673-1.5,1.5-1.5h1c0.827,0,1.5,0.673,1.5,1.5v1 C18,20.327,17.327,21,16.5,21z M15.5,18c-0.276,0-0.5,0.224-0.5,0.5v1c0,0.276,0.224,0.5,0.5,0.5h1c0.276,0,0.5-0.224,0.5-0.5v-1 c0-0.276-0.224-0.5-0.5-0.5H15.5z"></path> <path class="open_een" d="M10.5,15h-1C8.673,15,8,14.327,8,13.5v-1C8,11.673,8.673,11,9.5,11h1c0.827,0,1.5,0.673,1.5,1.5v1 C12,14.327,11.327,15,10.5,15z M9.5,12C9.224,12,9,12.224,9,12.5v1C9,13.776,9.224,14,9.5,14h1c0.276,0,0.5-0.224,0.5-0.5v-1 c0-0.276-0.224-0.5-0.5-0.5H9.5z"></path> <path class="open_een" d="M16.5,15h-1c-0.827,0-1.5-0.673-1.5-1.5v-1c0-0.827,0.673-1.5,1.5-1.5h1c0.827,0,1.5,0.673,1.5,1.5v1 C18,14.327,17.327,15,16.5,15z M15.5,12c-0.276,0-0.5,0.224-0.5,0.5v1c0,0.276,0.224,0.5,0.5,0.5h1c0.276,0,0.5-0.224,0.5-0.5v-1 c0-0.276-0.224-0.5-0.5-0.5H15.5z"></path> <path class="open_een" d="M22.5,15h-1c-0.827,0-1.5-0.673-1.5-1.5v-1c0-0.827,0.673-1.5,1.5-1.5h1c0.827,0,1.5,0.673,1.5,1.5v1 C24,14.327,23.327,15,22.5,15z M21.5,12c-0.276,0-0.5,0.224-0.5,0.5v1c0,0.276,0.224,0.5,0.5,0.5h1c0.276,0,0.5-0.224,0.5-0.5v-1 c0-0.276-0.224-0.5-0.5-0.5H21.5z"></path> <path class="open_een" d="M16.5,27h-1c-0.827,0-1.5-0.673-1.5-1.5v-1c0-0.827,0.673-1.5,1.5-1.5h1c0.827,0,1.5,0.673,1.5,1.5v1 C18,26.327,17.327,27,16.5,27z M15.5,24c-0.276,0-0.5,0.224-0.5,0.5v1c0,0.276,0.224,0.5,0.5,0.5h1c0.276,0,0.5-0.224,0.5-0.5v-1 c0-0.276-0.224-0.5-0.5-0.5H15.5z"></path> </g> </g> </g></svg>