<svg xmlns="http://www.w3.org/2000/svg" viewBox="0 0 750 500"><g id="freepik--background-simple--inject-62"><path d="M700.43,122.26A192,192,0,0,0,631.37,62.7C594.51,44,536.23,18.52,492.92,19.3c-68.31,1.22-222,85.12-302.36,101.08S-7.87,195.93,16.7,317.23,106.46,474.7,231.19,458.74,400.32,426.82,501.43,447,718.75,453.42,731,308.72C740,202.77,726.74,159,700.43,122.26Z" style="fill:#00875A"></path><path d="M700.43,122.26A192,192,0,0,0,631.37,62.7C594.51,44,536.23,18.52,492.92,19.3c-68.31,1.22-222,85.12-302.36,101.08S-7.87,195.93,16.7,317.23,106.46,474.7,231.19,458.74,400.32,426.82,501.43,447,718.75,453.42,731,308.72C740,202.77,726.74,159,700.43,122.26Z" style="fill:#fff;opacity:0.7000000000000001"></path></g><g id="freepik--Mug--inject-62"><path d="M91.09,126.84l2.7,32.87s-23.43-3.84-29.64,8.59-6.22,44.92,8.29,62.19c10.45,12.45,21.62,7.32,27.05,3.48l2.82,35.91c0,13.41,25.76,38.11,57.54,38.11s57.54-24.7,57.54-38.11l11.21-143ZM80.73,216c-9-7.6-4.15-40.77,0-44.91,3.07-3.08,10.33-.83,13.87.54l3.71,47.3C93.68,220.08,86.38,220.77,80.73,216Z" style="fill:#263238"></path><path d="M159.85,308.49c-30.92,0-58-24.06-58-38.61l-2.75-35c-6,4-16.81,8.09-27-4.05-14.2-16.92-14.86-49.72-8.35-62.74,5.81-11.61,25.65-9.5,29.54-9l-2.69-32.78H229.14l0,.54-11.21,143C217.89,284.43,190.76,308.49,159.85,308.49ZM99.92,233.05l2.88,36.79c0,12.58,24.67,37.65,57.05,37.65s57-25.07,57-37.61l11.17-142.54H91.64l2.7,33-.64-.1c-.23,0-23.12-3.64-29.11,8.33-6.39,12.78-5.74,45,8.23,61.64,10.11,12,20.87,7.29,26.38,3.39Zm-8.16-12.78a17.1,17.1,0,0,1-11.35-3.91c-3.88-3.27-5-10.71-5.2-16.37-.51-12.24,2.46-26.57,5.17-29.28,3.21-3.22,10.4-1.11,14.4.43l.3.11,3.76,48-.41.1A27.33,27.33,0,0,1,91.76,220.27ZM81.05,215.6c5.23,4.42,11.91,4.07,16.73,2.92L94.13,172c-3.2-1.2-10.21-3.37-13-.54C78.54,174,75.72,188.26,76.21,200c.32,7.83,2,13.24,4.84,15.65Z" style="fill:#263238"></path><ellipse cx="159.85" cy="126.84" rx="68.75" ry="29.02" style="fill:#fff"></ellipse><path d="M159.85,156.37c-38.19,0-69.26-13.25-69.26-29.53s31.07-29.52,69.26-29.52,69.25,13.25,69.25,29.52S198,156.37,159.85,156.37Zm0-58.05c-37.64,0-68.26,12.8-68.26,28.52s30.62,28.53,68.26,28.53,68.25-12.8,68.25-28.53S197.48,98.32,159.85,98.32Z" style="fill:#263238"></path><ellipse cx="159.85" cy="126.84" rx="61.17" ry="25.82" style="fill:#fff"></ellipse><path d="M159.85,153.17c-34,0-61.68-11.81-61.68-26.33s27.67-26.32,61.68-26.32,61.67,11.81,61.67,26.32S193.85,153.17,159.85,153.17Zm0-51.65c-33.46,0-60.68,11.36-60.68,25.32s27.22,25.33,60.68,25.33,60.67-11.36,60.67-25.33S193.3,101.52,159.85,101.52Z" style="fill:#263238"></path><ellipse cx="159.85" cy="145.21" rx="42.98" ry="7.45" style="fill:#00875A"></ellipse><path d="M159.85,153.17c-16.26,0-31.59-2.66-43.18-7.5l-1.1-.46,1.1-.46c11.59-4.83,26.92-7.49,43.18-7.49s31.59,2.66,43.17,7.49l1.11.46-1.11.46C191.44,150.51,176.1,153.17,159.85,153.17Zm-41.66-8c11.33,4.49,26.06,7,41.66,7s30.33-2.47,41.65-7c-11.32-4.49-26.05-7-41.65-7S129.52,140.72,118.19,145.21Z" style="fill:#263238"></path></g><g id="freepik--books-2--inject-62"><path d="M403,203.25s32.7,77.66,40.57,81.77S682.16,269.1,682.16,269.1l-6.55-7.29-.31-50.26,8.63-.38L595.79,95.09,396.63,109.64S386,117,384.52,123.44s-1.1,16.07-1.1,16.07Z" style="fill:#263238"></path><path d="M451.28,286c-4.39,0-7.16-.18-7.93-.58-7.94-4.14-39.47-78.84-40.8-82l0-.05L382.92,139.6v-.07c0-.1-.31-9.81,1.11-16.2s11.87-13.8,12.32-14.11l.11-.07h.13L596,94.57l.16.22L684.9,211.62l-9.1.41.31,49.59,7.09,7.89-1,.08C673.69,270.33,492.23,286,451.28,286Zm-47.8-83c11.29,26.81,34.23,78.31,40.33,81.49s157.3-8.95,237.31-15.89l-6-6.68v-.19l-.31-50.74,8.15-.36L595.56,95.61,396.81,110.12c-1.13.81-10.51,7.64-11.8,13.43-1.34,6-1.12,15-1.1,15.88Z" style="fill:#263238"></path><path d="M675.3,211.55,449,229.77A27.85,27.85,0,0,0,436.65,250c-1.66,14.13,4.05,28.48,8.3,30.54a28,28,0,0,0,9.77,2.23l220.89-21Z" style="fill:#e0e0e0"></path><path d="M454.77,283.28a28.31,28.31,0,0,1-10-2.28c-4.57-2.22-10.23-17-8.58-31a28.6,28.6,0,0,1,12.56-20.62l.21-.07L675.8,211l.32,51.25-.46.05Zm-5.66-53a27.67,27.67,0,0,0-12,19.81c-1.67,14.28,4.28,28.21,8,30a27.54,27.54,0,0,0,9.57,2.18l220.37-20.92-.31-49.27Z" style="fill:#263238"></path><path d="M445,36.14,353.71,162.19s-5,4.9-4.74,16.91.85,31.6,4.42,33S621.12,233.5,621.12,233.5l61-140.87-4.76-2L679,55.9l4-11.24L451.71,33.82Z" style="fill:#00875A"></path><path d="M621.44,234l-.36,0c-10.79-.81-264.26-20.07-267.86-21.45-2.89-1.11-4.31-11.11-4.75-33.43-.24-12.09,4.68-17.07,4.89-17.28L444.69,35.72l6.94-2.41h.1L683.66,44.19,679.5,56l-1.64,34.26,4.9,2.1-.2.47ZM445.31,36.56l-91.2,125.92c-.1.11-4.87,5-4.64,16.61.15,7.71.62,31.18,4.1,32.52C357,212.72,529.64,226.05,620.8,233L681.45,92.89l-4.62-2,1.7-35.17,3.74-10.62L451.78,34.32Z" style="fill:#263238"></path><path d="M361.92,165.78s-8.26-2.56-10.61,5.38,3.43,36.71,3.43,36.71,4.93,2.06,7.2,2.13,256.47,16.85,256.47,16.85L677.34,90.59,679,55.9,622.62,178Z" style="fill:#fff"></path><path d="M618.73,227.37l-.35,0c-2.54-.17-254.23-16.79-256.46-16.85s-7.17-2.08-7.38-2.16l-.24-.11-.05-.26c-.24-1.18-5.77-29-3.41-36.95a8.11,8.11,0,0,1,3.89-5.15,10.5,10.5,0,0,1,7.28-.59l260.3,12.21L679.62,53.36,677.8,90.78ZM355.17,207.51c1,.41,4.91,1.93,6.78,2,2.23.06,241.58,15.87,256.14,16.83L676.85,90.47l1.53-32L622.94,178.52l-.34,0L361.84,166.27h-.07a9.58,9.58,0,0,0-6.57.49,7.23,7.23,0,0,0-3.41,4.55C349.63,178.63,354.61,204.61,355.17,207.51Z" style="fill:#263238"></path><path d="M616.79,177.73,361.92,165.78s-8.26-2.56-10.61,5.38,3.43,36.71,3.43,36.71,4.93,2.06,7.2,2.13,256.47,16.85,256.47,16.85l-.35-48Z" style="fill:#e0e0e0"></path><path d="M618.92,227.38l-.54,0c-2.54-.17-254.23-16.79-256.46-16.85s-7.17-2.08-7.38-2.16l-.24-.11-.05-.26c-.24-1.18-5.77-29-3.41-36.95a8.11,8.11,0,0,1,3.89-5.15,10.5,10.5,0,0,1,7.28-.59l255,12,1.57,1.34v.23ZM355.17,207.51c1,.41,4.91,1.93,6.78,2,2.22.06,239.67,15.74,256,16.81l-.35-47.26-1-.83L361.84,166.27h-.07a9.58,9.58,0,0,0-6.57.49,7.23,7.23,0,0,0-3.41,4.55C349.63,178.63,354.61,204.61,355.17,207.51Z" style="fill:#263238"></path></g><g id="freepik--book-1--inject-62"><path d="M396.16,424s9.34,13.47,19.1,13.26C480.32,435.84,592.52,467,605.54,467s22.7-1.15,22.7-3.92-45.79-184-45.79-184l-9.08-2.76,31.18,176.86s-38.69-5.52-116.85-18.55-75-24-84.44-22.06S396.16,424,396.16,424Z" style="fill:#00875A"></path><path d="M605.54,467.48c-3.94,0-16.74-2.79-34.45-6.65-41.24-9-110.29-24.08-155.82-23H415c-9.82,0-18.89-12.92-19.27-13.47l-.08-.17c0-.18-1.08-4.48,1.14-8a9.35,9.35,0,0,1,6.35-4c3.4-.7,5.26.18,9.32,2.12,7.75,3.69,23.87,11.36,75.3,19.94,71.72,12,110.64,17.65,116.16,18.45l-31.21-177,10.13,3.09.07.27c1.87,7.4,45.81,181.3,45.81,184.09S620.94,467.48,605.54,467.48Zm-185.8-30.74c45.62,0,111.61,14.39,151.56,23.11,17.65,3.85,30.4,6.63,34.24,6.63,16.37,0,22.2-1.76,22.2-3.42C627.6,460.37,597.82,342,582,279.49l-8-2.44,31.17,176.74-.69-.1c-.38-.06-39.59-5.68-116.86-18.56-51.58-8.59-67.78-16.31-75.57-20-4-1.89-5.62-2.68-8.68-2a8.4,8.4,0,0,0-5.72,3.59,10.41,10.41,0,0,0-1,7.16c.78,1.09,9.65,13.16,18.63,13C416.72,436.75,418.22,436.74,419.74,436.74Z" style="fill:#263238"></path><path d="M614.82,462.27c-13.42-.79-39.53-7.58-104-20.81s-112.74-21.24-112.74-21.24l-1.36,4.65c2.23,2.93,10.21,12.6,18.49,12.42C480.32,435.84,592.52,467,605.54,467s22.7-1.15,22.7-3.92C628.24,462.84,621.51,462.67,614.82,462.27Z" style="fill:#263238"></path><path d="M605.54,467.48c-3.94,0-16.74-2.79-34.45-6.65-41.24-9-110.27-24.07-155.82-23-8.54.22-16.61-9.61-18.9-12.62l-.15-.2,1.55-5.31.44.07c.48.08,49.08,8.17,112.76,21.24,23.08,4.74,41.15,8.63,55.66,11.76,25.56,5.51,39.64,8.54,48.22,9h0c2.55.15,5.12.27,7.31.37,6.58.31,6.58.31,6.58.92C628.74,466,620.94,467.48,605.54,467.48Zm-185.8-30.74c45.62,0,111.61,14.39,151.56,23.11,17.65,3.85,30.4,6.63,34.24,6.63,15.11,0,21.24-1.5,22.09-3-.92-.1-3.17-.2-5.52-.31-2.19-.1-4.76-.22-7.32-.37-8.65-.51-22.76-3.55-48.37-9.06-14.51-3.13-32.58-7-55.65-11.76-60.45-12.41-107.29-20.32-112.29-21.16l-1.16,4c2.38,3.09,9.93,12,17.71,12h.22C416.72,436.75,418.22,436.74,419.74,436.74Z" style="fill:#263238"></path><path d="M185.34,272s-4.74,1.58-5.52,5.13-46.19,185.55-41.85,186,243.58,2,246.34-.79S396.16,424,396.16,424L376,451.27l-207.65-5.13,24.87-169.76Z" style="fill:#00875A"></path><path d="M287.91,464.48c-68.59,0-148.69-.75-150-.87a.66.66,0,0,1-.49-.29c-.72-1-2.92-4.1,39.81-177.73,1.24-5,2-8.1,2.09-8.53.84-3.78,5.65-5.43,5.85-5.49l.21-.07,8.39,4.61L168.94,445.65l206.84,5.12,21.49-29.09-.63,2.48c-.93,3.65-9.19,35.74-12,38.52C383.28,464.07,338.75,464.48,287.91,464.48Zm-149.7-1.85c7.93.22,240.58,1.93,245.81-.7,2-2,8.11-24.38,11-35.53l-18.76,25.38H376l-208.22-5.14.08-.56,24.82-169.42-7.39-4.06c-.88.34-4.37,1.86-5,4.69-.09.44-.84,3.49-2.09,8.55C142.05,432.77,137.52,460,138.21,462.63Z" style="fill:#263238"></path><path d="M384.31,462.33c2.77-2.77,11.85-38.3,11.85-38.3l-1.34,1.8L382.34,458l-242,3.12-2.41,2C142.31,463.51,381.55,465.09,384.31,462.33Z" style="fill:#263238"></path><path d="M287.91,464.48c-68.59,0-148.69-.75-150-.87l-1.2-.11,3.48-2.9h.18L382,457.49l12.42-31.95,2.85-3.86-.63,2.48c-.93,3.65-9.19,35.74-12,38.52h0C383.28,464.07,338.76,464.48,287.91,464.48Zm-148.6-1.83c19,.29,238.89,1.84,244.68-.71,2-2.17,7.84-23.31,10.81-34.66l-12.12,31.2h-.33L140.57,461.6Z" style="fill:#263238"></path><polygon points="190.87 269.67 185.34 272.04 147.05 457.19 382.34 457.98 398.13 417.32 177.05 427.98 197.58 269.28 190.87 269.67" style="fill:#fff"></polygon><path d="M382.68,458.48h-.34l-235.91-.79,38.48-186,5.93-2.51,7.31-.43-.07.6L177.62,427.45l221.26-10.66Zm-235-1.78,234.34.78,15.39-39.62L176.48,428.51l.08-.59L197,269.81l-6,.36-5.21,2.23Z" style="fill:#263238"></path><polygon points="162.84 433.9 152.11 451.75 147.05 457.19 382.34 457.98 398.13 417.32 177.05 427.98 162.84 433.9" style="fill:#e0e0e0"></polygon><path d="M382.68,458.48h-.34l-236.44-.79,5.81-6.25L162.5,433.5l14.53-6,221.85-10.69ZM148.19,456.7l233.81.78,15.39-39.62L177.16,428.48l-14,5.82-10.7,17.79Z" style="fill:#263238"></path><polygon points="398.13 417.32 398.13 381 208.24 401.92 194.03 426.8 398.13 417.32" style="fill:#b8b8b8"></polygon><path d="M193.14,427.34l14.79-25.88.26,0,190.44-21V417.8l-.48,0Zm15.41-24.95-13.64,23.86,202.72-9.41V381.56Z" style="fill:#263238"></path><path d="M199.55,249.54l-5.52.79L162.84,433.9s25.66-2,60.4-10.26,105.41-20.93,129.1-17.37S396.16,424,396.16,424s29.56,5.87,62.72,12.58,82.51,17,115.28,22.51,40.66,3.15,40.66,3.15l-40.66-189.1L570.21,272l21.71,171.33S455,405.48,436.82,405.48s-28-19.35-64.35-26.45-77,7.1-111.33,13a475.89,475.89,0,0,0-63.56,15.8l9.08-158.31Z" style="fill:#e0e0e0"></path><path d="M608.1,463.29c-5.9,0-16.35-.7-34-3.68C546.5,455,507.22,447,475.66,440.53l-16.88-3.43c-32.78-6.63-62.42-12.52-62.72-12.58l-.19-.08c-.2-.14-20.32-14.18-43.61-17.68-24.06-3.61-97,9.75-128.9,17.36a435.69,435.69,0,0,1-60.48,10.28l-.64.05.11-.63L193.6,249.88l6-.84h7.64l-9.07,158.1a483,483,0,0,1,62.94-15.58c8.66-1.49,17.59-3.48,27.05-5.59,28.13-6.28,57.21-12.76,84.46-7.43,19.67,3.85,31.66,11.3,41.3,17.28,8.23,5.12,14.73,9.16,22.95,9.16,17.53,0,142.62,34.38,154.51,37.66L569.61,271.29l5,1.49.06.29L615.4,462.62l-.44.13C614.81,462.8,613.05,463.29,608.1,463.29ZM396.36,423.56c1.94.39,30.8,6.12,62.62,12.56l16.88,3.43c31.55,6.43,70.82,14.42,98.38,19.07,28.07,4.74,37.89,3.64,40,3.27L573.73,273.57l-2.93-.88L592.51,444l-.72-.2c-1.37-.38-137.08-37.83-155-37.83-8.51,0-15.12-4.11-23.48-9.31-9.56-5.94-21.47-13.34-41-17.15-27-5.29-56,1.17-84,7.42-9.47,2.11-18.41,4.11-27.1,5.61a479.38,479.38,0,0,0-63.49,15.77l-.7.24L206.13,250h-6.54l-5.13.73-31,182.58a443.59,443.59,0,0,0,59.69-10.2c33-7.87,104.77-21,129.28-17.38C375.15,409.18,394.87,422.53,396.36,423.56Z" style="fill:#263238"></path><polygon points="177.05 427.98 162.84 433.9 194.03 250.33 206.66 249.54 177.05 427.98" style="fill:#fff"></polygon><path d="M162.19,434.71,193.6,249.85l13.66-.85L177.5,428.34ZM194.45,250.8l-31,182.29,13.12-5.47,29.46-177.54Z" style="fill:#263238"></path><path d="M393.39,225.06s3.56-6.32,35.93,2,66.27,29.16,93.91,33.1S569,268,569,268l37.51,190.29S545.34,450,487.7,434.64,405.63,409,398.13,417.32Z" style="fill:#fff"></path><path d="M607.15,458.92l-.69-.1c-.61-.08-61.88-8.47-118.89-23.7-13.72-3.66-25.42-7-35.73-9.93C420,416.12,404,411.57,398.5,417.66l-.84.92-4.77-193.64.07-.12c.15-.28,4.11-6.56,36.48,1.73,14.78,3.79,29.9,10.2,44.52,16.39,17.67,7.49,34.35,14.57,49.34,16.71,27.33,3.9,45.65,7.86,45.83,7.9l.32.07ZM407,413.85c8.7,0,22.87,4,45.15,10.38,10.31,2.93,22,6.26,35.72,9.93C541.5,448.49,599,456.76,605.9,457.73L568.6,268.46c-2.56-.54-20.12-4.2-45.44-7.82-15.12-2.16-31.86-9.26-49.59-16.77-14.58-6.19-29.67-12.58-44.38-16.35-29-7.44-34.62-3-35.29-2.29l4.7,191C400.53,414.58,403.25,413.85,407,413.85Z" style="fill:#263238"></path><path d="M558.84,292c-63.72-14-67.55-14.42-67.69-14.43l0-1c.08,0,2.79.16,67.87,14.46Z" style="fill:#263238"></path><path d="M560.24,300.21c-8.12-1.79-15.6-3.45-22.31-4.95-8.49-1.89-15.82-3.52-21.66-4.77-22.06-4.73-24.37-4.93-24.46-4.94l.05-1c.08,0,2.15.15,24.62,5,5.84,1.25,13.17,2.89,21.66,4.78l22.32,4.94Z" style="fill:#263238"></path><path d="M561.64,308.43c-8.46-1.86-16.81-3.76-24.19-5.44-7.87-1.79-14.66-3.33-20.24-4.53-21.66-4.64-24.63-4.9-24.75-4.91l.07-1c.11,0,3,.24,24.89,4.93,5.58,1.2,12.38,2.75,20.26,4.54,7.37,1.67,15.72,3.57,24.18,5.43Z" style="fill:#263238"></path><path d="M563,316.65c-8-1.75-16.15-3.65-24.06-5.49-7.74-1.79-15.06-3.49-20.82-4.73-21.17-4.54-25-4.87-25-4.88l.07-1c.15,0,3.85.32,25.19,4.9,5.77,1.24,13.09,2.93,20.84,4.73,7.91,1.83,16.09,3.73,24,5.48Z" style="fill:#263238"></path><path d="M564.45,324.87c-7.28-1.6-15.48-3.54-23.4-5.41-8.15-1.92-15.85-3.75-21.95-5-20.64-4.43-25.29-4.85-25.34-4.85l.08-1c.18,0,4.7.41,25.47,4.87,6.11,1.31,13.81,3.13,22,5.06,7.92,1.87,16.11,3.8,23.38,5.4Z" style="fill:#263238"></path><path d="M565.85,333.09c-6.54-1.44-14.63-3.38-22.46-5.26-8.28-2-16.85-4.06-23.34-5.45-20.11-4.32-25.58-4.82-25.64-4.82l.09-1c.22,0,5.55.5,25.76,4.84,6.5,1.4,15.07,3.46,23.37,5.45,7.82,1.88,15.9,3.83,22.43,5.26Z" style="fill:#263238"></path><path d="M567.25,341.31c-5.79-1.27-13.36-3.12-21.38-5.08-8.82-2.16-18-4.39-24.88-5.88-19.55-4.2-25.86-4.78-25.92-4.79l.08-1c.06,0,6.41.58,26.05,4.8,6.94,1.5,16.08,3.73,24.91,5.89,8,1.95,15.57,3.8,21.35,5.07Z" style="fill:#263238"></path><path d="M568.65,349.53c-5-1.11-12.39-2.93-20.16-4.86-9.41-2.34-19.14-4.75-26.55-6.35-19-4.08-26.15-4.75-26.22-4.75l.09-1c.07,0,7.26.68,26.34,4.77,7.42,1.6,17.16,4,26.58,6.36,7.77,1.93,15.1,3.75,20.13,4.85Z" style="fill:#263238"></path><path d="M570.05,357.75c-4.32-.95-11.35-2.72-18.78-4.59-9.58-2.42-20.44-5.16-28.39-6.87-18.44-4-26.43-4.71-26.51-4.72l.09-1c.08,0,8.12.77,26.63,4.75,8,1.71,18.83,4.45,28.42,6.87,7.43,1.87,14.45,3.64,18.76,4.59Z" style="fill:#263238"></path><path d="M571.45,366c-3.62-.79-10-2.41-17.3-4.29-10.22-2.62-21.8-5.58-30.32-7.42-17.88-3.84-26.72-4.68-26.8-4.69l.09-1c.09,0,9,.85,26.92,4.71,8.54,1.84,20.13,4.8,30.36,7.42,7.33,1.87,13.66,3.5,17.27,4.29Z" style="fill:#263238"></path><path d="M572.85,374.2c-2.94-.65-8.83-2.18-15.65-3.95-10.37-2.69-23.27-6-32.43-8-17.31-3.73-27-4.66-27.09-4.66l.09-1A262.09,262.09,0,0,1,525,361.26c9.18,2,22.09,5.33,32.47,8,6.81,1.77,12.69,3.3,15.62,3.94Z" style="fill:#263238"></path><path d="M574.26,382.42c-2.31-.51-7.42-1.86-13.89-3.56-10.46-2.75-24.79-6.52-34.65-8.65a262.22,262.22,0,0,0-27.39-4.63l.1-1a265.23,265.23,0,0,1,27.5,4.65c9.88,2.13,24.22,5.91,34.7,8.67,6.45,1.69,11.55,3,13.84,3.54Z" style="fill:#263238"></path><path d="M575.66,390.64c-1.71-.38-6.21-1.58-11.9-3.1-11.16-3-26.44-7.06-37.1-9.36a266.13,266.13,0,0,0-27.67-4.6l.09-1a266.56,266.56,0,0,1,27.79,4.61c10.68,2.31,26,6.39,37.15,9.38,5.68,1.51,10.16,2.71,11.85,3.08Z" style="fill:#263238"></path><path d="M577.06,398.86c-1.16-.26-4.73-1.22-9.67-2.56-10.54-2.86-28.2-7.64-39.78-10.15a274.26,274.26,0,0,0-28-4.57l.1-1a270.11,270.11,0,0,1,28.08,4.59c11.61,2.5,29.28,7.29,39.83,10.15,4.93,1.34,8.49,2.3,9.62,2.55Z" style="fill:#263238"></path><path d="M578.46,407.08c-.67-.15-3.25-.86-7.15-1.93-10.5-2.9-30-8.28-42.76-11a275.06,275.06,0,0,0-28.26-4.53l.1-1a275.54,275.54,0,0,1,28.37,4.56c12.74,2.75,32.3,8.14,42.81,11,3.75,1,6.46,1.78,7.1,1.92Z" style="fill:#263238"></path><path d="M579.86,415.3c-.26-.06-1.63-.44-4.1-1.13-9.58-2.69-32-9-46.26-12.07A280.46,280.46,0,0,0,501,397.59l.09-1a285.7,285.7,0,0,1,28.67,4.53c14.29,3.09,36.74,9.39,46.32,12.08,2.21.62,3.81,1.07,4.05,1.12Z" style="fill:#263238"></path><path d="M581.23,423.51c-.32-.09-32.58-9.5-50.79-13.44-13.94-3-28.69-4.46-28.84-4.48l.1-1a291.57,291.57,0,0,1,28.95,4.49c18.24,4,50.54,13.37,50.86,13.46Z" style="fill:#263238"></path><path d="M481,274.76c-12.41-5.71-21.14-10.69-28.15-14.69-7.29-4.17-13.06-7.45-19.42-9.51a116.82,116.82,0,0,0-27.72-4.82l0-1a117.5,117.5,0,0,1,28,4.87c6.47,2.09,12.27,5.4,19.62,9.59,7,4,15.7,9,28.07,14.65Z" style="fill:#263238"></path><path d="M481.67,282.88c-11.13-5.12-19.33-9.74-25.92-13.45-7.69-4.33-13.77-7.75-20.9-10.06-13.82-4.49-27.84-5.23-28.92-5.06l-.26-1c.66-.2,15,.38,29.49,5.08,7.23,2.34,13.34,5.78,21.08,10.14,6.91,3.89,14.75,8.31,25.85,13.42Z" style="fill:#263238"></path><path d="M482.3,291c-9.92-4.57-17.25-8.64-23.72-12.24-8.05-4.48-14.41-8-22.34-10.6-15.52-5.06-29.37-5.54-30.22-5.29l-.3-1c1.2-.38,15.54.31,30.83,5.3,8,2.62,14.42,6.17,22.52,10.68,6.45,3.58,13.76,7.65,23.65,12.2Z" style="fill:#263238"></path><path d="M482.94,299.13c-8.78-4-15.56-7.76-21.54-11-8-4.42-15-8.23-23.77-11.11-16.36-5.36-30.09-6-31.56-5.53l-.3-.95c2-.64,16.15.28,32.17,5.53,8.87,2.9,15.85,6.74,23.94,11.18,6,3.28,12.73,7,21.47,11Z" style="fill:#263238"></path><path d="M483.57,307.26c-7.69-3.54-13.9-6.91-19.38-9.88-8.32-4.52-15.5-8.41-25.18-11.6-17.52-5.76-31-6.35-32.89-5.75l-.3-.95c2.43-.78,16.77.25,33.51,5.75,9.76,3.21,17,7.13,25.34,11.67,5.46,3,11.66,6.32,19.31,9.85Z" style="fill:#263238"></path><path d="M484.2,315.38c-6.66-3.06-12.05-5.95-17.25-8.75-8.55-4.58-15.94-8.54-26.55-12-18.53-6.12-31.81-6.75-34.23-6l-.3-.95c3.05-1,17.31.19,34.84,6,10.7,3.53,18.48,7.7,26.71,12.11,5.19,2.79,10.57,5.67,17.2,8.72Z" style="fill:#263238"></path><path d="M484.83,323.5c-5.69-2.61-10.51-5.17-15.16-7.64-8.37-4.43-16.27-8.62-27.88-12.47-19.07-6.31-32.58-7.16-35.57-6.2l-.3-1c3.58-1.14,17.56,0,36.18,6.21,11.69,3.88,19.63,8.08,28,12.54,4.65,2.46,9.46,5,15.12,7.61Z" style="fill:#263238"></path><path d="M485.46,331.63c-4.78-2.2-9-4.43-13.13-6.58-8.48-4.45-16.5-8.65-29.16-12.85-20.35-6.77-33.43-7.54-36.9-6.44l-.3-.95c4.49-1.43,19.17.34,37.52,6.44,12.74,4.23,21.16,8.65,29.31,12.92,4.09,2.14,8.32,4.36,13.08,6.55Z" style="fill:#263238"></path><path d="M486.09,339.75c-3.94-1.81-7.44-3.63-11.15-5.55A189.55,189.55,0,0,0,444.56,321c-19.86-6.62-33.75-8.09-38.24-6.66l-.3-.95c4.8-1.53,18.67-.06,38.86,6.66a191,191,0,0,1,30.52,13.26c3.7,1.92,7.19,3.73,11.11,5.53Z" style="fill:#263238"></path><path d="M486.72,347.87c-3.16-1.45-6.11-3-9.24-4.57A201.9,201.9,0,0,0,446,329.81c-22.05-7.37-35.1-8.31-39.58-6.89l-.3-.95c4.84-1.54,17.94-.54,40.2,6.89a203,203,0,0,1,31.67,13.55c3.11,1.6,6.06,3.11,9.2,4.56Z" style="fill:#263238"></path><path d="M487.35,356c-2.45-1.13-4.86-2.36-7.42-3.65a215.75,215.75,0,0,0-32.59-13.74c-27.83-9.31-37.89-8.08-40.92-7.11l-.3-1c6.6-2.09,21.74.5,41.53,7.12a214.88,214.88,0,0,1,32.73,13.8c2.55,1.29,4.95,2.51,7.39,3.63Z" style="fill:#263238"></path><path d="M488,364.12c-1.82-.84-3.71-1.79-5.71-2.79a228,228,0,0,0-33.55-13.92c-26.28-8.81-37.48-8.85-42.25-7.33l-.3-1c7-2.24,21.87.3,42.87,7.35a229.62,229.62,0,0,1,33.68,14c2,1,3.88,1.94,5.68,2.77Z" style="fill:#263238"></path><path d="M488.61,372.25c-1.26-.59-2.59-1.25-4.13-2-6.12-3-15.37-7.63-34.37-14-21.74-7.31-36.4-9.85-43.59-7.57l-.3-.95c7.49-2.38,21.95.09,44.21,7.57,19.06,6.41,28.35,11,34.49,14.07,1.54.76,2.86,1.42,4.11,2Z" style="fill:#263238"></path><path d="M489.24,380.37c-.79-.37-1.68-.8-2.72-1.31-5.41-2.66-14.47-7.11-35-14-23-7.74-37.29-10.22-44.93-7.79l-.3-1c7.85-2.5,22.32,0,45.55,7.8,20.61,6.94,29.71,11.41,35.14,14.08,1,.51,1.92.94,2.7,1.3Z" style="fill:#263238"></path><path d="M489.87,388.49l-1.52-.73c-4-1.92-13.21-6.43-35.46-13.93-24.32-8.2-38.16-10.6-46.26-8l-.31-.95c8.33-2.65,22.35-.25,46.89,8,22.31,7.53,31.61,12.05,35.58,14,.6.3,1.09.54,1.5.72Z" style="fill:#263238"></path><path d="M490.5,396.62l-.58-.28c-7.62-3.68-19.61-8.29-35.65-13.71-25.33-8.55-39.12-10.94-47.59-8.24l-.31-1c8.82-2.8,22.34-.49,48.22,8.26,16.08,5.43,28.11,10.05,35.76,13.75l.57.27Z" style="fill:#263238"></path><path d="M491.12,404.73c-.08,0-8.38-4.13-35.46-13.29-26.7-9-40-11.33-48.93-8.48l-.31-.95c9.2-2.93,22.63-.63,49.56,8.48,27.17,9.19,35.51,13.31,35.59,13.35Z" style="fill:#263238"></path><path d="M393.39,225.06l4.74,192.26s-14.21-29.21-52.11-28-121.59,30.4-135,33.16S177.05,428,177.05,428l22.5-183.57S299,226.25,320,219.93s39.09-13,52.51-9.87S393.39,215.59,393.39,225.06Z" style="fill:#fff"></path><path d="M176.48,428.56l.08-.64L199.1,244l.36-.07c1-.18,99.7-18.22,120.36-24.46q4.06-1.23,8-2.45c17.69-5.48,33-10.21,44.78-7.43,13.21,3.11,21.31,5.52,21.31,15.48l4.8,194.55-1-2.06c-.14-.29-14.53-28.92-51.65-27.75-27.84.87-80.37,16.88-111.76,26.44-11.38,3.47-19.61,6-23.17,6.71-13.28,2.74-33.78,5.51-34,5.54ZM200,244.83,177.63,427.4c3.58-.5,21.35-3,33.27-5.44,3.52-.72,12.15-3.35,23.08-6.68,31.44-9.58,84-25.61,112-26.49,32.33-1,47.72,20.21,51.58,26.55l-4.69-190.28c0-9.23-7.42-11.43-20.53-14.51-11.56-2.72-26.71,2-44.26,7.41-2.62.8-5.28,1.63-8,2.45C300,226.47,206.62,243.62,200,244.83Z" style="fill:#263238"></path><rect x="220.31" y="257.82" width="75.55" height="1" transform="matrix(0.98, -0.22, 0.22, 0.98, -50.04, 62.37)" style="fill:#263238"></rect><path d="M220.51,275.25l-.22-1c16.19-3.65,47-10.62,47.87-10.89,1-.32,25.46-5.76,26.5-6l.21,1c-8.79,2-25.63,5.73-26.41,6C267.36,264.69,222.42,274.82,220.51,275.25Z" style="fill:#263238"></path><path d="M219.7,283.47l-.22-1c.46-.11,46.13-10.52,48.26-11.19s25.72-5.9,26.73-6.13l.22,1c-.25,0-24.68,5.48-26.65,6.1C265.87,273,221.59,283,219.7,283.47Z" style="fill:#263238"></path><path d="M218.9,291.69l-.23-1c.45-.1,45.44-10.48,48.66-11.49,3-.94,26-6.05,26.95-6.26l.22,1c-.24.06-23.92,5.31-26.87,6.24C264.38,281.2,220.75,291.27,218.9,291.69Z" style="fill:#263238"></path><path d="M218.09,299.92l-.23-1c.45-.1,44.76-10.45,49.05-11.8,4-1.25,26.24-6.18,27.19-6.39l.21,1c-.23,0-23.16,5.13-27.1,6.37C262.88,289.46,219.91,299.49,218.09,299.92Z" style="fill:#263238"></path><path d="M217.28,308.13l-.23-1c.44-.1,44.08-10.41,49.45-12.1,5-1.56,26.5-6.32,27.41-6.52l.22,1c-.23.05-22.4,5-27.33,6.5C261.39,297.71,219.08,307.71,217.28,308.13Z" style="fill:#263238"></path><path d="M216.47,316.36l-.23-1c.43-.1,43.39-10.37,49.84-12.4,6-1.88,27.43-6.61,27.64-6.66l.22,1c-.22.05-21.64,4.77-27.56,6.63C259.9,306,216.9,316.25,216.47,316.36Z" style="fill:#263238"></path><path d="M215.66,324.58l-.23-1c.42-.1,42.71-10.34,50.23-12.7,7-2.19,27.67-6.75,27.88-6.79l.21,1c-.21.05-20.87,4.6-27.79,6.77C258.41,314.23,216.09,324.47,215.66,324.58Z" style="fill:#263238"></path><path d="M214.85,332.8l-.23-1c.41-.11,42-10.31,50.63-13,7.94-2.5,27.9-6.88,28.1-6.93l.22,1c-.21,0-20.12,4.42-28,6.9C256.91,322.48,215.27,332.7,214.85,332.8Z" style="fill:#263238"></path><path d="M214.05,341l-.25-1c.42-.1,41.35-10.27,51-13.32,8.94-2.81,28.14-7,28.33-7.05l.22,1c-.19,0-19.35,4.23-28.25,7C255.42,330.74,214.46,340.92,214.05,341Z" style="fill:#263238"></path><path d="M213.24,349.24l-.25-1c.41-.1,40.66-10.24,51.43-13.62,9.92-3.12,28.37-7.15,28.56-7.19l.21,1c-.18,0-18.59,4.06-28.48,7.16C253.93,339,213.64,349.14,213.24,349.24Z" style="fill:#263238"></path><path d="M212.43,357.46l-.25-1c.4-.1,40-10.2,51.82-13.92,10.92-3.43,28.61-7.28,28.79-7.32l.21,1c-.17,0-17.83,3.87-28.7,7.29C252.43,347.25,212.83,357.36,212.43,357.46Z" style="fill:#263238"></path><path d="M211.62,365.68l-.25-1c.39-.1,39.3-10.16,52.21-14.22,11.91-3.75,28.86-7.42,29-7.46l.21,1c-.17,0-17.07,3.7-28.94,7.43C250.94,355.51,212,365.58,211.62,365.68Z" style="fill:#263238"></path><path d="M210.81,373.9l-.25-1c.38-.1,38.61-10.13,52.61-14.52,12.9-4.06,29.09-7.56,29.25-7.59l.21,1c-.16,0-16.31,3.52-29.16,7.56C249.45,363.76,211.2,373.8,210.81,373.9Z" style="fill:#263238"></path><path d="M210,382.12l-.26-1c.38-.11,37.93-10.1,53-14.84,13.89-4.36,29.33-7.68,29.48-7.72l.21,1c-.15,0-15.54,3.34-29.39,7.7C248,372,210.38,382,210,382.12Z" style="fill:#263238"></path><path d="M209.2,390.34l-.26-1c.37-.1,37.24-10.06,53.39-15.14,14.89-4.68,29.57-7.82,29.72-7.85l.2,1c-.14,0-14.78,3.16-29.62,7.82C246.46,380.28,209.57,390.24,209.2,390.34Z" style="fill:#263238"></path><path d="M208.39,398.56l-.26-1c.36-.1,36.56-10,53.79-15.44,15.87-5,29.8-8,29.94-8l.21,1c-.14,0-14,3-29.85,8C245,388.53,208.75,398.46,208.39,398.56Z" style="fill:#263238"></path><path d="M305.57,247.59l-.31-1c2.82-.9,69.18-21.9,79.25-10.83l-.74.68C374.13,225.88,306.25,247.37,305.57,247.59Z" style="fill:#263238"></path><path d="M305.35,255.56l-.31-.95c.24-.08,23.61-7.58,44.4-11.49,8.82-1.64,29.9-4.84,35.1.88l-.74.68c-3.37-3.72-16.15-3.93-34.18-.58C328.9,248,305.58,255.48,305.35,255.56Z" style="fill:#263238"></path><path d="M305.13,263.53l-.3-.95c.23-.08,24-7.79,44.53-11.59,17.79-3.22,31.62-2.75,35.21,1.2l-.74.68c-3.31-3.65-17.1-4-34.29-.89C329.1,255.76,305.37,263.45,305.13,263.53Z" style="fill:#263238"></path><path d="M304.92,271.5l-.32-.95c.25-.08,24.44-8.05,44.67-11.68,16.91-3,31.77-2.4,35.33,1.51l-.74.68c-3.29-3.62-18.08-4.14-34.41-1.21C329.29,263.47,305.16,271.42,304.92,271.5Z" style="fill:#263238"></path><path d="M304.7,279.47l-.31-1c.24-.08,24.85-8.27,44.8-11.78,16.33-2.87,31.9-2.07,35.44,1.83l-.74.68c-2.86-3.15-16.87-4.63-34.53-1.53C329.49,271.22,305,279.39,304.7,279.47Z" style="fill:#263238"></path><path d="M304.49,287.45l-.32-.95c.25-.09,25.27-8.5,44.94-11.89,17.38-3,32.41-1.3,35.56,2.15l-.75.68c-2.5-2.76-16.28-5-34.64-1.84C329.69,279,304.74,287.36,304.49,287.45Z" style="fill:#263238"></path><path d="M304.27,295.42l-.32-.95c.25-.09,25.69-8.72,45.08-12C367.69,279.34,382,282,384.7,285l-.74.68c-2.27-2.5-15.83-5.35-34.77-2.16C329.89,286.72,304.52,295.33,304.27,295.42Z" style="fill:#263238"></path><path d="M304.05,303.39l-.32-.95c.26-.09,26.12-8.93,45.21-12.08s33.39.15,35.79,2.78l-.74.68c-2.21-2.43-16.52-5.5-34.88-2.48C330.09,294.48,304.31,303.3,304.05,303.39Z" style="fill:#263238"></path><path d="M303.84,311.36l-.33-.94c.26-.1,26.54-9.15,45.35-12.19,18.66-3,33.5.47,35.9,3.1L384,302c-2-2.2-16.32-5.81-35-2.79S304.1,311.27,303.84,311.36Z" style="fill:#263238"></path><path d="M303.62,319.33l-.33-.94c.27-.1,27-9.36,45.49-12.29,19-3,33.84,1,36,3.42l-.74.68c-1.6-1.76-15.68-6.18-35.12-3.11C330.5,310,303.89,319.24,303.62,319.33Z" style="fill:#263238"></path><path d="M303.4,327.3l-.33-.94c.27-.1,27.38-9.57,45.63-12.38,19.75-3.05,34.39,1.83,36.12,3.73l-.74.68c-1.2-1.32-14.74-6.59-35.23-3.43C330.7,317.77,303.67,327.21,303.4,327.3Z" style="fill:#263238"></path><path d="M303.18,335.28l-.33-.95c.28-.1,27.81-9.77,45.76-12.48,20.83-3.15,34.95,2.63,36.24,4l-.74.68c-1.07-1.19-15-6.81-35.35-3.74C330.9,325.53,303.46,335.18,303.18,335.28Z" style="fill:#263238"></path><path d="M303,343.25l-.34-.95c.28-.09,28.23-10,45.9-12.58,20.68-3,35.2,3.1,36.35,4.37l-.74.68c-.63-.7-14.16-7.2-35.46-4.06C331.1,333.3,303.25,343.15,303,343.25Z" style="fill:#263238"></path><path d="M302.75,351.22l-.34-.94c.29-.11,28.65-10.18,46-12.69,20.62-3,35.28,3.39,36.46,4.69l-.74.68c-.81-.81-14.64-7.39-35.58-4.38C331.31,341.07,303,351.12,302.75,351.22Z" style="fill:#263238"></path><path d="M302.53,359.19l-.33-.94c.28-.1,29.07-10.35,46.16-12.78,21.62-3,35.9,4.25,36.58,5l-.73.68c-1.13-1-15.15-7.54-35.71-4.69C331.51,348.88,302.82,359.09,302.53,359.19Z" style="fill:#263238"></path><path d="M302.32,367.16l-.34-.94c.29-.1,29.49-10.56,46.3-12.88,21.56-2.93,36,4.55,36.7,5.32l-.74.68c-.07,0-13.78-8-35.82-5C331.71,356.63,302.61,367.06,302.32,367.16Z" style="fill:#263238"></path><path d="M302.1,375.13l-.34-.94c.3-.11,29.92-10.77,46.44-13,22.33-3,36.56,5.47,36.7,5.55l-.52.86c-.14-.09-14.08-8.34-36.05-5.41C331.92,364.39,302.39,375,302.1,375.13Z" style="fill:#263238"></path><path d="M474.8,435.93s-3.1-.77-7.92-1.78l.21-1c4.84,1,7.93,1.78,8,1.79Z" style="fill:#263238"></path><path d="M463.29,433.42c-4.22-.83-7.73-3.85-11.44-7-4.68-4-9.52-8.21-16.32-8.41a108.69,108.69,0,0,0-39.19,6.53l-.39.15-.22-.36a62.12,62.12,0,0,0-5.05-6.67l.75-.65a64,64,0,0,1,4.93,6.45,111,111,0,0,1,39.2-6.45c7.15.21,12.13,4.5,16.95,8.65,3.6,3.1,7,6,11,6.82Z" style="fill:#263238"></path><path d="M388.07,414.76a69,69,0,0,0-8-7.15l.6-.79a68.42,68.42,0,0,1,8.1,7.25Z" style="fill:#263238"></path><path d="M380.09,407.61a53.1,53.1,0,0,0-13.21-7.43c-20.56-7.8-43.44-1.94-46-1.25l-.26-1c2.57-.7,25.74-6.63,46.6,1.29a53.92,53.92,0,0,1,13.45,7.57Z" style="fill:#263238"></path><path d="M262.64,413.17l-.22-1c.56-.13,56.22-12.56,80-12A86,86,0,0,1,369.63,405l-.34.94a84.6,84.6,0,0,0-26.93-4.75C318.71,400.64,263.2,413.05,262.64,413.17Z" style="fill:#263238"></path><path d="M378.3,410.25a31.66,31.66,0,0,0-4.61-2.49l.41-.91a35.93,35.93,0,0,1,4.77,2.57Z" style="fill:#263238"></path><rect x="223.87" y="429.16" width="151.28" height="1" transform="translate(-20.23 14.84) rotate(-2.74)" style="fill:#263238"></rect><rect x="381.03" y="425.04" width="8.26" height="1" transform="translate(-19.94 18.93) rotate(-2.74)" style="fill:#263238"></rect><rect x="262.31" y="439.79" width="8.81" height="1" transform="translate(-11.09 6.91) rotate(-1.45)" style="fill:#263238"></rect><rect x="187.39" y="440.92" width="69.88" height="1" transform="translate(-11.13 5.79) rotate(-1.45)" style="fill:#263238"></rect><rect x="360.86" y="444.05" width="7.76" height="1" transform="matrix(1, -0.03, 0.03, 1, -14.55, 12.35)" style="fill:#263238"></rect><rect x="256.26" y="446.01" width="98.4" height="1" transform="matrix(1, -0.03, 0.03, 1, -14.65, 10.38)" style="fill:#263238"></rect><rect x="306.09" y="437.21" width="20.62" height="1" transform="translate(-14.77 11.06) rotate(-1.96)" style="fill:#263238"></rect><rect x="332.33" y="435.79" width="51.14" height="1" transform="translate(-14.69 12.48) rotate(-1.96)" style="fill:#263238"></rect><rect x="231.14" y="448.26" width="7.13" height="1" transform="translate(-12.18 6.58) rotate(-1.57)" style="fill:#263238"></rect><rect x="160.36" y="449.38" width="66.34" height="1" transform="translate(-12.22 5.46) rotate(-1.57)" style="fill:#263238"></rect></g><g id="freepik--Glasses--inject-62"><path d="M279.12,230.29s14.7-19.33,24-27.38,25.17-20.74,31.62-20.74,8.05,4,8.46,5.43S349,209.35,349,210.36s-5.63,2.62-6,1.41-2.82-18.53-3.82-21.75-.81-5-8.46-1.81-30.2,27.38-34.84,33-9.06,11.48-9.06,11.48S281.34,230.29,279.12,230.29Z" style="fill:#263238"></path><path d="M286.93,233.33l-.36-.16c-.05,0-5.37-2.38-7.45-2.38h-1l.61-.8c.15-.19,14.84-19.46,24-27.46,7.21-6.27,24.76-20.86,31.94-20.86,6.57,0,8.44,4.05,8.94,5.8.28,1,5.85,21.74,5.85,22.89s-3.37,2.09-4.27,2.24c-1.59.25-2.51,0-2.74-.67-.16-.5-.55-2.93-1.23-7.19-.84-5.34-2-12.66-2.6-14.57l-.22-.74c-.33-1.14-.58-2-1.21-2.26-.9-.43-2.87,0-6.36,1.5-7.42,3.12-29.72,26.89-34.64,32.88-4.57,5.57-9,11.4-9.05,11.46Zm-6.87-3.44a35.64,35.64,0,0,1,6.55,2.21c1-1.29,4.86-6.34,8.84-11.18,4.41-5.38,27.09-29.83,35-33.17,3.92-1.65,5.94-2.07,7.17-1.48,1,.49,1.36,1.6,1.74,2.88.07.23.14.47.22.72.62,2,1.73,9,2.63,14.71.54,3.39,1,6.59,1.19,7a3,3,0,0,0,1.6,0,7.39,7.39,0,0,0,3.48-1.33c-.07-1-5.31-20.72-5.84-22.55s-2.29-5.07-8-5.07c-7,0-25.73,15.78-31.29,20.62C295.29,210.34,282.81,226.33,280.06,229.89Z" style="fill:#263238"></path><path d="M527.94,250c-.47-.68-1.1-1.47-1.54-1.58-.71-.18-5.43,7.84-6.59,9.82a13.54,13.54,0,0,1,2.16-2.17c0,.6-2.42,12.48-4.63,18.12s-1.62,8.26.6,8.06,5.23-10.27,7-15.91A78.35,78.35,0,0,0,527.94,250Z" style="fill:#fff"></path><path d="M517.71,282.76a2,2,0,0,1-1.7-.8c-1-1.3-.67-4,.86-7.95,1.78-4.53,3.7-13.17,4.36-16.57l-1.05,1.14L517,262l2.36-4.05c6-10.34,6.7-10.17,7.14-10.06s.84.35,1.83,1.78l.1.15V250a77.87,77.87,0,0,1-3,16.46l-.45,1.43c-2.64,8.28-4.83,14.62-7,14.82ZM522,255.54l.15.05.32.12v.36c0,.7-2.45,12.64-4.67,18.3-1.93,4.92-1.34,6.52-1,7a1.12,1.12,0,0,0,1.08.39c1.71-.16,4.72-9.6,6.16-14.13l.46-1.44a77.14,77.14,0,0,0,2.92-16,4.71,4.71,0,0,0-1-1.17A47.81,47.81,0,0,0,522,255.54Z" style="fill:#263238"></path><path d="M527.81,245.8c-.81-3.63-6,1-8.26,4.23s-12.28,14.09-17.92,19.53-26.78,23.56-29,25.17-4.83,4.43-6.44,4.63-5.84,0-7.85-1.21-3-3.42-12.69-8.65S394.1,272.18,391.08,272s-5.44,2.82-9.67,4.63-11.27,2.21-14.29-.41-6.65-9.26-8.66-14.09-5.24-6-8.06-7.65S313.76,238,307.51,235.93s-12.48-3.42-15.3-3.62a20.9,20.9,0,0,0-5.44.4s-.4.6-2-.6-6.85-3.43-8.46-.21-4,10.68-2.62,13.5l1.41,2.82s-1.41,18.12-.8,24.36,5.44,14.3,9.46,19.13,20.14,13.89,32,16.71,19.13,1.21,22.35-1,13.09-13.29,15.51-15.91,2.21-4.23,10.06-1.81,10.68,8.05,12.09,12.28,6.64,21.14,10.87,26.58a50.61,50.61,0,0,0,20.54,16.31c10.27,4.43,17.11,7.85,26.78,6.65s14.9-5.64,17.92-10.88,5-15.7,6-18.93a11,11,0,0,1,4.23-5.23s4-1.81,5.24-4.63,10.67-11.48,10.67-11.48,15.3-12.08,21.14-18.73S522,255.46,522,256.07s-2.42,12.48-4.63,18.12-1.62,8.26.6,8.06,5.23-10.27,7-15.91S528.61,249.42,527.81,245.8ZM356.65,279a12.44,12.44,0,0,1-1.61,3.43c-1.21,1.81-9.27,14.7-14.3,18.72s-10.87,7.45-16.92,6.85-21.54-6.44-33-15.5-13.09-20.95-11.88-32.42,5.24-19.34,11.28-20.54,26,3.82,39.67,11.07,25.37,16.11,26.17,19.13S356.65,279,356.65,279ZM453.1,320.3c-1.21,10.47-3.62,16.52-7.25,21.35s-7.85,7.05-19.13,6-19.73-5.24-27.59-10.87-10.47-13.09-13.49-20.14-8.25-21.14-5.23-30S392.29,280,392.29,280s7.45,1.61,8,1.81,45.11,13.29,47.12,16.31S454.31,309.83,453.1,320.3Z" style="fill:#263238"></path><path d="M430.11,352.26c-7.17,0-13.09-2.57-20.83-5.94l-2.29-1a51,51,0,0,1-20.73-16.46c-3.86-5-8.45-19.06-10.42-25.08-.21-.66-.4-1.22-.54-1.65-1.33-4-4-9.58-11.75-12-6.48-2-7.12-1.21-8.68.66-.26.32-.54.66-.88,1l-1.5,1.64c-3.66,4-11.29,12.42-14.09,14.34-1.64,1.13-8.14,4.55-22.75,1.08-11.69-2.78-28.1-11.86-32.28-16.88-4.34-5.2-9-13.22-9.58-19.4-.58-6,.66-22.5.79-24.32l-1.34-2.69c-1.52-3,1-10.7,2.62-13.94a3.34,3.34,0,0,1,2.33-1.82c2.5-.59,5.77,1,6.87,1.85.86.64,1.25.66,1.35.65l.06-.09.19-.05a21.13,21.13,0,0,1,5.59-.41c3.06.22,9.54,1.75,15.42,3.65,6.24,2,40.26,17,43,18.56l1.08.6c2.51,1.37,5.36,2.91,7.19,7.3,2.11,5.07,5.72,11.48,8.52,13.91s9.54,2.13,13.78.32a28.49,28.49,0,0,0,4.26-2.42c2-1.28,3.65-2.37,5.63-2.25,3.22.21,45.35,12.47,54.78,17.58,6.88,3.72,9.37,5.9,11,7.34a11.77,11.77,0,0,0,1.68,1.32c1.86,1.12,6,1.34,7.54,1.15.93-.12,2.44-1.42,3.91-2.67.76-.65,1.55-1.33,2.3-1.87,2.14-1.56,23.25-19.64,28.94-25.13,5.49-5.3,15.65-16.25,17.86-19.46,1.53-2.22,5.37-6.17,7.67-5.73a1.92,1.92,0,0,1,1.48,1.68c.87,3.91-1.09,15.39-2.83,20.8l-.45,1.43c-2.64,8.28-4.83,14.62-7,14.82a2.07,2.07,0,0,1-2-.78c-1-1.3-.67-4,.86-7.95,1.78-4.53,3.7-13.18,4.36-16.57-2.89,3.07-11.36,12.76-16.73,18.91L499.59,282c-5.8,6.61-21.06,18.67-21.21,18.79-3.22,2.95-9.6,9.13-10.52,11.28-1.27,3-5.32,4.82-5.49,4.89h0a10.56,10.56,0,0,0-4,4.93c-.25.81-.58,2.14-1,3.68-1.13,4.54-2.83,11.4-5.12,15.35-3.69,6.41-9.67,10-18.29,11.12A31.51,31.51,0,0,1,430.11,352.26ZM358,288a21.63,21.63,0,0,1,5.84,1.22c8.2,2.52,11,8.4,12.41,12.6.14.43.33,1,.54,1.66,1.95,6,6.51,20,10.25,24.77a50.05,50.05,0,0,0,20.35,16.16l2.29,1c9,3.9,15.43,6.72,24.23,5.62,8.28-1,14-4.51,17.55-10.63,2.21-3.83,3.9-10.61,5-15.1.39-1.55.72-2.88,1-3.73a11.38,11.38,0,0,1,4.44-5.51c.09-.05,3.92-1.8,5-4.4,1.23-2.89,10.4-11.29,10.79-11.65.18-.14,15.36-12.15,21.11-18.69l4.91-5.61c17.77-20.35,17.87-20.31,18.39-20.11l.32.12v.36c0,.7-2.45,12.64-4.67,18.3-1.93,4.92-1.34,6.52-1,7a1.12,1.12,0,0,0,1.08.39c1.71-.16,4.72-9.6,6.16-14.13l.46-1.44c1.85-5.75,3.57-16.82,2.81-20.27h0c-.16-.73-.48-.87-.7-.92-1.48-.27-4.84,2.68-6.66,5.32-2.29,3.33-12.39,14.22-18,19.61s-26.9,23.65-29.05,25.21c-.72.52-1.49,1.19-2.24,1.83-1.65,1.41-3.21,2.74-4.44,2.9-1.47.18-5.92.08-8.17-1.28a12.64,12.64,0,0,1-1.83-1.42c-1.61-1.42-4.06-3.55-10.84-7.23-9.36-5.07-51.18-17.24-54.36-17.45-1.65-.12-3.14.86-5,2.09a28.53,28.53,0,0,1-4.42,2.5c-4.51,1.93-11.71,2.21-14.82-.49s-6.7-9.26-8.79-14.28c-1.69-4.06-4.26-5.45-6.75-6.8l-1.09-.61c-2.71-1.55-36.58-16.48-42.8-18.48a80.87,80.87,0,0,0-15.19-3.6,20.51,20.51,0,0,0-5.16.36,1,1,0,0,1-.42.17,3,3,0,0,1-2.13-.83c-1.06-.8-4-2.15-6-1.68a2.37,2.37,0,0,0-1.66,1.3c-1.6,3.19-3.9,10.48-2.62,13l1.47,3v.13c0,.19-1.4,18.15-.8,24.28.57,6,5.11,13.77,9.35,18.86,4.08,4.91,20.22,13.81,31.74,16.55,14.22,3.37,20.4.14,22-.94,2.7-1.85,10.27-10.18,13.91-14.18.64-.7,1.15-1.27,1.51-1.65s.59-.68.84-1C355.22,288.84,356,288,358,288Zm73.59,60.43c-1.47,0-3.1-.08-4.91-.24-9.92-.89-18.51-4.27-27.84-11-7.28-5.23-10.12-12-12.87-18.49-.26-.62-.52-1.24-.79-1.85-4-9.25-8.09-22-5.25-30.37,3.14-9.18,12.39-7,12.48-7,.75.16,7.48,1.61,8.09,1.82l1.06.32c20.24,6.05,44.71,13.78,46.32,16.19s7,11.48,5.72,22.48c-1.13,9.77-3.33,16.23-7.35,21.59C443.17,346.05,439.69,348.43,431.59,348.43Zm-41.76-68.16c-2.71,0-7,1-8.95,6.57-2.88,8.46,2,22.2,5.22,29.64.27.62.53,1.24.79,1.86,2.69,6.39,5.48,13,12.54,18.07,9.17,6.59,17.6,9.91,27.34,10.78,11.26,1,15.26-1.27,18.68-5.84,3.91-5.21,6.05-11.52,7.15-21.1,1.23-10.67-3.94-19.4-5.55-21.82-.41-.61-4.92-3.56-45.78-15.79l-1.09-.32c-.42-.14-5-1.15-8-1.8A10.32,10.32,0,0,0,389.83,280.27Zm-64.57,28.32a14.86,14.86,0,0,1-1.49-.07c-6.32-.64-21.81-6.56-33.28-15.61-12.85-10.15-13-23.62-12.07-32.87,1.28-12.1,5.53-19.74,11.68-21s26.13,3.78,40,11.12c13.17,7,25.52,16.06,26.43,19.44.81,3.06.62,9.15.62,9.41l0,.11a12.9,12.9,0,0,1-1.68,3.57c-.13.2-.33.52-.61.94-2.28,3.52-9.23,14.26-13.79,17.9C335.09,306.33,330,308.59,325.26,308.59Zm-32.81-68.72a11.11,11.11,0,0,0-2.16.18c-5.6,1.12-9.67,8.63-10.87,20.1-1.51,14.32,2.2,24.48,11.69,32,10.89,8.6,26.42,14.77,32.76,15.4,4.93.5,10.19-1.64,16.56-6.74,4.43-3.54,11.31-14.17,13.58-17.67l.61-.94a12,12,0,0,0,1.53-3.22c0-.63.15-6.3-.59-9.06s-12.22-11.56-25.93-18.82C317.29,244.54,300.08,239.87,292.45,239.87Z" style="fill:#263238"></path><path d="M371.63,282.81a11.71,11.71,0,0,1-2.61-.28c-7.18-1.59-9.95-9.35-11.78-14.49l-.26-.73c-1.71-4.75-3.42-6-3.43-6l.55-.82c.08.05,2,1.35,3.82,6.48l.26.73c1.76,4.93,4.42,12.38,11.06,13.86,6.92,1.53,14-4.47,14.06-4.53l.66.76C383.69,278,378,282.81,371.63,282.81Z" style="fill:#fff"></path><path d="M461.79,305.77A16.39,16.39,0,0,1,455,304a2.23,2.23,0,0,1-.55-.72c-.93-1.58-3.78-6.36-15.69-11.73-14.09-6.35-46.31-14.39-46.63-14.47l.24-1c.32.08,32.63,8.14,46.8,14.53,12.19,5.5,15.17,10.48,16.14,12.12.11.18.23.38.27.43.41.26,6.28,2.84,9.06.79l.6.81A5.86,5.86,0,0,1,461.79,305.77Z" style="fill:#fff"></path><path d="M351.9,259.47s-4-3.29-20.63-10.8a206.84,206.84,0,0,0-33.81-11.52c-1.18-.31-2.11-.55-2.77-.74a19.55,19.55,0,0,0-10.8.41c-3.05.86-6.76-2.39-6.91-2.53l.66-.75s3.46,3,6,2.31a20.51,20.51,0,0,1,11.34-.4c.66.19,1.59.43,2.75.73a207.33,207.33,0,0,1,34,11.58c16.79,7.59,20.7,10.81,20.86,10.95Z" style="fill:#fff"></path><path d="M285.24,290.68c-9.14-7.93-8.44-21.42-8.43-21.55l1,.06c0,.13-.68,13.14,8.08,20.73Z" style="fill:#fff"></path></g></svg>
