<svg xmlns="http://www.w3.org/2000/svg" viewBox="0 0 500 500"><g id="freepik--background-complete--inject-70"><path d="M372.49,28.47l-5.24,55.22a3.53,3.53,0,0,0,2.79,4L458.46,101a3.56,3.56,0,0,0,3.88-3.2l6.44-42.63A3.57,3.57,0,0,0,466,51l-54.44-7.83a3.18,3.18,0,0,1-2.19-1.41l-7.88-11.81a3.18,3.18,0,0,0-2.17-1.42L376.4,25.05A3.6,3.6,0,0,0,372.49,28.47Z" style="fill:#ebebeb"></path><rect x="368.29" y="37.35" width="97.71" height="65.09" transform="translate(15.13 -61.56) rotate(8.59)" style="fill:#f5f5f5"></rect><path d="M365.15,35l-2.77,68.23a2.24,2.24,0,0,0,1.8,2.4l94.16,14.24A2.29,2.29,0,0,0,460.8,118l14.88-66.39a2.31,2.31,0,0,0-1.74-2.89L367.67,32.68A2.33,2.33,0,0,0,365.15,35Z" style="fill:#ebebeb"></path><path d="M216.91,373,205,411.3a2.6,2.6,0,0,0,1.49,3.27l63.75,24a2.62,2.62,0,0,0,3.34-1.63l11-29.22a2.64,2.64,0,0,0-1.45-3.45l-39.3-14.5a2.43,2.43,0,0,1-1.42-1.37l-4.14-9.68a2.49,2.49,0,0,0-1.4-1.36l-16.53-6.22A2.64,2.64,0,0,0,216.91,373Z" style="fill:#ebebeb"></path><rect x="206.83" y="386.13" width="74.43" height="47.13" transform="translate(160.12 -59.73) rotate(20.64)" style="fill:#f5f5f5"></rect><path d="M210.49,376.39l-12,48a1.69,1.69,0,0,0,1,2L267.35,452a1.68,1.68,0,0,0,2.1-.92l20.75-44.71a1.7,1.7,0,0,0-.87-2.33l-76.62-28.87A1.72,1.72,0,0,0,210.49,376.39Z" style="fill:#ebebeb"></path><path d="M43.7,52l2.68,43.46a2.93,2.93,0,0,0,2.93,2.75h78.22a2.94,2.94,0,0,0,2.94-2.94V61.45a2.94,2.94,0,0,0-3-2.94l-48.1.31A2.93,2.93,0,0,1,77.33,58L69,49.74a2.94,2.94,0,0,0-2.06-.84H46.63A2.92,2.92,0,0,0,43.7,52Z" style="fill:#ebebeb"></path><rect x="45" y="53.38" width="85.47" height="51.07" style="fill:#f5f5f5"></rect><path d="M38.2,58l6.52,53.26a1.89,1.89,0,0,0,1.88,1.66h83.29a1.9,1.9,0,0,0,1.89-1.74L136,57.88a1.89,1.89,0,0,0-1.88-2h-94A1.89,1.89,0,0,0,38.2,58Z" style="fill:#ebebeb"></path><path d="M52.81,299.16s-6.33-.46-5.75,13.76a164.43,164.43,0,0,0,2,21.79s-.18,3.15-2.63,2.53-7-3.68-9.3-1.39-1.51,6,1.61,10.32S48.38,360.14,49,361s.8,2.48-.93,2.32-13.41-4.11-15,1.54,9.12,16.2,10.26,17.38,1.21,1.91.74,2.62-4.26-1-7.63-2-7.45-1.54-8.07,1.79S32.45,397.79,50,408.06l8.46,4.22,8-5.11C83,395.2,86.66,385,85.71,381.75s-4.95-2.3-8.2-1-6.87,3.39-7.4,2.73-.55-1.41.47-2.69S81.16,368,79.05,362.51s-13.33-.37-15,0-1.64-1.3-1.15-2.21,6-11.2,8.66-15.79,3.14-8.3.56-10.43-6.75,1.46-9.12,2.32-2.87-2.26-2.87-2.26a164.3,164.3,0,0,0-.15-21.89c-.84-14.2-7.26-13-7.26-13" style="fill:#ebebeb"></path><path d="M53.31,311.89s0,.1,0,.3,0,.5.07.87c0,.78.13,1.91.22,3.36.2,2.91.45,7.13.73,12.35.58,10.44,1.26,24.86,2,40.79s1.34,30.36,1.86,40.79c.26,5.21.48,9.43.63,12.36.07,1.45.12,2.58.16,3.36,0,.38,0,.67,0,.88v.3s0-.11,0-.3,0-.5-.06-.87c-.06-.79-.13-1.92-.23-3.36-.19-2.92-.44-7.14-.73-12.36-.58-10.43-1.26-24.85-2-40.79s-1.33-30.35-1.85-40.79c-.27-5.2-.48-9.42-.63-12.36-.07-1.44-.13-2.57-.17-3.36,0-.37,0-.66,0-.87Z" style="fill:#e0e0e0"></path><path d="M43.41,340.4s.21.14.53.44.78.74,1.34,1.29c1.12,1.1,2.62,2.67,4.24,4.43l4.14,4.53c.5.54.92,1,1.26,1.37s.46.5.44.52a3.56,3.56,0,0,1-.53-.44c-.32-.29-.78-.73-1.33-1.29-1.11-1.12-2.59-2.71-4.21-4.47l-4.17-4.49-1.27-1.36A3,3,0,0,1,43.41,340.4Z" style="fill:#e0e0e0"></path><path d="M56.2,352.7c-.06-.06,3-3.3,6.91-7.24s7.08-7.07,7.14-7-3,3.3-6.91,7.23S56.26,352.76,56.2,352.7Z" style="fill:#e0e0e0"></path><path d="M56.17,377.21a2.9,2.9,0,0,1,.59-.37l1.65-.93c1.4-.78,3.32-1.87,5.4-3.15s3.93-2.5,5.26-3.39l1.58-1.05a3.85,3.85,0,0,1,.6-.36s-.17.18-.53.46-.87.67-1.52,1.14c-1.3.94-3.13,2.19-5.22,3.47s-4,2.35-5.46,3.08c-.72.37-1.3.65-1.71.84A2.58,2.58,0,0,1,56.17,377.21Z" style="fill:#e0e0e0"></path><path d="M42.15,368.63a3.12,3.12,0,0,1,.59.28l1.53.85c1.29.73,3.06,1.76,5,2.92s3.69,2.22,4.95,3c.63.39,1.13.71,1.48.94a2.49,2.49,0,0,1,.52.38,2.64,2.64,0,0,1-.59-.27c-.36-.2-.89-.49-1.53-.86-1.29-.73-3.05-1.76-5-2.91s-3.69-2.22-5-3c-.63-.39-1.13-.71-1.48-.94A2.63,2.63,0,0,1,42.15,368.63Z" style="fill:#e0e0e0"></path><path d="M39.37,390.27a4,4,0,0,1,.75.36l2,1.09c1.66.93,3.94,2.23,6.44,3.69s4.76,2.79,6.39,3.77l1.91,1.17a4.44,4.44,0,0,1,.68.47,4.17,4.17,0,0,1-.74-.36l-2-1.08c-1.65-.93-3.93-2.24-6.43-3.69S43.6,392.9,42,391.92l-1.92-1.18A3.7,3.7,0,0,1,39.37,390.27Z" style="fill:#e0e0e0"></path><path d="M57.14,400.45a4,4,0,0,1,.74-.49l2-1.26c1.74-1.05,4.13-2.52,6.73-4.22s4.91-3.28,6.58-4.44l2-1.37a6.82,6.82,0,0,1,.75-.48,4.54,4.54,0,0,1-.67.58c-.45.35-1.1.85-1.92,1.46-1.64,1.21-3.93,2.83-6.54,4.53s-5,3.13-6.78,4.14l-2.11,1.17A4.75,4.75,0,0,1,57.14,400.45Z" style="fill:#e0e0e0"></path><polygon points="69.86 415.05 46.45 415.05 54.09 472.87 62.22 472.87 69.86 415.05" style="fill:#e0e0e0"></polygon><path d="M47.67,422.16s0,.08.12.2a1.57,1.57,0,0,0,.57.41,2.82,2.82,0,0,0,2.47-.31c.94-.52,1.77-1.54,3-2a6.65,6.65,0,0,1,4.31.09,18.58,18.58,0,0,1,4,1.94,27.57,27.57,0,0,0,3.26,1.75,8.91,8.91,0,0,0,2.41.69,3.72,3.72,0,0,0,.67.05.64.64,0,0,0,.24,0,12.24,12.24,0,0,1-3.21-1,32.15,32.15,0,0,1-3.19-1.8,17.34,17.34,0,0,0-4.07-2,6.81,6.81,0,0,0-4.54-.05A5.68,5.68,0,0,0,52,421.19a13.29,13.29,0,0,1-1.34,1,2.77,2.77,0,0,1-2.28.4A2.53,2.53,0,0,1,47.67,422.16Z" style="fill:#f5f5f5"></path><path d="M48.52,432.81s.19-.24.55-.63A5.19,5.19,0,0,1,50.94,431a8.26,8.26,0,0,1,3.26-.49,35.07,35.07,0,0,1,4.07.55,13.8,13.8,0,0,0,4.17.18,11.82,11.82,0,0,0,3.28-.94,10.69,10.69,0,0,0,2-1.17,2.88,2.88,0,0,0,.63-.57,20.57,20.57,0,0,1-2.71,1.49,12.08,12.08,0,0,1-3.21.84,14.61,14.61,0,0,1-4.07-.2,28.9,28.9,0,0,0-4.12-.53,8.13,8.13,0,0,0-3.37.59A4.84,4.84,0,0,0,49,432.09a2.75,2.75,0,0,0-.35.51Q48.51,432.8,48.52,432.81Z" style="fill:#f5f5f5"></path><path d="M67.2,438.51a1.73,1.73,0,0,0-.64-.34,6.79,6.79,0,0,0-1.94-.41,12.15,12.15,0,0,0-2.93.16c-1.09.18-2.26.48-3.49.74a14.73,14.73,0,0,1-3.49.4,7.76,7.76,0,0,1-2.76-.6,6.39,6.39,0,0,1-2.1-1.56,1.77,1.77,0,0,0,.39.61,4.87,4.87,0,0,0,1.59,1.19,7.38,7.38,0,0,0,2.87.71,14.2,14.2,0,0,0,3.58-.37c1.24-.27,2.4-.58,3.47-.77A12.48,12.48,0,0,1,64.6,438,10.37,10.37,0,0,1,67.2,438.51Z" style="fill:#f5f5f5"></path><path d="M50.59,446.53a3.68,3.68,0,0,1,2.27-.23,10.87,10.87,0,0,1,2.38.88,8.85,8.85,0,0,0,3.08.85,9.3,9.3,0,0,0,5.6-1.29,9,9,0,0,0,1.4-1.08c.28-.3.43-.47.41-.49a23.15,23.15,0,0,1-1.94,1.33,9.5,9.5,0,0,1-5.43,1.15c-2.22-.12-3.92-1.45-5.46-1.62a3.59,3.59,0,0,0-1.76.15C50.74,446.34,50.58,446.51,50.59,446.53Z" style="fill:#f5f5f5"></path><path d="M51.89,457.62a4.38,4.38,0,0,0,2-.38c1.18-.4,2.64-1.3,4.34-2a7,7,0,0,1,2.48-.53,4.68,4.68,0,0,1,2,.46,4.49,4.49,0,0,1,1.45,1.25s0-.2-.22-.49a3.22,3.22,0,0,0-1.1-1,4.69,4.69,0,0,0-2.12-.57,7,7,0,0,0-2.63.52c-1.76.7-3.17,1.63-4.3,2.07S51.88,457.56,51.89,457.62Z" style="fill:#f5f5f5"></path><path d="M53,462.79a5.4,5.4,0,0,0,1.48.48,26.28,26.28,0,0,0,3.71.62A25.1,25.1,0,0,0,62,464a5.35,5.35,0,0,0,1.55-.18c0-.12-2.37,0-5.27-.31S53.07,462.68,53,462.79Z" style="fill:#f5f5f5"></path></g><g id="freepik--Window--inject-70"><rect x="97.94" y="71.81" width="331.83" height="291.82" style="fill:#fff"></rect><path d="M429.77,363.63c0-1.85-.08-116.18-.22-291.82l.22.22L98,72.07h0l.26-.26c0,106.06,0,205.92,0,291.82l-.23-.23,331.83.23-331.83.23h-.23v-.23c0-85.9,0-185.76,0-291.82v-.26H98l331.8,0H430v.22C429.86,247.46,429.78,361.78,429.77,363.63Z" style="fill:#263238"></path><path d="M169.23,146.44v52.34h63.62V146.44a4.51,4.51,0,0,0-4.51-4.51H173.75A4.51,4.51,0,0,0,169.23,146.44Z" style="fill:#00875A"></path><path d="M156.46,236l14.21-39.09,62.18,1.86-9.27,35.65a3.16,3.16,0,0,1-3.12,2.36l-16.1-.34-2.65,3.75a3.51,3.51,0,0,1-3.05,1.5l-38.92-1.64A3.5,3.5,0,0,1,156.46,236Z" style="fill:#00875A"></path><polygon points="172.64 151.14 172.64 156.5 172.64 192.1 228.56 195.18 228.31 151.14 172.64 151.14" style="fill:#f5f5f5"></polygon><path d="M172.64,151.14h.25l.76,0,3,0L188,151l40.29-.11h.23v.23c.07,12.77.16,27.3.26,42.66,0,.46,0,.93,0,1.38v.27h-.28l-55.91-3.13h-.2v-.2c0-12.42.07-22.66.09-29.81,0-3.55,0-6.34.06-8.27,0-.93,0-1.65,0-2.16s0-.72,0-.72,0,.27,0,.76,0,1.23,0,2.17c0,1.91,0,4.68.06,8.22,0,7.15.06,17.39.09,29.81l-.2-.21,55.92,3-.27.26c0-.45,0-.91,0-1.38-.08-15.35-.15-29.89-.21-42.66l.23.24-40.14-.12-11.42-.06-3,0h-.79Z" style="fill:#263238"></path><path d="M175.57,161.36c.05-1.36,0-7.22,0-7.22,15.63,0,33.14.06,48.77,0,.44,7.74.53,18.18,1,25.92" style="fill:#ebebeb"></path><path d="M225.31,180.07a1.78,1.78,0,0,1-.07-.49c0-.37-.07-.84-.11-1.42-.09-1.24-.18-3.06-.28-5.35-.22-4.58-.34-11.06-.75-18.64l.24.22-15,0c-14,0-26.38,0-33.74-.12l.14-.15c0,2.24-.05,4-.07,5.32q0,.87,0,1.41a3.83,3.83,0,0,1,0,.49,1.72,1.72,0,0,1,0-.49c0-.36,0-.83,0-1.41,0-1.29,0-3.08-.07-5.32V154h.15c7.36-.07,19.72-.11,33.74-.1l15,0h.23v.23c.37,7.6.43,14.08.56,18.66.06,2.25.11,4.06.15,5.35,0,.59,0,1.06,0,1.42A3.8,3.8,0,0,1,225.31,180.07Z" style="fill:#e0e0e0"></path><polygon points="164.1 161.54 175.63 195.18 228.56 195.18 220.65 161.36 164.1 161.54" style="fill:#fff"></polygon><path d="M164.1,161.54h.25l.78,0,3.08,0,11.63-.1,40.81-.26h.19l0,.18,7.6,32.45c.11.46.22.92.32,1.37l.08.32h-.33l-52.93-.05h-.15l0-.14c-3.48-10.3-6.33-18.74-8.33-24.63-1-2.9-1.73-5.17-2.25-6.74-.25-.75-.44-1.34-.58-1.75s-.18-.59-.18-.59l.23.62.63,1.78c.55,1.58,1.35,3.86,2.37,6.76,2,5.84,4.95,14.21,8.5,24.41l-.2-.14,52.93-.05-.26.32c-.1-.45-.21-.91-.32-1.37l-7.57-32.46.24.19H180l-11.7,0-3.13,0h-.82A1.23,1.23,0,0,1,164.1,161.54Z" style="fill:#263238"></path><g style="opacity:0.30000000000000004"><path d="M228.49,195.88a1.45,1.45,0,0,0-1.32-.1,208.73,208.73,0,0,0-58.57,25.51l-7.42,8.6c.94,1.47,2.95,1.73,4.69,1.85l24.94,1.62c5.8.38,11.6.76,17.41.74,3.45,0,7.22-.29,9.73-2.65a13.84,13.84,0,0,0,3.05-5.2,129.73,129.73,0,0,0,7.72-29.11A1.41,1.41,0,0,0,228.49,195.88Z"></path></g><polygon points="175.63 197.84 160.84 229.83 216.38 230.94 228.56 195.18 175.63 197.84" style="fill:#f5f5f5"></polygon><path d="M175.63,197.84a.75.75,0,0,1,.24,0l.73-.06,2.86-.17L190.3,197l38.24-2,.35,0-.11.34c-3.67,10.81-7.8,23-12.16,35.76l-.06.18h-.2L160.83,230h-.31l.13-.29c4.56-9.76,8.3-17.75,10.9-23.33,1.29-2.74,2.31-4.89,3-6.37l.79-1.66c.18-.37.28-.54.28-.54s-.08.21-.24.59-.44,1-.76,1.7l-2.92,6.45L161,229.91l-.18-.29,55.53,1.06h0l-.25.18,12.2-35.76.24.32-38.15,1.81-10.88.48-2.89.11-.76,0Z" style="fill:#263238"></path><polygon points="175.39 195.18 159.34 212.85 214.51 213.27 228.31 195.18 175.39 195.18" style="fill:#fafafa"></polygon><path d="M175.39,195.18a1,1,0,0,1,.24,0l.75,0,2.91,0,11-.07,38.07-.1h.5l-.3.4c-4.29,5.62-8.95,11.74-13.79,18.1l-.08.1h-1.81L159.34,213h-.43l.29-.32L171,199.83l3.22-3.47.84-.89a1.7,1.7,0,0,1,.3-.29l-.27.34-.82.93L171.13,200l-11.65,13-.14-.32,53.49.33,1.68,0-.21.1c4.86-6.35,9.52-12.46,13.81-18.08l.2.4-38-.1-11-.07-2.94,0-.76,0Z" style="fill:#263238"></path><polyline points="173.65 179.78 168.91 165.01 218.09 165.01 224.98 192.01" style="fill:#f5f5f5"></polyline><path d="M225,192a2.36,2.36,0,0,1-.17-.5c-.11-.37-.24-.85-.41-1.46l-1.49-5.54-5.06-19.44.24.18-18.41,0-30.77-.06.18-.26,3.39,10.83c.37,1.25.67,2.23.89,2.95l.22.78a.85.85,0,0,1,.06.27,1,1,0,0,1-.11-.26c-.08-.2-.17-.45-.28-.75l-1-2.93c-.85-2.59-2.06-6.26-3.55-10.77l-.08-.25h.27l30.77-.07,18.41,0h.18l0,.18c2,7.93,3.67,14.67,4.87,19.49.57,2.35,1,4.23,1.35,5.57.15.62.26,1.11.34,1.48A2.92,2.92,0,0,1,225,192Z" style="fill:#263238"></path><path d="M202.84,177a7.63,7.63,0,0,0-2.51-1.55c-1.84-.56-3.83.35-5.31,1.59s-2.68,2.8-4.25,3.92l17.25.28Z" style="fill:#fff"></path><path d="M211.87,171.84c-.62-.93-2.67-2.08-4-1.22h0a2.67,2.67,0,0,0-1.71,2,3.16,3.16,0,0,0,5.51,2.31A2.65,2.65,0,0,0,211.87,171.84Z" style="fill:#fff"></path><polygon points="175.39 195.18 158.84 179.78 213 180.22 228.56 195.18 175.39 195.18" style="fill:#fafafa"></polygon><path d="M175.39,195.18a1.33,1.33,0,0,1,.26,0l.77,0,3,0,11.05-.07,38.13-.1-.18.43-15.56-15,.18.08h-1L158.84,180l.13-.32L171,191l3.27,3.1.85.82a2.7,2.7,0,0,1,.28.3,1.69,1.69,0,0,1-.3-.25c-.22-.19-.51-.44-.87-.77l-3.32-3-12.19-11.23-.35-.32h.48L212,180h1.11l.07.07,15.55,15,.44.43h-.61l-38.21-.1-11-.07-2.93,0-.75,0A1,1,0,0,1,175.39,195.18Z" style="fill:#263238"></path><path d="M208.52,185.7c0,.14-8,.26-17.75.26S173,185.84,173,185.7s7.95-.26,17.75-.26S208.52,185.55,208.52,185.7Z" style="fill:#263238"></path><path d="M212.45,189.36c0,.14-7.95.26-17.75.26S177,189.5,177,189.36s7.94-.26,17.75-.26S212.45,189.22,212.45,189.36Z" style="fill:#263238"></path><path d="M216,192.89c0,.14-7.95.26-17.75.26s-17.76-.12-17.76-.26,7.95-.26,17.76-.26S216,192.74,216,192.89Z" style="fill:#263238"></path><path d="M211.55,207c0,.14-8.2.26-18.32.26s-18.32-.12-18.32-.26,8.2-.26,18.32-.26S211.55,206.89,211.55,207Z" style="fill:#263238"></path><path d="M215.72,202.87c0,.14-8.2.26-18.32.26s-18.32-.12-18.32-.26,8.2-.26,18.32-.26S215.72,202.72,215.72,202.87Z" style="fill:#263238"></path><path d="M430.74,101.74c0,.14-73.68.26-164.54.26s-164.55-.12-164.55-.26,73.66-.26,164.55-.26S430.74,101.6,430.74,101.74Z" style="fill:#263238"></path><path d="M120.53,88.08a3.41,3.41,0,1,1-3.41-3.41A3.41,3.41,0,0,1,120.53,88.08Z" style="fill:#00875A"></path><path d="M131.71,88.08a3.41,3.41,0,1,1-3.41-3.41A3.41,3.41,0,0,1,131.71,88.08Z" style="fill:#00875A"></path><path d="M142.89,88.08a3.41,3.41,0,1,1-3.41-3.41A3.41,3.41,0,0,1,142.89,88.08Z" style="fill:#00875A"></path><path d="M247.22,94.08V88.89l-2.54,4.27h-.9L241.24,89v5.08h-1.88V85.44H241l3.24,5.37,3.18-5.37h1.64l0,8.64Z" style="fill:#263238"></path><path d="M257.61,87.44l-3,7c-.65,1.61-1.56,2.09-2.76,2.09A3,3,0,0,1,250,96l.7-1.37a1.77,1.77,0,0,0,1.09.41c.53,0,.83-.23,1.09-.82l0-.06L250,87.44h2l1.87,4.5,1.87-4.5Z" style="fill:#263238"></path><path d="M267.52,87v2.28h4v1.61h-4v3.15h-2V85.44h6.53V87Z" style="fill:#263238"></path><path d="M272.91,85.44a1.11,1.11,0,0,1,1.2-1.08,1.08,1.08,0,0,1,1.2,1,1.21,1.21,0,0,1-2.4,0Zm.24,2h1.92v6.64h-1.92Z" style="fill:#263238"></path><path d="M276.86,84.92h1.93v9.16h-1.93Z" style="fill:#263238"></path><path d="M287.05,91.3h-5a1.76,1.76,0,0,0,1.9,1.33,2.24,2.24,0,0,0,1.66-.64l1,1.11a3.47,3.47,0,0,1-2.74,1.08c-2.3,0-3.79-1.45-3.79-3.42a3.38,3.38,0,0,1,3.54-3.42,3.29,3.29,0,0,1,3.46,3.44C287.09,90.93,287.06,91.14,287.05,91.3ZM282,90.18h3.27a1.66,1.66,0,0,0-3.27,0Z" style="fill:#263238"></path><path d="M287.73,93.46l.64-1.38a4.58,4.58,0,0,0,2.31.64c.89,0,1.22-.24,1.22-.61,0-1.08-4,0-4-2.63,0-1.25,1.14-2.14,3.07-2.14a5.47,5.47,0,0,1,2.56.58l-.64,1.37a3.85,3.85,0,0,0-1.92-.5c-.86,0-1.23.27-1.23.62,0,1.14,4,0,4,2.65,0,1.24-1.15,2.12-3.13,2.12A5.68,5.68,0,0,1,287.73,93.46Z" style="fill:#263238"></path><path d="M414.34,127.5a5,5,0,0,0,.55-.11,1.91,1.91,0,0,0,1.17-1.09,2.85,2.85,0,0,0,.12-1.2c0-.46,0-1,0-1.5,0-1.08,0-2.33,0-3.73s0-3,0-4.67c0-.43,0-.88,0-1.3a1.83,1.83,0,0,0-.54-1.12,1.77,1.77,0,0,0-1.18-.49h-1.47l-13.55,0-78.47.08a1.66,1.66,0,0,0-1.65,1.52v11.26a2.16,2.16,0,0,0,.22,1.21,1.64,1.64,0,0,0,.89.75,1.68,1.68,0,0,0,.6.09h25.61l35.27.06,23.79.08,6.46,0,1.68,0,.58,0-.58,0-1.68,0-6.46,0-23.79.08-35.27.06-20.84,0H321a2.46,2.46,0,0,1-.76-.12,2.16,2.16,0,0,1-1.18-1,2.63,2.63,0,0,1-.28-1.47V122.4c0-1.87,0-3.75,0-5.64,0-1,0-1.91,0-2.87a2.2,2.2,0,0,1,2.17-2l78.47.08,13.55,0h1.47a2,2,0,0,1,2,1.87c0,.46,0,.88,0,1.32,0,1.7,0,3.26,0,4.67s0,2.65,0,3.73c0,.54,0,1,0,1.5a2.75,2.75,0,0,1-.16,1.24,1.92,1.92,0,0,1-1.24,1.1A1.38,1.38,0,0,1,414.34,127.5Z" style="fill:#e0e0e0"></path><path d="M325,121.79l.26-.54a2.54,2.54,0,0,0,1.61.56c.85,0,1.21-.33,1.21-.75,0-1.2-3-.44-3-2.26,0-.76.58-1.4,1.87-1.4a3,3,0,0,1,1.57.43l-.23.56A2.55,2.55,0,0,0,327,118c-.83,0-1.19.35-1.19.77,0,1.2,3,.45,3,2.24,0,.75-.6,1.4-1.89,1.4A2.91,2.91,0,0,1,325,121.79Z" style="fill:#e0e0e0"></path><path d="M333.06,120.72h-3a1.24,1.24,0,0,0,1.34,1.08,1.4,1.4,0,0,0,1.07-.44l.37.43a2,2,0,0,1-3.46-1.29,1.82,1.82,0,0,1,1.86-1.89,1.79,1.79,0,0,1,1.83,1.91A1.41,1.41,0,0,1,333.06,120.72Zm-3-.48h2.37a1.16,1.16,0,0,0-1.19-1.06A1.14,1.14,0,0,0,330.06,120.24Z" style="fill:#e0e0e0"></path><path d="M336.83,120.11v2.24h-.63v-.49a1.38,1.38,0,0,1-1.22.53c-.84,0-1.37-.45-1.37-1.09s.39-1.08,1.49-1.08h1.06v-.13c0-.57-.33-.9-1-.9a1.82,1.82,0,0,0-1.17.4l-.28-.5a2.43,2.43,0,0,1,1.53-.48A1.38,1.38,0,0,1,336.83,120.11Zm-.67,1.11v-.52h-1c-.66,0-.85.26-.85.57s.3.6.81.6A1.07,1.07,0,0,0,336.16,121.22Z" style="fill:#e0e0e0"></path><path d="M340.07,118.61v.65h-.15a1.11,1.11,0,0,0-1.17,1.25v1.85h-.67v-3.7h.64v.62A1.41,1.41,0,0,1,340.07,118.61Z" style="fill:#e0e0e0"></path><path d="M340.52,120.5a1.85,1.85,0,0,1,2-1.89,1.64,1.64,0,0,1,1.51.79l-.51.33a1.15,1.15,0,0,0-1-.53,1.3,1.3,0,0,0,0,2.6,1.13,1.13,0,0,0,1-.53l.51.32a1.64,1.64,0,0,1-1.51.8A1.85,1.85,0,0,1,340.52,120.5Z" style="fill:#e0e0e0"></path><path d="M348.32,120.22v2.13h-.67v-2.06c0-.72-.37-1.08-1-1.08a1.11,1.11,0,0,0-1.18,1.23v1.91h-.67v-5.19h.67v2a1.6,1.6,0,0,1,1.31-.56A1.44,1.44,0,0,1,348.32,120.22Z" style="fill:#e0e0e0"></path><path d="M349.25,121.91a.47.47,0,1,1,.47.48A.47.47,0,0,1,349.25,121.91Z" style="fill:#e0e0e0"></path><path d="M350.83,121.91a.47.47,0,0,1,.48-.48.48.48,0,0,1,0,1A.47.47,0,0,1,350.83,121.91Z" style="fill:#e0e0e0"></path><path d="M352.42,121.91a.47.47,0,0,1,.48-.48.48.48,0,0,1,0,1A.47.47,0,0,1,352.42,121.91Z" style="fill:#e0e0e0"></path><path d="M149.46,220.39a5.75,5.75,0,0,1-.28-.64c-.17-.42-.43-1-.72-1.86-.6-1.62-1.4-4-2.23-7a70.51,70.51,0,0,1-2.69-24,51.55,51.55,0,0,1,2.72-13,43.61,43.61,0,0,1,4.83-9.75,36.65,36.65,0,0,1,4.64-5.68c.59-.63,1.12-1.05,1.46-1.36a3.28,3.28,0,0,1,.54-.44,3.41,3.41,0,0,1-.47.52c-.31.33-.82.77-1.39,1.42a39.88,39.88,0,0,0-4.47,5.75,44.54,44.54,0,0,0-4.69,9.7A52.5,52.5,0,0,0,144.06,187a73.4,73.4,0,0,0,2.52,23.83c.79,3,1.54,5.36,2.08,7,.25.78.46,1.41.62,1.89A3.62,3.62,0,0,1,149.46,220.39Z" style="fill:#263238"></path><path d="M303.52,152.4v52.33h63.61V152.4a4.51,4.51,0,0,0-4.51-4.51H308A4.5,4.5,0,0,0,303.52,152.4Z" style="fill:#00875A"></path><g style="opacity:0.30000000000000004"><path d="M303.52,152.4v52.33h63.61V152.4a4.51,4.51,0,0,0-4.51-4.51H308A4.5,4.5,0,0,0,303.52,152.4Z"></path></g><polyline points="306.5 176.31 306.92 157.09 362.59 157.09 362.59 168.06" style="fill:#f5f5f5"></polyline><path d="M362.59,168.06a6.35,6.35,0,0,1,0-.75c0-.53,0-1.25,0-2.16,0-1.93-.05-4.66-.08-8.05l.17.17-32,.09-23.71-.05.22-.21c-.16,5.76-.3,10.55-.4,14-.06,1.64-.11,2.94-.14,3.89,0,.42,0,.75-.06,1a1.22,1.22,0,0,1,0,.35,1.35,1.35,0,0,1,0-.35c0-.27,0-.61,0-1,0-.95,0-2.25,0-3.89.05-3.41.13-8.2.22-14v-.21h.21l23.71,0,32,.09h.18v.18c0,3.39-.06,6.12-.07,8.05,0,.91,0,1.63-.05,2.16A4.41,4.41,0,0,1,362.59,168.06Z" style="fill:#263238"></path><rect x="310.55" y="151.9" width="48.64" height="5.19" style="fill:#f5f5f5"></rect><path d="M310.55,151.9l.23,0h.7l2.76,0,10.28-.08,34.66-.11h.26v5.45l-.27.27h-15.5l-13.73,0-19.39-.1h-.11v-.1q0-2.52.06-3.9c0-.41,0-.73,0-1a1,1,0,0,1,0-.32s0,.13,0,.36,0,.59,0,1c0,.91,0,2.19.07,3.84l-.11-.12,19.39-.1,13.73,0h15.5c-.11.12.27-.25-.25.26V151.9l.26.26-34.47-.11L314.37,152l-2.82,0-.74,0Z" style="fill:#263238"></path><path d="M364.84,217.83c0,.15-12.15.26-27.14.26s-27.15-.11-27.15-.26,12.15-.26,27.15-.26S364.84,217.69,364.84,217.83Z" style="fill:#263238"></path><path d="M298.62,166.86l4.9,37.87h63.61V168.06H338.24l-5.6-4.93H301.9A3.31,3.31,0,0,0,298.62,166.86Z" style="fill:#00875A"></path><path d="M349.62,182.89c0,.14-7,.26-15.56.26s-15.55-.12-15.55-.26,7-.26,15.55-.26S349.62,182.75,349.62,182.89Z" style="fill:#263238"></path><path d="M349.62,186.62c0,.14-7,.26-15.56.26s-15.55-.12-15.55-.26,7-.26,15.55-.26S349.62,186.47,349.62,186.62Z" style="fill:#263238"></path><path d="M159.34,266.07v52.34H223V266.07a4.51,4.51,0,0,0-4.51-4.51H163.85A4.51,4.51,0,0,0,159.34,266.07Z" style="fill:#00875A"></path><g style="opacity:0.30000000000000004"><path d="M159.34,266.07v52.34H223V266.07a4.51,4.51,0,0,0-4.51-4.51H163.85A4.51,4.51,0,0,0,159.34,266.07Z"></path></g><polyline points="162.32 289.99 162.75 270.77 218.41 270.77 218.41 281.74" style="fill:#f5f5f5"></polyline><path d="M218.41,281.74a5.49,5.49,0,0,1,0-.75c0-.54,0-1.25-.05-2.16,0-1.93,0-4.66-.08-8.06l.17.18-32,.08-23.7,0,.21-.21c-.16,5.76-.3,10.55-.4,14-.06,1.64-.11,2.94-.14,3.89,0,.41,0,.75,0,1s0,.35-.05.35a1.35,1.35,0,0,1,0-.35c0-.27,0-.61,0-1,0-.94,0-2.25,0-3.89.06-3.4.13-8.19.22-14v-.21h.22l23.7-.05,32,.09h.18v.17c0,3.4-.06,6.13-.08,8.06,0,.91,0,1.62,0,2.16A3.39,3.39,0,0,1,218.41,281.74Z" style="fill:#263238"></path><rect x="166.37" y="265.58" width="48.64" height="5.19" style="fill:#f5f5f5"></rect><path d="M166.37,265.58s.07,0,.23,0l.7,0,2.76,0,10.28-.08,34.67-.11h.26v5.45c-.52.53-.16.15-.28.26h-15.5l-13.72,0-19.4-.11h-.11v-.11c0-1.67.05-3,.06-3.89,0-.41,0-.73,0-1a1.7,1.7,0,0,1,0-.32,2.81,2.81,0,0,1,0,.36c0,.25,0,.58,0,1,0,.91,0,2.19.06,3.83l-.11-.11,19.4-.1,13.72,0H215c-.11.12.28-.25-.24.26v-5.19l.26.26-34.48-.11-10.34-.08-2.82,0-.74,0Z" style="fill:#263238"></path><path d="M220.67,331.51c0,.14-12.16.26-27.15.26s-27.15-.12-27.15-.26,12.15-.26,27.15-.26S220.67,331.37,220.67,331.51Z" style="fill:#263238"></path><path d="M154.44,280.54l4.9,37.87H223V281.74H194.06l-5.6-4.93H157.73A3.31,3.31,0,0,0,154.44,280.54Z" style="fill:#00875A"></path><path d="M205.45,296.57c0,.14-7,.26-15.56.26s-15.56-.12-15.56-.26,7-.26,15.56-.26S205.45,296.43,205.45,296.57Z" style="fill:#263238"></path><path d="M205.45,300.29c0,.15-7,.27-15.56.27s-15.56-.12-15.56-.27,7-.26,15.56-.26S205.45,300.15,205.45,300.29Z" style="fill:#263238"></path><path d="M311.42,266.11v52.33H375V266.11a4.51,4.51,0,0,0-4.51-4.51h-54.6A4.51,4.51,0,0,0,311.42,266.11Z" style="fill:#00875A"></path><g style="opacity:0.30000000000000004"><path d="M311.42,266.11v52.33H375V266.11a4.51,4.51,0,0,0-4.51-4.51h-54.6A4.51,4.51,0,0,0,311.42,266.11Z"></path></g><polyline points="314.41 290.02 314.83 270.81 370.5 270.81 370.5 281.77" style="fill:#f5f5f5"></polyline><path d="M370.5,281.77a4.41,4.41,0,0,1-.05-.75c0-.53,0-1.25-.05-2.16,0-1.93,0-4.66-.07-8.05l.17.17-32,.09L314.83,271l.22-.21c-.17,5.76-.3,10.55-.4,13.95-.06,1.64-.11,2.95-.15,3.89,0,.42,0,.75-.05,1a2,2,0,0,1,0,.35,1.6,1.6,0,0,1,0-.35c0-.27,0-.61,0-1,0-.95,0-2.25,0-3.89.05-3.41.12-8.2.21-14v-.21h.21l23.71,0,32,.08h.17v.18c0,3.39-.06,6.12-.08,8.05,0,.91,0,1.63,0,2.16A4.41,4.41,0,0,1,370.5,281.77Z" style="fill:#263238"></path><rect x="318.45" y="265.61" width="48.64" height="5.19" style="fill:#f5f5f5"></rect><path d="M318.45,265.61l.23,0h.71l2.76,0,10.28-.08,34.66-.11h.26v5.45c-.52.53-.15.15-.27.27h-15.5l-13.73,0-19.4-.1h-.11v-.11c0-1.68.05-3,.07-3.9,0-.41,0-.73,0-1s0-.32,0-.32a1.89,1.89,0,0,1,0,.36c0,.26,0,.59,0,1q0,1.36.06,3.84l-.11-.11,19.4-.11,13.73,0h15.5c-.11.11.27-.26-.25.25v-5.19l.26.26-34.47-.11-10.35-.08-2.81,0-.74,0Z" style="fill:#263238"></path><path d="M372.75,331.54c0,.15-12.16.26-27.15.26s-27.15-.11-27.15-.26,12.16-.26,27.15-.26S372.75,331.4,372.75,331.54Z" style="fill:#263238"></path><path d="M306.53,280.57l4.89,37.87H375V281.77H346.15l-5.61-4.93H309.81A3.3,3.3,0,0,0,306.53,280.57Z" style="fill:#00875A"></path><path d="M357.53,296.6c0,.15-7,.26-15.56.26s-15.56-.11-15.56-.26,7-.26,15.56-.26S357.53,296.46,357.53,296.6Z" style="fill:#263238"></path><path d="M357.53,300.33c0,.14-7,.26-15.56.26s-15.56-.12-15.56-.26,7-.26,15.56-.26S357.53,300.18,357.53,300.33Z" style="fill:#263238"></path><path d="M139.54,182.12a4.48,4.48,0,0,1,0-1.07,27.06,27.06,0,0,1,.19-2.93,38,38,0,0,1,2.36-9.37,37.34,37.34,0,0,1,4.69-8.46,27.6,27.6,0,0,1,1.85-2.27,4.11,4.11,0,0,1,.77-.75c.07.06-.93,1.21-2.33,3.24a42.2,42.2,0,0,0-7,17.66C139.7,180.6,139.64,182.13,139.54,182.12Z" style="fill:#263238"></path><path d="M142.73,178.22c.06.05-.24.52-.76,1.25l-.95,1.28c-.19.24-.37.49-.57.73l-.3.39-.16.2-.08.1,0,.05,0,0h-.41a8.58,8.58,0,0,1-1.82-3.09,2.81,2.81,0,0,1-.25-1.46,15.39,15.39,0,0,0,2.45,4.2h-.38l0,0,0-.05.08-.1.16-.2.31-.38.6-.72,1-1.21C142.28,178.57,142.68,178.18,142.73,178.22Z" style="fill:#263238"></path><path d="M351.51,224.91c0,.14-7.63.26-17,.26s-17-.12-17-.26,7.62-.26,17-.26S351.51,224.77,351.51,224.91Z" style="fill:#e0e0e0"></path><path d="M360.25,337.56c0,.14-7.62.26-17,.26s-17-.12-17-.26,7.62-.26,17-.26S360.25,337.42,360.25,337.56Z" style="fill:#e0e0e0"></path><path d="M201.05,339.37c0,.14-7.62.26-17,.26s-17-.12-17-.26,7.62-.26,17-.26S201.05,339.23,201.05,339.37Z" style="fill:#e0e0e0"></path></g><g id="freepik--Character--inject-70"><path d="M67.24,260c-1,4.41-6,6.71-9.08,10s-7.62,6-11.95,4.74c-2.85-.85-5-3.31-6.23-6-2.88-6.3-1.51-13.69.65-20.28s5.08-13.09,5.2-20l14.51,4.87,3.58-4.4S68,256.79,67.24,260Z" style="fill:#ffbe9d"></path><path d="M123.76,222.49s8.78,35.15,17.16,40.31c10.61,6.52,16.81-1.24,16.81-1.24l16.6-30.39L163,228.34l-11,13.9-7.7-21.06Z" style="fill:#ffbe9d"></path><path d="M111,368.64c0,1.18,1.4,18.56,1.4,18.56a66.87,66.87,0,0,0-2.8,16.82c-.38,16.21-.23,51.13-.23,51.13h17.31v-2s9.12-60.93,8.8-66.9l-1.21-22.65-23.28,5" style="fill:#ffbe9d"></path><path d="M96.92,341.64l-28.81,4.87s2.91,7.89,3.12,8.66c.76,2.82,2.42,10.11,1.44,16.94-1.24,8.71-2.34,19.28-1.79,24.25s6,57.35,6,57.35l17.17.53,4.17-96.42Z" style="fill:#ffbe9d"></path><path d="M84.88,133.83l-.16,51.88L107,186.77l.64-12.62s7.91,1.57,9.95-5.77c1.3-4.69,1-40.94,1-40.94Z" style="fill:#ffbe9d"></path><path d="M121.48,131.1c-3.51,1-4.27,6.73-4.27,6.73L111.71,150c-2.8-2.2-6.56-2.07-7.28,2.85-.51,3.56,3.91,4.28,3.91,4.28-2.57,4.38-4.32,7.92-8.07,12.09-4,4.51-6.33,5-10.73,5H84.69s-2.38-7.71-6.77-27C73,125.86,98.33,128.61,103,123.15,110.66,114.26,132.53,127.93,121.48,131.1Z" style="fill:#263238"></path><path d="M78.38,149.27c-4.1-2.76-4.47-10.46-2.08-15.09a14.85,14.85,0,0,1,12.63-7.85A5.94,5.94,0,0,0,91,126.1a5.72,5.72,0,0,0,2.22-2.1c3.66-4.77,7.26-9.45,14.09-9.45a7.76,7.76,0,0,1,4.3,1.07,6.78,6.78,0,0,1,2.58,3.41,14.44,14.44,0,0,1,4-1.43,4.92,4.92,0,0,1,4,1,3,3,0,0,1,.63,3.84,4.85,4.85,0,0,1,4.84,4c.37,2.28-2.9,3.88-3.24,4.06,0,0,1.79,3.75-2.48,6-1.72.91-4-.18-4.21-.31" style="fill:#263238"></path><path d="M94.63,154.25a10.54,10.54,0,0,1-1.7,7.56c-.15-.08.56-1.67,1-3.74S94.46,154.26,94.63,154.25Z" style="fill:#455a64"></path><path d="M97.32,151.71a14.75,14.75,0,0,1-1.38,7.4,20.09,20.09,0,0,1,.62-3.71A20.19,20.19,0,0,1,97.32,151.71Z" style="fill:#455a64"></path><path d="M105,143.15c0,.07-.58.53-1.38,1.47a14.39,14.39,0,0,0-2.39,4.14,33.21,33.21,0,0,0-1.33,4.66,7.76,7.76,0,0,1-.56,2,7.26,7.26,0,0,1,.16-2,23,23,0,0,1,1.2-4.8,11.9,11.9,0,0,1,2.63-4.2A4.1,4.1,0,0,1,105,143.15Z" style="fill:#455a64"></path><path d="M108.15,137.32a3,3,0,0,1,.43,1.4,9.41,9.41,0,0,1-.19,3.54,9.58,9.58,0,0,1-1.5,3.22c-.55.73-1,1.08-1,1a19.22,19.22,0,0,0,2-4.38C108.51,139.53,108,137.34,108.15,137.32Z" style="fill:#455a64"></path><path d="M81.58,150.27c-.07.14-.76-.1-1.52-.52s-1.32-.89-1.25-1,.76.1,1.53.52S81.66,150.14,81.58,150.27Z" style="fill:#455a64"></path><path d="M92.34,144.73A3.2,3.2,0,0,1,91.7,147c-.68,1.14-1.61,1.73-1.7,1.61s.59-.85,1.22-1.9S92.18,144.7,92.34,144.73Z" style="fill:#455a64"></path><path d="M95.64,143a4.42,4.42,0,0,1-1,2.7c-.89,1.35-2,2.08-2.1,2a25.21,25.21,0,0,1,1.63-2.28A24.78,24.78,0,0,1,95.64,143Z" style="fill:#455a64"></path><path d="M112.08,121.23s-.42-.32-1.22-.77a8.23,8.23,0,0,0-3.73-1,10,10,0,0,0-5.47,1.47A13.5,13.5,0,0,0,97,126.15,22.84,22.84,0,0,0,95.11,131l-.09.32-.3-.15a11.11,11.11,0,0,0-5-1.27,11.45,11.45,0,0,0-4,.61,17.34,17.34,0,0,0-3.3,1.65,3.29,3.29,0,0,1,.74-.66,10,10,0,0,1,2.44-1.31,11.6,11.6,0,0,1,4.17-.75A11.21,11.21,0,0,1,95,130.71l-.39.17a23.22,23.22,0,0,1,1.92-5,13.67,13.67,0,0,1,4.89-5.37,10.21,10.21,0,0,1,5.76-1.43,7.89,7.89,0,0,1,3.82,1.18,5.33,5.33,0,0,1,.86.68C112,121.12,112.09,121.22,112.08,121.23Z" style="fill:#455a64"></path><path d="M123.78,124.05s.62-.16,1.28.58a2.21,2.21,0,0,1,.51,1.63,2.51,2.51,0,0,1-1.29,1.85,3.73,3.73,0,0,1-2.7.37,7.75,7.75,0,0,1-2.79-1.35,27.94,27.94,0,0,0-2.73-1.87,11.18,11.18,0,0,0-3.29-1.16,13.86,13.86,0,0,0-6.71.46,18.23,18.23,0,0,0-5,2.52,51,51,0,0,0-4,3.35,5.6,5.6,0,0,1,.88-1.09,20.56,20.56,0,0,1,2.84-2.58,17.76,17.76,0,0,1,5-2.69,13.9,13.9,0,0,1,7-.52,11.6,11.6,0,0,1,3.45,1.22,24.85,24.85,0,0,1,2.77,1.93,7.41,7.41,0,0,0,2.59,1.32,3.29,3.29,0,0,0,2.4-.26,2.19,2.19,0,0,0,1.18-1.54,1.94,1.94,0,0,0-1.48-2.17Z" style="fill:#455a64"></path><path d="M65.63,299.13s-.82,21.39,0,27.89-.36,45.8-.36,45.8,30.17,8.78,38.3-1.63c0,0-3.29-47.75-3.62-49.05s-3-33.84-3-33.84Z" style="fill:#263238"></path><path d="M134.45,288.3c1.77,5.53,5.53,26.36,5.53,26.36v55.2s-26.14,9.45-36.56,4.77L97,319.21V290.49l21.5-8.37Z" style="fill:#263238"></path><path d="M117.85,326.66a4.87,4.87,0,0,1-1.21,0c-.78,0-1.91-.13-3.31-.24l-10.87-1-10.88-1-3.3-.3a6.49,6.49,0,0,1-1.2-.17,5.23,5.23,0,0,1,1.22,0c.78,0,1.91.07,3.31.15,2.79.16,6.64.45,10.89.85s8.09.82,10.87,1.13l3.29.4A6.57,6.57,0,0,1,117.85,326.66Z" style="fill:#455a64"></path><path d="M98.27,324.92c.13,0,1.4,11.1,2.82,24.83s2.47,24.87,2.33,24.88-1.39-11.1-2.82-24.83S98.13,324.93,98.27,324.92Z" style="fill:#455a64"></path><path d="M98.65,324.62a18.1,18.1,0,0,1-3.06,2.72,16.94,16.94,0,0,1-3.37,2.34A18.1,18.1,0,0,1,95.28,327,16.94,16.94,0,0,1,98.65,324.62Z" style="fill:#455a64"></path><path d="M139.2,311.05a8.77,8.77,0,0,1-2.08-1.11,28.92,28.92,0,0,1-4.48-3.55A29.72,29.72,0,0,1,129,302a8.92,8.92,0,0,1-1.18-2.05,16,16,0,0,1,1.46,1.84A38.91,38.91,0,0,0,133,306a41.44,41.44,0,0,0,4.33,3.61A15.62,15.62,0,0,1,139.2,311.05Z" style="fill:#455a64"></path><path d="M97.27,319.65s-.19-.23-.45-.71-.59-1.17-1-2.06a34.1,34.1,0,0,1-2.11-7.21,33.35,33.35,0,0,1-.45-7.5,20.93,20.93,0,0,1,.22-2.27,3.11,3.11,0,0,1,.17-.82c.08,0,0,1.19-.05,3.1a41.52,41.52,0,0,0,.6,7.41,42,42,0,0,0,1.94,7.17C96.84,318.54,97.34,319.62,97.27,319.65Z" style="fill:#455a64"></path><path d="M129.06,243.1c-.26-.79-3.17-17.44-3.17-17.44l21.41-.53s-9.4-36.72-14.52-39.43c-7.94-4.2-25.39-4.71-25.39-4.71H84.92s-24.84,6.87-29.34,14.27L39.72,225.75l20.62,7.57,3.58-4.4L67.48,260s-2.12,28-2.12,32.24.27,6.87.27,6.87,46.7-12.68,58.07-9,13.06,7.16,13.06,7.16,1-12.46-1.62-17.22Z" style="fill:#455a64"></path><path d="M64.42,233.32c-.08,0-.29-1.48-.77-3.86a70.65,70.65,0,0,0-2.49-9.14,76.63,76.63,0,0,0-3.7-8.72c-.51-1-.94-1.87-1.3-2.57a4.53,4.53,0,0,1-.44-1,4.38,4.38,0,0,1,.61.87c.36.57.86,1.43,1.44,2.5a60.85,60.85,0,0,1,3.85,8.72A55.92,55.92,0,0,1,64,229.4c.2,1.2.33,2.18.38,2.86A5,5,0,0,1,64.42,233.32Z" style="fill:#263238"></path><path d="M108.57,245a1.37,1.37,0,0,1-.12.47c-.11.35-.26.77-.43,1.29s-.43,1.24-.75,2-.64,1.68-1.09,2.65c-.83,1.95-1.93,4.22-3.27,6.68a90.69,90.69,0,0,1-4.81,7.75c-1.86,2.64-3.79,5.05-5.62,7.17s-3.62,3.91-5.16,5.36c-.76.75-1.49,1.37-2.11,1.93s-1.19,1-1.65,1.4l-1.07.84c-.24.19-.38.29-.39.27a1.73,1.73,0,0,1,.33-.34l1-.92c.44-.39,1-.87,1.58-1.45s1.32-1.22,2.06-2c1.51-1.47,3.23-3.3,5.06-5.41s3.71-4.52,5.56-7.15,3.45-5.26,4.82-7.69,2.48-4.68,3.35-6.6c.46-.95.81-1.84,1.15-2.61s.61-1.44.82-2l.52-1.26A2.48,2.48,0,0,1,108.57,245Z" style="fill:#263238"></path><path d="M126.07,200.17c.09,0-.25,1.47-.5,3.86a79,79,0,0,0-.28,9.38c.09,3.67.32,7,.52,9.39.09,1.12.17,2.07.23,2.84a3.81,3.81,0,0,1,0,1.05,4.71,4.71,0,0,1-.23-1c-.11-.67-.24-1.64-.39-2.84-.28-2.39-.57-5.72-.65-9.41a60.53,60.53,0,0,1,.42-9.43c.19-1.2.35-2.16.53-2.81A4,4,0,0,1,126.07,200.17Z" style="fill:#263238"></path><g style="opacity:0.30000000000000004"><path d="M58.59,214.16s1.34,12.78,1.75,19.16l3.58-4.4S60.41,215.76,58.59,214.16Z"></path></g><g style="opacity:0.30000000000000004"><path d="M91.58,259.3a71.15,71.15,0,0,0-6.36,13,57.63,57.63,0,0,0,16.56-22C97.48,252,94,255.4,91.58,259.3Z"></path></g><path d="M44.41,285.39a1.69,1.69,0,0,1-2.11-1.46l-4.46-42.25a5.21,5.21,0,0,1,3.85-5.6l22.31-6,3.72,32.53-1.66,17.13Z" style="fill:#00875A"></path><g style="opacity:0.30000000000000004"><path d="M66.06,279.74c-1.38-2.68-.84-5.84-.53-8.84C67,257.08,61,243.65,64,230.08c0,0,3,25.86,3.72,32.53Z"></path></g><path d="M64.23,233.89a3.58,3.58,0,0,1-.65.22l-1.89.54-7,1.87-4.82,1.26-2.69.7a7.93,7.93,0,0,0-2.67,1,7,7,0,0,0-2.08,2.11,4.84,4.84,0,0,0-.8,2.92q.18,3.28.38,6.78c.48,9.26.92,17.64,1.25,23.79.13,3,.24,5.44.31,7.21,0,.81,0,1.46.06,2a3.32,3.32,0,0,1,0,.69,3,3,0,0,1-.09-.68c0-.5-.09-1.15-.16-2-.12-1.76-.28-4.21-.48-7.2-.36-6.15-.86-14.53-1.4-23.79q-.19-3.49-.37-6.78a5.36,5.36,0,0,1,.89-3.2,7.32,7.32,0,0,1,2.24-2.26,6.17,6.17,0,0,1,1.4-.66c.49-.17.95-.26,1.42-.38l2.69-.68,4.84-1.2,7-1.71,1.91-.44A3.65,3.65,0,0,1,64.23,233.89Z" style="fill:#263238"></path><path d="M66.53,251.37a9.63,9.63,0,0,1-2.19.82c-1.37.44-3.29,1-5.42,1.52s-4.08.95-5.5,1.21a9.84,9.84,0,0,1-2.32.3,10.8,10.8,0,0,1,2.24-.66l5.45-1.36,5.45-1.36A10.75,10.75,0,0,1,66.53,251.37Z" style="fill:#263238"></path><path d="M66.9,255.05a17.23,17.23,0,0,1-4.61,1.62,17.12,17.12,0,0,1-4.84.77,36.71,36.71,0,0,1,4.71-1.27A34.63,34.63,0,0,1,66.9,255.05Z" style="fill:#263238"></path><path d="M156,255.88a45,45,0,0,0-1.53-6.92c-1.28-3.7-2.76-6.56-2.59-6.64a8.07,8.07,0,0,1,1.08,1.8,32.83,32.83,0,0,1,2,4.67,21.26,21.26,0,0,1,1.07,5A6.26,6.26,0,0,1,156,255.88Z" style="fill:#eb996e"></path><path d="M163,228.34s-2.17-13.42-1-15.54l8.82-11s1.51,2.07.88,3.92a21.28,21.28,0,0,1-2.6,4.42s5-.13,6.46,1.67a9,9,0,0,1,.95,3.65A2.15,2.15,0,0,1,176,217l-1.26,1.55c2.45,10.37-.66,12.86-.66,12.86Z" style="fill:#ffbe9d"></path><path d="M173,210.56c0,.06-.24.29-.65.68a4.48,4.48,0,0,0-1.24,1.69,11.47,11.47,0,0,0-.59,2.1c-.12.55-.06.87-.13.9s-.26-.33-.24-.94a7,7,0,0,1,.47-2.25,3.83,3.83,0,0,1,1.5-1.79C172.57,210.62,172.92,210.5,173,210.56Z" style="fill:#eb996e"></path><path d="M161.64,215.26c0-.37-.31,0-.64.12a2.69,2.69,0,0,0-.86,1.15,8,8,0,0,0-.11,4.65c.44,2.06,1.68,3.24,2.73,5.07" style="fill:#ffbe9d"></path><path d="M169.41,210c.13.13-.9,1-1.78,2.36a5,5,0,0,0-.73,1.85c-.08.51-.05.84-.12.86s-.24-.31-.25-.89a4,4,0,0,1,.66-2.1,6.73,6.73,0,0,1,1.46-1.61C169.07,210.15,169.36,210,169.41,210Z" style="fill:#eb996e"></path><path d="M162.76,224.19a5.92,5.92,0,0,1-.44-1.59c-.21-1-.49-2.37-.69-3.91a13.46,13.46,0,0,1,.14-5.63c.14,0-.05,2.51.38,5.56S162.94,224.17,162.76,224.19Z" style="fill:#eb996e"></path><path d="M175.56,212.06c.07,0,.35.51.63,1.45a12,12,0,0,1,.38,1.67,3.64,3.64,0,0,1-.24,2.17,2.32,2.32,0,0,1-.75.92,2,2,0,0,1-.52.27.87.87,0,0,1-.37,0,.55.55,0,0,1-.35-.26,7.43,7.43,0,0,1-.44-1.71,3.18,3.18,0,0,1,0-1.58,8.34,8.34,0,0,1,.36,1.51,10.15,10.15,0,0,0,.5,1.54s0,0,.15,0a1.22,1.22,0,0,0,.37-.2,1.86,1.86,0,0,0,.57-.74,3.24,3.24,0,0,0,.24-1.88c-.07-.62-.17-1.18-.26-1.65A7.28,7.28,0,0,1,175.56,212.06Z" style="fill:#eb996e"></path><path d="M109.3,453.52v19.85l39.82-.6c-.29-4-22.05-11.65-22.05-11.65l.44-7.6Z" style="fill:#00875A"></path><g style="opacity:0.6000000000000001"><path d="M115.78,459.33a1.73,1.73,0,0,0-1.1,2,1.57,1.57,0,0,0,1.85,1.17,1.83,1.83,0,0,0,1.15-2.11,1.6,1.6,0,0,0-2.05-1" style="fill:#fff"></path></g><path d="M109.3,473.37l.07-3.42,38.15.7s1.78.79,1.6,2.12Z" style="fill:#263238"></path><path d="M127.07,461.51c0,.2-1,.31-1.92,1s-1.44,1.55-1.62,1.47.09-1.27,1.25-2.07S127.11,461.32,127.07,461.51Z" style="fill:#263238"></path><path d="M132.32,463.34c0,.2-.79.57-1.44,1.45s-.83,1.8-1,1.8-.34-1.17.49-2.25S132.31,463.15,132.32,463.34Z" style="fill:#263238"></path><path d="M134.67,468.4c-.17.05-.46-1,0-2.11s1.38-1.6,1.47-1.43-.47.78-.86,1.72S134.87,468.38,134.67,468.4Z" style="fill:#263238"></path><path d="M126.68,455.86c-.08.19-1-.08-2.07,0s-2,.47-2,.3.71-.92,2-1S126.78,455.7,126.68,455.86Z" style="fill:#263238"></path><path d="M126.9,461.48a3,3,0,0,0,.08-1.22,6.59,6.59,0,0,0-1.06-3.13,6,6,0,0,0-1.56-1.64,1.35,1.35,0,0,0-1.35-.24,1.52,1.52,0,0,0-.79,1.31,5.25,5.25,0,0,0,3.52,4.64,5,5,0,0,0,5.4-1.61,3.62,3.62,0,0,0,.72-1.22,1.36,1.36,0,0,0,0-.8,1,1,0,0,0-.55-.57,1.75,1.75,0,0,0-1.25.12,9.07,9.07,0,0,0-.93.53,8.57,8.57,0,0,0-2.29,2.27,3.37,3.37,0,0,0-.55,1.06,11.67,11.67,0,0,1,3-3c.54-.31,1.24-.75,1.8-.55.25.1.35.39.23.74a3.07,3.07,0,0,1-.63,1,4.56,4.56,0,0,1-4.84,1.41,4.8,4.8,0,0,1-3.17-4,1,1,0,0,1,.48-.86.93.93,0,0,1,.89.18,6,6,0,0,1,1.49,1.47,7.09,7.09,0,0,1,1.16,2.91C126.87,461,126.85,461.47,126.9,461.48Z" style="fill:#263238"></path><polygon points="93.91 453.17 94.72 459.35 94.18 473.28 76.03 473.72 75.38 459.35 76.15 453.17 93.91 453.17" style="fill:#00875A"></polygon><path d="M85.2,472.23c-.11,0,.16-4.26.59-9.52s.87-9.53,1-9.54-.15,4.26-.58,9.52S85.31,472.23,85.2,472.23Z" style="fill:#263238"></path><polygon points="94.17 470.96 76.01 471.34 76.03 473.72 94.18 473.28 94.17 470.96" style="fill:#263238"></polygon><path d="M76,463s.13-.29.46-.73a13.07,13.07,0,0,1,4.55-3.7,9.42,9.42,0,0,1,4.23-1,9.6,9.6,0,0,1,7.08,3.07,8.45,8.45,0,0,1,1.33,2,2.43,2.43,0,0,1,.29.83,18.63,18.63,0,0,0-1.9-2.53,9.64,9.64,0,0,0-6.8-2.79,11.11,11.11,0,0,0-6.91,2.69C76.77,462,76,463,76,463Z" style="fill:#263238"></path></g><g id="freepik--Plant--inject-70"><path d="M418,448.1c-2.38-.12-3.07-3.47-2.19-5.68s2.63-4.16,2.66-6.54c0-2.06-1.29-3.93-1.42-6-.22-3.71,3.36-6.74,3.52-10.46.11-2.89-1.9-5.65-1.41-8.51.52-3.06,3.72-5.08,4.46-8.1.78-3.22-1.46-6.62-.6-9.82s4.61-5.53,4.07-8.79a29.71,29.71,0,0,0-1.11-3.07c-.68-2.43.65-5,2.26-6.9s3.57-3.67,4.56-6c1.53-3.57.47-7.9,2.27-11.33,1.5-2.85,4.84-4.77,5.26-8,1.69,2.88,0,6.54.42,9.86.25,2.16,1.37,4.11,2.06,6.18a16,16,0,0,1-1.26,12.87c-1.45,2.55-3.69,4.95-3.58,7.89.14,3.55,3.69,6.12,4.32,9.62.9,5-4.43,9.5-3.69,14.53.19,1.29.78,2.52.89,3.82.38,4.45-4.66,7.59-5.43,12-.56,3.24,1.31,6.58.53,9.77-.59,2.46-2.72,4.66-2.19,7.14a17,17,0,0,0,1.35,3,5.68,5.68,0,0,1-.89,5.89,5,5,0,0,1-5.73,1.18" style="fill:#00875A"></path><g style="opacity:0.5"><path d="M433.78,445.61a17,17,0,0,1-1.35-3c-.53-2.48,1.6-4.68,2.19-7.14.78-3.19-1.09-6.53-.53-9.77.77-4.39,5.81-7.53,5.43-12-.11-1.3-.7-2.53-.89-3.82-.74-5,4.59-9.53,3.69-14.53-.63-3.5-4.18-6.07-4.32-9.62-.11-2.94,2.13-5.34,3.58-7.89A16,16,0,0,0,442.84,365c-.69-2.07-1.81-4-2.06-6.18-.38-3.32,1.27-7-.42-9.86-.42,3.2-3.76,5.12-5.26,8-1.8,3.43-.74,7.77-2.27,11.33-1,2.31-3,4-4.56,6s-2.94,4.47-2.26,6.9a29.71,29.71,0,0,1,1.11,3.07c.54,3.26-3.22,5.6-4.07,8.79s1.38,6.6.6,9.82c-.74,3-3.94,5-4.46,8.1-.49,2.86,1.52,5.62,1.41,8.51-.16,3.72-3.74,6.75-3.52,10.46.13,2.06,1.44,3.93,1.42,6,0,2.38-1.78,4.34-2.66,6.54s-.19,5.56,2.19,5.68l9.13,4.58a5,5,0,0,0,5.73-1.18A5.68,5.68,0,0,0,433.78,445.61Z" style="fill:#fff"></path></g><path d="M430.69,443.44a6.52,6.52,0,0,1-.92-3.51c.24-1.36,2.54-2.56,3.11-4.86.74-3-.59-8.28,0-11.29.77-4.1,5-6.79,4.83-10.86-.05-1.2.12-4.4,0-5.58-.45-4.58,3.58-7.66,3-12.21C440.27,392,437,388.23,437,385c0-2.69,1.93-5.05,3.21-7.5a16.81,16.81,0,0,0,1.45-11.93c-.5-1.86-1.37-3.58-1.51-5.55-.21-3,1.27-6.51,0-9.05-.45,3-3.27,4.95-4.61,7.68-1.6,3.27-.86,7.19-2.23,10.57-.9,2.2-2.58,3.91-4,5.8s-2.57,4.32-2.09,6.51a26.36,26.36,0,0,1,.83,2.75c.34,3-2.84,5.37-3.65,8.36s.94,6,.19,9c-.71,2.83-3.48,6.68-4,9.54-.49,2.66,1.92,4.39,1.73,7.07-.24,3.43-3.68,7.58-3.61,11,0,1.89,1.62,2.5,1.54,4.4-.1,2.18-1.93,6.53-2.73,8.62a5.92,5.92,0,0,0,.57,5.88l10.2,5C432.78,451,432.58,446.56,430.69,443.44Z" style="fill:#00875A"></path><path d="M437.54,366.44a1,1,0,0,1,0,.23v.66c0,.59,0,1.45-.1,2.55a12.9,12.9,0,0,1-.92,3.94,20.39,20.39,0,0,1-3.07,4.38,8,8,0,0,0-1.45,2.66,8.78,8.78,0,0,0-.37,3.26c.11,2.31.82,4.7,1.15,7.32a11.15,11.15,0,0,1-.13,4.06,7.93,7.93,0,0,1-.8,2,17.61,17.61,0,0,0-1.07,1.79,6.64,6.64,0,0,0-.06,4.14c.14.72.3,1.45.39,2.21a8.38,8.38,0,0,1-.06,2.29,18,18,0,0,1-1.4,4.29,33.31,33.31,0,0,0-1.58,4,10.25,10.25,0,0,0-.35,4.07,19,19,0,0,1,.14,4.05,12,12,0,0,1-1.29,3.64,14,14,0,0,0-1.28,3.31c-.43,2.25.21,4.41.16,6.41a17.46,17.46,0,0,1-1.17,5.22,18.36,18.36,0,0,0-1,3.88,5.6,5.6,0,0,0,.26,2.48c.21.54.36.8.34.82a4.86,4.86,0,0,1-.42-.79,5.45,5.45,0,0,1-.34-2.53,18.16,18.16,0,0,1,.94-3.93,17,17,0,0,0,1.1-5.15c0-1-.14-2-.25-3.08a11.44,11.44,0,0,1,.05-3.4c.44-2.36,2.17-4.39,2.53-6.93a18.35,18.35,0,0,0-.16-4,10.65,10.65,0,0,1,.36-4.22c.78-2.78,2.47-5.31,3-8.25a8,8,0,0,0,.05-2.19c-.08-.72-.24-1.44-.38-2.16a7.08,7.08,0,0,1,.09-4.39,17.72,17.72,0,0,1,1.1-1.83,7.14,7.14,0,0,0,.76-1.86,10.78,10.78,0,0,0,.14-3.92c-.32-2.57-1-5-1.12-7.34a9.25,9.25,0,0,1,.41-3.38,8.47,8.47,0,0,1,1.52-2.74,20.47,20.47,0,0,0,3.09-4.29,12.81,12.81,0,0,0,1-3.86c.13-1.1.15-2,.18-2.54,0-.27,0-.49,0-.66A1,1,0,0,1,437.54,366.44Z" style="fill:#263238"></path><path d="M403.46,449.26c-3.32.49-5.21-4-4.59-7.26s2.51-6.49,1.89-9.79c-.53-2.86-2.86-5.1-3.6-7.92-1.33-5.08,2.81-10.25,2-15.44-.63-4.05-4.17-7.32-4.28-11.41-.12-4.39,3.76-8.06,3.95-12.45.2-4.67-3.82-8.78-3.52-13.44s4.88-8.92,3.24-13.29c-.54-1.44-1.69-2.57-2.39-3.95-1.59-3.18-.45-7.05,1.24-10.18s3.95-6.06,4.69-9.54c1.14-5.35-1.51-11.06,0-16.31,1.3-4.36,5.4-7.94,5.11-12.48,3.13,3.52,1.84,9.05,3.28,13.54.94,2.92,3,5.32,4.55,8a22.7,22.7,0,0,1,1.77,18.18c-1.31,3.93-3.75,7.88-2.79,11.91,1.16,4.88,6.79,7.47,8.62,12.14,2.61,6.69-3.54,14.38-1.14,21.15.62,1.74,1.77,3.27,2.29,5.05,1.74,6.06-4.39,11.79-4.25,18.09.11,4.64,3.61,8.75,3.42,13.39-.16,3.57-2.49,7.2-1.09,10.49.6,1.43,1.83,2.49,2.7,3.77a8.07,8.07,0,0,1,.38,8.41,7,7,0,0,1-7.62,3.2" style="fill:#00875A"></path><g style="opacity:0.5"><path d="M424.61,441.5c-.87-1.28-2.1-2.34-2.7-3.77-1.4-3.29.93-6.92,1.09-10.49.19-4.64-3.31-8.75-3.42-13.39-.14-6.3,6-12,4.25-18.09-.52-1.78-1.67-3.31-2.29-5.05-2.4-6.77,3.75-14.46,1.14-21.15-1.83-4.67-7.46-7.26-8.62-12.14-1-4,1.48-8,2.79-11.91a22.7,22.7,0,0,0-1.77-18.18c-1.52-2.67-3.61-5.07-4.55-8-1.44-4.49-.15-10-3.28-13.54.29,4.54-3.81,8.12-5.11,12.48-1.55,5.25,1.1,11,0,16.31-.74,3.48-3,6.41-4.69,9.54s-2.83,7-1.24,10.18c.7,1.38,1.85,2.51,2.39,3.95,1.64,4.37-2.93,8.64-3.24,13.29s3.72,8.77,3.52,13.44c-.19,4.39-4.07,8.06-3.95,12.45.11,4.09,3.65,7.36,4.28,11.41.8,5.19-3.34,10.36-2,15.44.74,2.82,3.07,5.06,3.6,7.92.62,3.3-1.27,6.49-1.89,9.79s1.27,7.75,4.59,7.26l13.91,3.85a7,7,0,0,0,7.62-3.2A8.07,8.07,0,0,0,424.61,441.5Z" style="fill:#fff"></path></g><path d="M419.72,439.34c-.91-1-2.21-3.22-2.23-4.62,0-1.94,2.82-4.23,3-7.58.21-4.34-3.09-11.3-3.13-15.63,0-5.89,5.09-10.79,3.73-16.38-.4-1.64-1-6.11-1.53-7.72-1.88-6.22,2.86-11.59.8-17.73-1.44-4.29-7-8.55-7.93-13.07-.74-3.73,1.29-7.53,2.4-11.26a23.71,23.71,0,0,0-1.26-16.93c-1.21-2.44-2.88-4.59-3.62-7.28-1.12-4.14,0-9.37-2.53-12.53.19,4.24-3.18,7.76-4.28,11.9-1.32,5,.78,10.21-.2,15.26-.64,3.29-2.5,6.13-3.92,9.13s-2.38,6.68-1.11,9.59c.55,1.26,1.48,2.26,1.9,3.59,1.29,4-2.47,8.2-2.77,12.57s2.94,8.05,2.73,12.43c-.2,4.11-3,10.2-2.94,14.3.05,3.83,3.86,5.57,4.33,9.32.61,4.83-3,11.52-2,16.22.57,2.6,2.92,3,3.33,5.66.47,3.06-.88,9.59-1.42,12.7a8.32,8.32,0,0,0,2.4,8L419,453.48C424.69,449.22,423.2,443.15,419.72,439.34Z" style="fill:#00875A"></path><path d="M408.13,330.79a38.39,38.39,0,0,1,.8,4.79,18.11,18.11,0,0,1-.21,5.69,14.24,14.24,0,0,1-1.22,3.36c-.56,1.14-1.23,2.29-1.84,3.53a11.45,11.45,0,0,0-1.3,4.11,12.81,12.81,0,0,0,.38,4.65c.78,3.17,2.42,6.3,3.6,9.82a15.73,15.73,0,0,1,.92,5.63,10.5,10.5,0,0,1-.57,2.92,25.19,25.19,0,0,0-1,2.79c-.47,1.92.26,3.92,1.05,5.8.4.95.83,1.92,1.15,2.93a12.62,12.62,0,0,1,.55,3.18,25.76,25.76,0,0,1-.78,6.3,50.19,50.19,0,0,0-1.08,6,15.18,15.18,0,0,0,0,2.94,16,16,0,0,0,.6,2.83,26.48,26.48,0,0,1,1.31,5.55,17.53,17.53,0,0,1-.78,5.37,20.64,20.64,0,0,0-.88,5,16.22,16.22,0,0,0,.83,4.61,43.61,43.61,0,0,1,1.17,4.24,15.6,15.6,0,0,1,.19,4c-.08,1.26-.24,2.44-.38,3.54a25.59,25.59,0,0,0-.3,5.65,8,8,0,0,0,1.05,3.38c.44.68.74,1,.72,1a6.6,6.6,0,0,1-.79-1,7.91,7.91,0,0,1-1.14-3.4,25.54,25.54,0,0,1,.24-5.7c.13-1.1.27-2.28.34-3.53a15.12,15.12,0,0,0-.22-3.93,40.7,40.7,0,0,0-1.18-4.2,16.26,16.26,0,0,1-.87-4.7,20.34,20.34,0,0,1,.87-5.05,16.82,16.82,0,0,0,.75-5.26,25.74,25.74,0,0,0-1.3-5.46,14.63,14.63,0,0,1-.66-5.91,47.6,47.6,0,0,1,1.09-6.06A25.74,25.74,0,0,0,410,390a11.69,11.69,0,0,0-.53-3.06c-.31-1-.73-1.94-1.13-2.9a18,18,0,0,1-1-3,6.77,6.77,0,0,1-.05-3.1,24.75,24.75,0,0,1,1-2.83,10.52,10.52,0,0,0,.55-2.81,15.35,15.35,0,0,0-.89-5.49c-1.15-3.48-2.79-6.64-3.57-9.86a13,13,0,0,1-.36-4.77,11.72,11.72,0,0,1,1.35-4.2c.63-1.25,1.31-2.39,1.87-3.51a14,14,0,0,0,1.22-3.3,18.26,18.26,0,0,0,.28-5.63c-.14-1.55-.34-2.75-.46-3.56l-.14-.92A1.92,1.92,0,0,1,408.13,330.79Z" style="fill:#263238"></path><path d="M401.38,451.45c-1.89.93-3.88-1.37-4.15-3.46s.25-4.37-.76-6.23c-.87-1.61-2.7-2.5-3.68-4-1.78-2.78-.3-6.68-1.79-9.63-1.16-2.3-3.91-3.58-4.76-6-.92-2.61.69-5.55,0-8.22-.79-2.83-4-4.51-4.71-7.36s1.19-6.28-.63-8.58a26.63,26.63,0,0,0-2.19-1.9c-1.57-1.6-1.64-4.14-1.23-6.34s1.2-4.39,1-6.61c-.36-3.43-3.05-6.33-3.13-9.77-.07-2.86,1.69-5.8.64-8.46,2.55,1.5,2.85,5.06,4.58,7.47,1.13,1.57,2.84,2.6,4.27,3.91a14.26,14.26,0,0,1,4.57,10.53c0,2.61-.72,5.44.63,7.67,1.64,2.69,5.51,3.16,7.51,5.6,2.85,3.5.66,9.29,3.4,12.88.71.92,1.7,1.61,2.35,2.58,2.21,3.29-.35,7.9,1,11.65.95,2.75,3.85,4.54,4.63,7.35.6,2.16-.1,4.79,1.37,6.49a15,15,0,0,0,2.35,1.73,5.08,5.08,0,0,1,1.85,5,4.4,4.4,0,0,1-3.94,3.39" style="fill:#00875A"></path><g style="opacity:0.5"><path d="M412.54,442.71a15,15,0,0,1-2.35-1.73c-1.47-1.7-.77-4.33-1.37-6.49-.78-2.81-3.68-4.6-4.63-7.35-1.31-3.75,1.25-8.36-1-11.65-.65-1-1.64-1.66-2.35-2.58-2.74-3.59-.55-9.38-3.4-12.88-2-2.44-5.87-2.91-7.51-5.6-1.35-2.23-.65-5.06-.63-7.67a14.26,14.26,0,0,0-4.57-10.53c-1.43-1.31-3.14-2.34-4.27-3.91-1.73-2.41-2-6-4.58-7.47,1.05,2.66-.71,5.6-.64,8.46.08,3.44,2.77,6.34,3.13,9.77.23,2.22-.56,4.41-1,6.61s-.34,4.74,1.23,6.34a26.63,26.63,0,0,1,2.19,1.9c1.82,2.3-.08,5.73.63,8.58s3.92,4.53,4.7,7.36c.74,2.67-.87,5.61.05,8.22.85,2.42,3.6,3.7,4.76,6,1.49,3,0,6.85,1.79,9.63,1,1.54,2.81,2.43,3.68,4,1,1.86.5,4.13.76,6.23s2.26,4.39,4.15,3.46l9.07-.39a4.4,4.4,0,0,0,3.94-3.39A5.08,5.08,0,0,0,412.54,442.71Z" style="fill:#fff"></path></g><path d="M409.2,442.36A5.75,5.75,0,0,1,407,440c-.4-1.16.87-3.07.32-5.11-.72-2.64-4-6.17-4.9-8.75-1.17-3.52,1-7.44-.93-10.52-.56-.91-1.81-3.46-2.41-4.33-2.33-3.36-.53-7.49-2.95-10.77-1.69-2.29-5.86-3.76-7.27-6.29-1.16-2.08-.68-4.75-.74-7.2a14.91,14.91,0,0,0-4-9.89,25.75,25.75,0,0,1-3.57-3.66c-1.47-2.26-1.82-5.6-3.94-7,.94,2.49-.4,5.26-.26,7.95.17,3.23,2.44,6,2.83,9.17.26,2.09-.31,4.15-.58,6.22s-.13,4.46,1.19,5.95c.57.65,1.32,1.07,1.83,1.78,1.55,2.15.11,5.39.77,8.06s3.32,4.25,4,6.91c.67,2.5.18,6.69,1,9.13.77,2.28,3.39,2.59,4.4,4.74,1.29,2.77.41,7.48,1.94,10.09.84,1.45,2.33,1.24,3.09,2.75.87,1.74,1.32,5.9,1.6,7.87a5.27,5.27,0,0,0,3,4.32l10.1-.48C414.08,447.32,412,444,409.2,442.36Z" style="fill:#00875A"></path><path d="M381.28,379.64a1.57,1.57,0,0,1,.11.17c.08.13.17.3.29.51.25.45.63,1.12,1,2a11.54,11.54,0,0,1,1,3.45,18.47,18.47,0,0,1-.49,4.73,7.16,7.16,0,0,0,0,2.69,8.11,8.11,0,0,0,1.12,2.69c1.08,1.73,2.66,3.29,4.06,5.18a10.07,10.07,0,0,1,1.65,3.21,6.55,6.55,0,0,1,.23,1.88,16.56,16.56,0,0,0-.06,1.85,5.89,5.89,0,0,0,1.73,3.22c.43.5.87,1,1.26,1.54a8.08,8.08,0,0,1,.95,1.82,16.06,16.06,0,0,1,.76,3.93,30.53,30.53,0,0,0,.51,3.8,9.05,9.05,0,0,0,1.48,3.3,16.47,16.47,0,0,1,1.86,3.09,10.67,10.67,0,0,1,.57,3.39,12.57,12.57,0,0,0,.43,3.12c.64,1.92,2.06,3.33,2.89,4.9A15.12,15.12,0,0,1,404,444.7a16.84,16.84,0,0,0,.9,3.43,4.94,4.94,0,0,0,1.27,1.82c.39.33.62.47.61.49a3.77,3.77,0,0,1-.67-.43,4.88,4.88,0,0,1-1.36-1.81,15.8,15.8,0,0,1-1-3.46,15.35,15.35,0,0,0-1.37-4.47c-.82-1.52-2.27-2.91-3-4.94s-.21-4.35-1-6.47a16.71,16.71,0,0,0-1.83-3,9.39,9.39,0,0,1-1.55-3.43c-.6-2.5-.37-5.2-1.26-7.68a7.61,7.61,0,0,0-.9-1.72c-.38-.52-.81-1-1.24-1.51a6.31,6.31,0,0,1-1.82-3.46,16.84,16.84,0,0,1,.06-1.9,6.11,6.11,0,0,0-.21-1.76,9.53,9.53,0,0,0-1.58-3.09c-1.35-1.86-2.94-3.43-4-5.22a8.37,8.37,0,0,1-1.14-2.81,7.47,7.47,0,0,1,0-2.79,18.13,18.13,0,0,0,.55-4.66,11.42,11.42,0,0,0-.91-3.42c-.37-.9-.72-1.58-.95-2l-.26-.52C381.3,379.7,381.27,379.64,381.28,379.64Z" style="fill:#263238"></path><polygon points="386.88 443.46 390.81 451.44 438.67 451.44 444.06 443.46 386.88 443.46" style="fill:#455a64"></polygon><polygon points="391.95 448.69 399.12 473.43 431.35 473.45 437.85 448.74 391.95 448.69" style="fill:#455a64"></polygon><path d="M438.45,451.39c0,.11-10.68.2-23.85.2s-23.85-.09-23.85-.2,10.68-.21,23.85-.21S438.45,451.27,438.45,451.39Z" style="fill:#263238"></path></g><g id="freepik--Floor--inject-70"><path d="M442.3,473.45c0,.15-88.61.26-197.89.26s-197.92-.11-197.92-.26,88.6-.26,197.92-.26S442.3,473.31,442.3,473.45Z" style="fill:#263238"></path></g></svg>